M48
METRIC,LZ,000.000
;FILE_FORMAT=3:3
;TYPE=PLATED
;Layer: PTH_Through
;EasyEDA v6.5.22, 2022-11-17 19:54:28
;58078ef82a4c4da8a465e0a24104bfee,1ae14fa7f5aa486887b2aa5280da83c0,10
;Gerber Generator version 0.2
;Holesize 1 = 0.889 mm
T01C0.889
;Holesize 2 = 0.915 mm
T02C0.915
;Holesize 3 = 1.001 mm
T03C1.001
;Holesize 4 = 1.016 mm
T04C1.016
;Holesize 5 = 1.199 mm
T05C1.199
%
G05
G90
T01
X017907Y-005080
X015367Y-005080
T02
X002540Y-055880
X005080Y-055880
X007620Y-055880
X010160Y-055880
X012700Y-055880
X015240Y-055880
X017780Y-055880
X020320Y-055880
T03
X007620Y-030480
X005080Y-030480
X007620Y-027940
X005080Y-027940
X007620Y-025400
X005080Y-025400
X007620Y-022860
X005080Y-022860
X007620Y-020320
X005080Y-020320
X007620Y-017780
X005080Y-017780
X007620Y-015240
X005080Y-015240
X007620Y-012700
X005080Y-012700
T04
X025273Y-008382
X027813Y-008382
X025273Y-010922
X027813Y-010922
X025273Y-013462
X027813Y-013462
X025273Y-016002
X027813Y-016002
X025273Y-018542
X027813Y-018542
X025273Y-021082
X027813Y-021082
X025273Y-023622
X027813Y-023622
X025273Y-026162
X027813Y-026162
X025273Y-028702
X027813Y-028702
X025273Y-031242
X027813Y-031242
X025273Y-033782
X027813Y-033782
X025273Y-036322
X027813Y-036322
X025273Y-038862
X027813Y-038862
X025273Y-041402
X027813Y-041402
X025273Y-043942
X027813Y-043942
X025273Y-046482
X027813Y-046482
X025273Y-049022
X027813Y-049022
X025273Y-051562
X027813Y-051562
X025273Y-054102
X027813Y-054102
X025273Y-056642
X027813Y-056642
T05
X017780Y-030480
X017780Y-045720
M30
