M48
METRIC,LZ,000.000
;FILE_FORMAT=3:3
;TYPE=PLATED
;Layer: PTH_Through
;EasyEDA v6.5.22, 2022-12-20 18:45:55
;f003bedfd4814326965babdaf269f31e,1ae14fa7f5aa486887b2aa5280da83c0,10
;Gerber Generator version 0.2
;Holesize 1 = 0.889 mm
T01C0.889
;Holesize 2 = 0.901 mm
T02C0.901
;Holesize 3 = 0.915 mm
T03C0.915
;Holesize 4 = 1.000 mm
T04C1.000
%
G05
G90
T01
X012700Y076200
X012700Y073660
T02
X053820Y065405
X058420Y065405
X058420Y058405
X053820Y058405
T03
X066167Y058420
X066167Y060960
X066167Y063500
X066167Y066040
X066167Y068580
X066167Y071120
X066167Y073660
X066167Y076200
X058420Y074422
X058420Y068326
X043180Y060960
X040640Y060960
X038100Y060960
X035560Y060960
X033020Y060960
X030480Y060960
X027940Y060960
X025400Y060960
X025400Y058420
X027940Y058420
X030480Y058420
X033020Y058420
X035560Y058420
X038100Y058420
X040640Y058420
X043180Y058420
T04
X017768Y081326
X017768Y083866
X020308Y081326
X020308Y083866
X022848Y081326
X022848Y083866
X025388Y081326
X025388Y083866
X027928Y081326
X027928Y083866
X030468Y081326
X030468Y083866
X033008Y081326
X033008Y083866
X035548Y081326
X035548Y083866
X038088Y081326
X038088Y083866
X040628Y081326
X040628Y083866
X043168Y081326
X043168Y083866
X045708Y081326
X045708Y083866
X048248Y081326
X048248Y083866
X050788Y081326
X050788Y083866
X053328Y081326
X053328Y083866
X055868Y081326
X055868Y083866
X058408Y081326
X058408Y083866
X060948Y081326
X060948Y083866
X063488Y081326
X063488Y083866
X066028Y081326
X066028Y083866
X012827Y068326
X012827Y065786
M30
