M48
METRIC,LZ,000.000
;FILE_FORMAT=3:3
;TYPE=PLATED
;Layer: PTH_Through_Via
;EasyEDA v6.5.22, 2022-12-03 20:42:59
;c9e85bc281f3473fbd440b6798323965,1ae14fa7f5aa486887b2aa5280da83c0,10
;Gerber Generator version 0.2
;Holesize 1 = 0.306 mm
T01C0.306
%
G05
G90
T01
X022550Y065505
X027447Y065588
X040085Y068482
X034812Y062592
X036144Y068842
X028384Y064980
X031193Y068482
X041842Y068463
X037803Y068479
X032506Y078753
X036936Y082707
X029211Y080046
X046912Y079140
X048615Y074082
X022909Y078533
X049545Y085433
X052058Y080742
X024554Y078619
X029059Y078533
X019508Y079645
X037760Y079988
X037688Y078750
X025953Y078513
M30
