M48
METRIC,LZ,000.000
;FILE_FORMAT=3:3
;TYPE=PLATED
;Layer: PTH_Through_Via
;EasyEDA v6.5.22, 2022-12-20 18:45:55
;f003bedfd4814326965babdaf269f31e,1ae14fa7f5aa486887b2aa5280da83c0,10
;Gerber Generator version 0.2
;Holesize 1 = 0.306 mm
T01C0.306
%
G05
G90
T01
X034504Y076745
X037089Y073260
X034616Y078333
X037548Y063787
X032634Y071107
X025570Y071107
X022987Y065487
X037211Y065497
X047148Y072575
X022354Y078446
X026944Y080195
X023683Y063642
X028844Y085570
X048606Y074422
X033662Y078423
X031349Y074859
X039636Y078432
X045086Y075334
X024285Y065480
X035617Y065685
X035257Y064497
M30
