G04 Layer: BottomLayer*
G04 EasyEDA v6.5.22, 2022-12-20 18:45:55*
G04 f003bedfd4814326965babdaf269f31e,1ae14fa7f5aa486887b2aa5280da83c0,10*
G04 Gerber Generator version 0.2*
G04 Scale: 100 percent, Rotated: No, Reflected: No *
G04 Dimensions in millimeters *
G04 leading zeros omitted , absolute positions ,4 integer and 5 decimal *
%FSLAX45Y45*%
%MOMM*%

%AMMACRO1*21,1,$1,$2,0,0,$3*%
%ADD10C,0.2540*%
%ADD11C,0.5000*%
%ADD12MACRO1,1.7018X1.7018X90.0000*%
%ADD13C,1.7000*%
%ADD14R,2.0320X2.0320*%
%ADD15C,2.0320*%
%ADD16C,1.5240*%
%ADD17C,1.6000*%
%ADD18C,1.8000*%
%ADD19R,1.5748X1.5748*%
%ADD20C,1.5748*%
%ADD21C,0.6100*%
%ADD22C,0.0139*%

%LPD*%
G36*
X2955036Y8200745D02*
G01*
X2951073Y8201456D01*
X2947670Y8203641D01*
X2945384Y8206943D01*
X2944571Y8210905D01*
X2944571Y8272932D01*
X2943758Y8280958D01*
X2941574Y8288172D01*
X2938018Y8294878D01*
X2932887Y8301075D01*
X2898394Y8335619D01*
X2896158Y8339023D01*
X2895396Y8342985D01*
X2900934Y8361934D01*
X2903169Y8375954D01*
X2903626Y8390128D01*
X2902254Y8404301D01*
X2899105Y8418169D01*
X2894228Y8431479D01*
X2887167Y8444890D01*
X2885998Y8448903D01*
X2886557Y8453018D01*
X2888691Y8456574D01*
X2892094Y8458962D01*
X2896158Y8459774D01*
X2908147Y8459774D01*
X2916174Y8460587D01*
X2923387Y8462772D01*
X2930093Y8466328D01*
X2933293Y8469020D01*
X2936341Y8470696D01*
X2939745Y8471306D01*
X2951480Y8471306D01*
X2955798Y8470341D01*
X2959252Y8467699D01*
X2961284Y8463788D01*
X2961487Y8459419D01*
X2959811Y8455355D01*
X2951988Y8444077D01*
X2945384Y8431479D01*
X2940507Y8418169D01*
X2937357Y8404301D01*
X2935986Y8390128D01*
X2936443Y8375954D01*
X2938678Y8361934D01*
X2942742Y8348319D01*
X2948482Y8335314D01*
X2955848Y8323173D01*
X2964738Y8312048D01*
X2974949Y8302142D01*
X2986328Y8293658D01*
X2998673Y8286699D01*
X3011881Y8281365D01*
X3025597Y8277758D01*
X3039719Y8275929D01*
X3053892Y8275929D01*
X3068015Y8277758D01*
X3081731Y8281365D01*
X3086658Y8283346D01*
X3090570Y8284108D01*
X3094431Y8283295D01*
X3097682Y8281111D01*
X3132226Y8246567D01*
X3134410Y8243265D01*
X3135223Y8239404D01*
X3135223Y8224672D01*
X3134461Y8220913D01*
X3132429Y8217662D01*
X3129280Y8215426D01*
X3125571Y8214512D01*
X3121761Y8215020D01*
X3118459Y8216950D01*
X3113125Y8221472D01*
X3101238Y8229193D01*
X3088436Y8235391D01*
X3074924Y8239861D01*
X3061004Y8242553D01*
X3046831Y8243468D01*
X3032607Y8242553D01*
X3018688Y8239861D01*
X3005175Y8235391D01*
X2992374Y8229193D01*
X2980486Y8221472D01*
X2969666Y8212277D01*
X2962249Y8204098D01*
X2958998Y8201710D01*
G37*

%LPD*%
G36*
X5866739Y7988655D02*
G01*
X5862828Y7989417D01*
X5859526Y7991652D01*
X5845962Y8005165D01*
X5843574Y8008975D01*
X5843066Y8013446D01*
X5844489Y8017713D01*
X5847638Y8020913D01*
X5851855Y8022437D01*
X5862015Y8023758D01*
X5875731Y8027365D01*
X5880658Y8029346D01*
X5884570Y8030108D01*
X5888431Y8029295D01*
X5891682Y8027111D01*
X5912815Y8005978D01*
X5914999Y8002727D01*
X5915761Y7998815D01*
X5914999Y7994903D01*
X5912815Y7991652D01*
X5909513Y7989417D01*
X5905601Y7988655D01*
G37*

%LPD*%
G36*
X3864457Y7881772D02*
G01*
X3860546Y7882534D01*
X3857244Y7884769D01*
X3660394Y8081619D01*
X3658158Y8085023D01*
X3657396Y8088985D01*
X3662934Y8107934D01*
X3665169Y8121954D01*
X3665626Y8136128D01*
X3664254Y8150301D01*
X3661105Y8164169D01*
X3656228Y8177479D01*
X3649624Y8190077D01*
X3641496Y8201710D01*
X3639464Y8203996D01*
X3637432Y8207298D01*
X3636822Y8211159D01*
X3637686Y8214918D01*
X3639921Y8218119D01*
X3643172Y8220252D01*
X3646982Y8220964D01*
X3661613Y8220964D01*
X3665474Y8220202D01*
X3668776Y8218017D01*
X3703320Y8183473D01*
X3705453Y8180324D01*
X3706317Y8176564D01*
X3705656Y8172805D01*
X3702507Y8164169D01*
X3699357Y8150301D01*
X3697986Y8136128D01*
X3698443Y8121954D01*
X3700678Y8107934D01*
X3704742Y8094319D01*
X3710482Y8081314D01*
X3717848Y8069173D01*
X3726738Y8058048D01*
X3736949Y8048142D01*
X3748328Y8039658D01*
X3760673Y8032699D01*
X3773881Y8027365D01*
X3787597Y8023758D01*
X3801719Y8021929D01*
X3815892Y8021929D01*
X3830015Y8023758D01*
X3843731Y8027365D01*
X3848658Y8029346D01*
X3852570Y8030108D01*
X3856431Y8029295D01*
X3859682Y8027111D01*
X3969969Y7916824D01*
X3972102Y7913674D01*
X3972915Y7909966D01*
X3972306Y7906207D01*
X3970375Y7902905D01*
X3967327Y7900568D01*
X3963670Y7899552D01*
X3953865Y7898688D01*
X3944365Y7896148D01*
X3935476Y7891983D01*
X3927398Y7886344D01*
X3925824Y7884769D01*
X3922522Y7882534D01*
X3918610Y7881772D01*
G37*

%LPD*%
G36*
X5635599Y7658608D02*
G01*
X5631688Y7659370D01*
X5628386Y7661605D01*
X5626201Y7664856D01*
X5625439Y7668768D01*
X5625439Y8021980D01*
X5626201Y8025892D01*
X5628436Y8029194D01*
X5631738Y8031429D01*
X5634939Y8032699D01*
X5647283Y8039658D01*
X5658662Y8048142D01*
X5669584Y8058759D01*
X5673090Y8060994D01*
X5677255Y8061655D01*
X5681268Y8060588D01*
X5684520Y8057946D01*
X5686856Y8055102D01*
X5818886Y7923123D01*
X5825083Y7917992D01*
X5831789Y7914436D01*
X5839002Y7912252D01*
X5847029Y7911439D01*
X6459524Y7911439D01*
X6463385Y7910677D01*
X6466687Y7908442D01*
X6611112Y7764068D01*
X6613245Y7760868D01*
X6614058Y7757109D01*
X6613398Y7753299D01*
X6611366Y7749997D01*
X6608267Y7747711D01*
X6604508Y7746746D01*
X6601307Y7746542D01*
X6586169Y7743799D01*
X6571488Y7739227D01*
X6557467Y7732877D01*
X6544259Y7724902D01*
X6532168Y7715402D01*
X6521297Y7704531D01*
X6511798Y7692440D01*
X6503822Y7679232D01*
X6497218Y7664602D01*
X6494983Y7661452D01*
X6491732Y7659319D01*
X6487972Y7658608D01*
G37*

%LPD*%
G36*
X3080918Y7513015D02*
G01*
X3076549Y7513574D01*
X3072841Y7515961D01*
X2947568Y7641234D01*
X2945333Y7644536D01*
X2944571Y7648448D01*
X2944571Y8054289D01*
X2945434Y8058353D01*
X2947822Y8061706D01*
X2951378Y8063839D01*
X2955493Y8064398D01*
X2959455Y8063280D01*
X2962656Y8060588D01*
X2964738Y8058048D01*
X2974949Y8048142D01*
X2986328Y8039658D01*
X2998673Y8032699D01*
X3011881Y8027365D01*
X3025597Y8023758D01*
X3039719Y8021929D01*
X3053892Y8021929D01*
X3068015Y8023758D01*
X3082340Y8027619D01*
X3086201Y8028330D01*
X3090062Y8027568D01*
X3093364Y8025333D01*
X3095548Y8022031D01*
X3096310Y8018170D01*
X3096310Y7530896D01*
X3095548Y7527036D01*
X3093313Y7523734D01*
X3091738Y7522108D01*
X3088335Y7517282D01*
X3085134Y7514336D01*
G37*

%LPD*%
G36*
X6704939Y7459776D02*
G01*
X6700875Y7461707D01*
X6689140Y7470902D01*
X6675932Y7478877D01*
X6665163Y7483754D01*
X6662013Y7485938D01*
X6659930Y7489190D01*
X6659168Y7493000D01*
X6659930Y7496809D01*
X6662013Y7500061D01*
X6665163Y7502245D01*
X6675932Y7507122D01*
X6689140Y7515098D01*
X6700875Y7524292D01*
X6704939Y7526223D01*
X6709460Y7526172D01*
X6713524Y7524191D01*
X6716318Y7520686D01*
X6717334Y7516317D01*
X6717334Y7469682D01*
X6716318Y7465314D01*
X6713524Y7461808D01*
X6709460Y7459827D01*
G37*

%LPD*%
G36*
X6704939Y7205776D02*
G01*
X6700875Y7207707D01*
X6689140Y7216902D01*
X6675932Y7224877D01*
X6665163Y7229754D01*
X6662013Y7231938D01*
X6659930Y7235190D01*
X6659168Y7239000D01*
X6659930Y7242809D01*
X6662013Y7246061D01*
X6665163Y7248245D01*
X6675932Y7253122D01*
X6689140Y7261098D01*
X6700875Y7270292D01*
X6704939Y7272223D01*
X6709460Y7272172D01*
X6713524Y7270191D01*
X6716318Y7266686D01*
X6717334Y7262317D01*
X6717334Y7215682D01*
X6716318Y7211314D01*
X6713524Y7207808D01*
X6709460Y7205827D01*
G37*

%LPD*%
G36*
X6672834Y6973163D02*
G01*
X6668871Y6974078D01*
X6665163Y6975754D01*
X6662013Y6977938D01*
X6659930Y6981190D01*
X6659168Y6985000D01*
X6659930Y6988809D01*
X6662013Y6992061D01*
X6665163Y6994245D01*
X6674967Y6998665D01*
X6678879Y6999579D01*
X6682841Y6998868D01*
X6686194Y6996734D01*
X6688480Y6993432D01*
X6689293Y6989521D01*
X6688531Y6985558D01*
X6686346Y6982206D01*
X6680250Y6976160D01*
X6676847Y6973925D01*
G37*

%LPD*%
G36*
X6739178Y6785406D02*
G01*
X6735267Y6786219D01*
X6731965Y6788505D01*
X6729831Y6791858D01*
X6729120Y6795820D01*
X6730034Y6799732D01*
X6735927Y6812788D01*
X6740499Y6827469D01*
X6743242Y6842607D01*
X6744208Y6858000D01*
X6743242Y6873392D01*
X6740499Y6888530D01*
X6735927Y6903212D01*
X6732778Y6910171D01*
X6731863Y6914134D01*
X6732625Y6918147D01*
X6734860Y6921550D01*
X6754368Y6941058D01*
X6757670Y6943293D01*
X6761581Y6944055D01*
X6765442Y6943293D01*
X6768744Y6941058D01*
X6770928Y6937756D01*
X6771741Y6933895D01*
X6771741Y6817817D01*
X6770928Y6813956D01*
X6768744Y6810654D01*
X6746494Y6788353D01*
X6743141Y6786168D01*
G37*

%LPD*%
G36*
X6672834Y6719163D02*
G01*
X6668871Y6720078D01*
X6665163Y6721754D01*
X6662013Y6723938D01*
X6659930Y6727190D01*
X6659168Y6731000D01*
X6659930Y6734809D01*
X6662013Y6738061D01*
X6665163Y6740245D01*
X6674967Y6744665D01*
X6678879Y6745579D01*
X6682841Y6744868D01*
X6686194Y6742734D01*
X6688480Y6739432D01*
X6689293Y6735521D01*
X6688531Y6731558D01*
X6686346Y6728206D01*
X6680250Y6722160D01*
X6676847Y6719925D01*
G37*

%LPD*%
G36*
X6739178Y6531406D02*
G01*
X6735267Y6532219D01*
X6731965Y6534505D01*
X6729831Y6537858D01*
X6729120Y6541820D01*
X6730034Y6545732D01*
X6735927Y6558788D01*
X6740499Y6573469D01*
X6743242Y6588607D01*
X6744208Y6604000D01*
X6743242Y6619392D01*
X6740499Y6634530D01*
X6735927Y6649212D01*
X6732778Y6656171D01*
X6731863Y6660134D01*
X6732625Y6664147D01*
X6734860Y6667550D01*
X6809333Y6742023D01*
X6812635Y6744258D01*
X6816547Y6745020D01*
X6820408Y6744258D01*
X6823709Y6742023D01*
X6825894Y6738721D01*
X6826707Y6734860D01*
X6826707Y6618782D01*
X6825894Y6614922D01*
X6823709Y6611620D01*
X6746494Y6534353D01*
X6743141Y6532168D01*
G37*

%LPD*%
G36*
X6672834Y6465163D02*
G01*
X6668871Y6466078D01*
X6665163Y6467754D01*
X6662013Y6469938D01*
X6659930Y6473190D01*
X6659168Y6477000D01*
X6659930Y6480810D01*
X6662013Y6484061D01*
X6665163Y6486245D01*
X6674967Y6490665D01*
X6678879Y6491579D01*
X6682841Y6490868D01*
X6686194Y6488734D01*
X6688480Y6485432D01*
X6689293Y6481521D01*
X6688531Y6477558D01*
X6686346Y6474206D01*
X6680250Y6468160D01*
X6676847Y6465925D01*
G37*

%LPD*%
G36*
X3380130Y6166104D02*
G01*
X3376218Y6166916D01*
X3372916Y6169152D01*
X3370478Y6171692D01*
X3359759Y6180175D01*
X3343554Y6189827D01*
X3341370Y6193129D01*
X3340608Y6196990D01*
X3340608Y6205778D01*
X3341370Y6209639D01*
X3343605Y6212941D01*
X3373069Y6242405D01*
X3376320Y6244640D01*
X3380232Y6245402D01*
X3384143Y6244640D01*
X3387394Y6242405D01*
X3389629Y6239103D01*
X3390392Y6235242D01*
X3390392Y6176264D01*
X3389629Y6172301D01*
X3387394Y6168999D01*
X3384042Y6166815D01*
G37*

%LPD*%
G36*
X3952189Y6081522D02*
G01*
X3948226Y6082233D01*
X3944874Y6084468D01*
X3910888Y6118453D01*
X3909212Y6120688D01*
X3907485Y6126226D01*
X3902608Y6138976D01*
X3896055Y6150914D01*
X3887978Y6161887D01*
X3878478Y6171692D01*
X3867759Y6180175D01*
X3856177Y6187033D01*
X3852976Y6190030D01*
X3851351Y6194094D01*
X3851554Y6198463D01*
X3853586Y6202324D01*
X3857091Y6204966D01*
X3861358Y6205931D01*
X3895242Y6205931D01*
X3899154Y6205169D01*
X3902456Y6202934D01*
X3965346Y6140043D01*
X3967530Y6136843D01*
X3968343Y6133033D01*
X3967632Y6129223D01*
X3966514Y6126226D01*
X3963314Y6112967D01*
X3961993Y6099403D01*
X3962196Y6091986D01*
X3961536Y6088024D01*
X3959402Y6084620D01*
X3956100Y6082334D01*
G37*

%LPD*%
G36*
X5481269Y5752947D02*
G01*
X5477560Y5753709D01*
X5474309Y5755741D01*
X5472074Y5758789D01*
X5471160Y5762498D01*
X5471617Y5766257D01*
X5473446Y5769610D01*
X5475732Y5772404D01*
X5483555Y5784646D01*
X5489752Y5797854D01*
X5494223Y5811672D01*
X5496966Y5825998D01*
X5497880Y5840476D01*
X5496966Y5855004D01*
X5494223Y5869330D01*
X5489752Y5883148D01*
X5483555Y5896356D01*
X5475732Y5908598D01*
X5466486Y5919825D01*
X5455869Y5929782D01*
X5444083Y5938367D01*
X5431332Y5945378D01*
X5427014Y5947054D01*
X5423662Y5949238D01*
X5421426Y5952591D01*
X5420614Y5956503D01*
X5420614Y6424472D01*
X5421426Y6428435D01*
X5423662Y6431737D01*
X5427014Y6433921D01*
X5431332Y6435648D01*
X5444083Y6442659D01*
X5455869Y6451193D01*
X5466486Y6461150D01*
X5475732Y6472377D01*
X5483555Y6484670D01*
X5489752Y6497828D01*
X5494223Y6511696D01*
X5496966Y6525971D01*
X5497880Y6540500D01*
X5496966Y6555028D01*
X5494223Y6569303D01*
X5489752Y6583172D01*
X5488482Y6587794D01*
X5489194Y6591858D01*
X5491429Y6595313D01*
X5613755Y6717639D01*
X5618886Y6723837D01*
X5622442Y6730542D01*
X5624626Y6737756D01*
X5625439Y6745782D01*
X5625439Y7571231D01*
X5626201Y7575143D01*
X5628386Y7578394D01*
X5631688Y7580630D01*
X5635599Y7581392D01*
X6487972Y7581392D01*
X6491732Y7580680D01*
X6494983Y7578547D01*
X6497218Y7575397D01*
X6503822Y7560767D01*
X6511798Y7547559D01*
X6521297Y7535468D01*
X6532168Y7524597D01*
X6544259Y7515098D01*
X6557467Y7507122D01*
X6568236Y7502245D01*
X6571386Y7500061D01*
X6573469Y7496809D01*
X6574231Y7493000D01*
X6573469Y7489190D01*
X6571386Y7485938D01*
X6568236Y7483754D01*
X6557467Y7478877D01*
X6544259Y7470902D01*
X6532168Y7461402D01*
X6521297Y7450531D01*
X6511798Y7438440D01*
X6503822Y7425232D01*
X6497472Y7411212D01*
X6492900Y7396530D01*
X6490157Y7381392D01*
X6489192Y7366000D01*
X6490157Y7350607D01*
X6492900Y7335469D01*
X6497472Y7320788D01*
X6503822Y7306767D01*
X6511798Y7293559D01*
X6521297Y7281468D01*
X6532168Y7270597D01*
X6544259Y7261098D01*
X6557467Y7253122D01*
X6568236Y7248245D01*
X6571386Y7246061D01*
X6573469Y7242809D01*
X6574231Y7239000D01*
X6573469Y7235190D01*
X6571386Y7231938D01*
X6568236Y7229754D01*
X6557467Y7224877D01*
X6544259Y7216902D01*
X6532168Y7207402D01*
X6521297Y7196531D01*
X6511798Y7184440D01*
X6503822Y7171232D01*
X6497472Y7157212D01*
X6492900Y7142530D01*
X6490157Y7127392D01*
X6489192Y7112000D01*
X6490157Y7096607D01*
X6492900Y7081469D01*
X6497472Y7066788D01*
X6503822Y7052767D01*
X6511798Y7039559D01*
X6521297Y7027468D01*
X6532168Y7016597D01*
X6544259Y7007098D01*
X6557467Y6999122D01*
X6568236Y6994245D01*
X6571386Y6992061D01*
X6573469Y6988809D01*
X6574231Y6985000D01*
X6573469Y6981190D01*
X6571386Y6977938D01*
X6568236Y6975754D01*
X6557467Y6970877D01*
X6544259Y6962902D01*
X6532168Y6953402D01*
X6521297Y6942531D01*
X6511798Y6930440D01*
X6503822Y6917232D01*
X6497472Y6903212D01*
X6492900Y6888530D01*
X6490157Y6873392D01*
X6489192Y6858000D01*
X6490157Y6842607D01*
X6492900Y6827469D01*
X6497472Y6812788D01*
X6503822Y6798767D01*
X6511798Y6785559D01*
X6521297Y6773468D01*
X6532168Y6762597D01*
X6544259Y6753098D01*
X6557467Y6745122D01*
X6568236Y6740245D01*
X6571386Y6738061D01*
X6573469Y6734809D01*
X6574231Y6731000D01*
X6573469Y6727190D01*
X6571386Y6723938D01*
X6568236Y6721754D01*
X6557467Y6716877D01*
X6544259Y6708902D01*
X6532168Y6699402D01*
X6521297Y6688531D01*
X6511798Y6676440D01*
X6503822Y6663232D01*
X6497472Y6649212D01*
X6492900Y6634530D01*
X6490157Y6619392D01*
X6489192Y6604000D01*
X6490157Y6588607D01*
X6492900Y6573469D01*
X6497472Y6558788D01*
X6503822Y6544767D01*
X6511798Y6531559D01*
X6521297Y6519468D01*
X6532168Y6508597D01*
X6544259Y6499098D01*
X6557467Y6491122D01*
X6568236Y6486245D01*
X6571386Y6484061D01*
X6573469Y6480810D01*
X6574231Y6477000D01*
X6573469Y6473190D01*
X6571386Y6469938D01*
X6568236Y6467754D01*
X6557467Y6462877D01*
X6544259Y6454902D01*
X6532168Y6445402D01*
X6521297Y6434531D01*
X6511798Y6422440D01*
X6503822Y6409232D01*
X6497472Y6395212D01*
X6492900Y6380530D01*
X6490157Y6365392D01*
X6489192Y6350000D01*
X6490157Y6334607D01*
X6492900Y6319469D01*
X6497472Y6304788D01*
X6503822Y6290767D01*
X6511798Y6277559D01*
X6521297Y6265468D01*
X6532168Y6254597D01*
X6544259Y6245098D01*
X6557467Y6237122D01*
X6568236Y6232245D01*
X6571386Y6230061D01*
X6573469Y6226810D01*
X6574231Y6223000D01*
X6573469Y6219190D01*
X6571386Y6215938D01*
X6568236Y6213754D01*
X6557467Y6208877D01*
X6544259Y6200902D01*
X6532168Y6191402D01*
X6521297Y6180531D01*
X6511798Y6168440D01*
X6503822Y6155232D01*
X6497472Y6141212D01*
X6492900Y6126530D01*
X6490157Y6111392D01*
X6489192Y6096000D01*
X6490157Y6080607D01*
X6492900Y6065469D01*
X6497472Y6050788D01*
X6500622Y6043828D01*
X6501536Y6039866D01*
X6500774Y6035852D01*
X6498539Y6032449D01*
X6222034Y5755944D01*
X6218732Y5753760D01*
X6214872Y5752947D01*
X5941263Y5752947D01*
X5937554Y5753709D01*
X5934354Y5755741D01*
X5932119Y5758789D01*
X5931154Y5762498D01*
X5931611Y5766257D01*
X5933440Y5769610D01*
X5935776Y5772404D01*
X5943549Y5784646D01*
X5949746Y5797854D01*
X5954268Y5811672D01*
X5956960Y5825998D01*
X5957874Y5840476D01*
X5956960Y5855004D01*
X5954268Y5869330D01*
X5949746Y5883148D01*
X5943549Y5896356D01*
X5935776Y5908598D01*
X5926480Y5919825D01*
X5915863Y5929782D01*
X5904077Y5938367D01*
X5891326Y5945378D01*
X5887008Y5947054D01*
X5883656Y5949238D01*
X5881420Y5952591D01*
X5880608Y5956503D01*
X5880608Y6424472D01*
X5881420Y6428435D01*
X5883656Y6431737D01*
X5887008Y6433921D01*
X5891326Y6435648D01*
X5904077Y6442659D01*
X5915863Y6451193D01*
X5926480Y6461150D01*
X5935776Y6472377D01*
X5943549Y6484670D01*
X5949746Y6497828D01*
X5954268Y6511696D01*
X5956960Y6525971D01*
X5957874Y6540500D01*
X5956960Y6555028D01*
X5954268Y6569303D01*
X5949746Y6583172D01*
X5943549Y6596329D01*
X5935776Y6608622D01*
X5926480Y6619849D01*
X5915863Y6629806D01*
X5904077Y6638340D01*
X5891326Y6645351D01*
X5887008Y6647078D01*
X5883656Y6649262D01*
X5881420Y6652564D01*
X5880608Y6656527D01*
X5880608Y6731711D01*
X5881268Y6735368D01*
X5883249Y6738569D01*
X5886196Y6740804D01*
X5894019Y6744766D01*
X5905246Y6752488D01*
X5915406Y6761632D01*
X5924194Y6772046D01*
X5931509Y6783527D01*
X5937250Y6795922D01*
X5941314Y6808927D01*
X5943549Y6822389D01*
X5944006Y6836003D01*
X5942685Y6849567D01*
X5939485Y6862825D01*
X5934608Y6875576D01*
X5928055Y6887514D01*
X5919978Y6898487D01*
X5910478Y6908292D01*
X5899759Y6916775D01*
X5888024Y6923735D01*
X5875477Y6929018D01*
X5862320Y6932625D01*
X5848807Y6934453D01*
X5835192Y6934453D01*
X5821680Y6932625D01*
X5808522Y6929018D01*
X5795975Y6923735D01*
X5784240Y6916775D01*
X5773521Y6908292D01*
X5764022Y6898487D01*
X5755944Y6887514D01*
X5749391Y6875576D01*
X5744514Y6862825D01*
X5741314Y6849567D01*
X5739993Y6836003D01*
X5740450Y6822389D01*
X5742686Y6808927D01*
X5746750Y6795922D01*
X5752490Y6783527D01*
X5759805Y6772046D01*
X5768594Y6761632D01*
X5778754Y6752488D01*
X5789980Y6744766D01*
X5797804Y6740804D01*
X5800750Y6738569D01*
X5802731Y6735368D01*
X5803392Y6731711D01*
X5803392Y6656527D01*
X5802579Y6652564D01*
X5800344Y6649262D01*
X5796991Y6647078D01*
X5792673Y6645351D01*
X5779922Y6638340D01*
X5768136Y6629806D01*
X5757519Y6619849D01*
X5748223Y6608622D01*
X5740450Y6596329D01*
X5734253Y6583172D01*
X5729732Y6569303D01*
X5727039Y6555028D01*
X5726125Y6540500D01*
X5727039Y6525971D01*
X5729732Y6511696D01*
X5734253Y6497828D01*
X5740450Y6484670D01*
X5748223Y6472377D01*
X5757519Y6461150D01*
X5768136Y6451193D01*
X5779922Y6442659D01*
X5792673Y6435648D01*
X5796991Y6433921D01*
X5800344Y6431737D01*
X5802579Y6428435D01*
X5803392Y6424472D01*
X5803392Y5956503D01*
X5802579Y5952591D01*
X5800344Y5949238D01*
X5796991Y5947054D01*
X5792673Y5945378D01*
X5779922Y5938367D01*
X5768136Y5929782D01*
X5757519Y5919825D01*
X5748223Y5908598D01*
X5740450Y5896356D01*
X5734253Y5883148D01*
X5729732Y5869330D01*
X5727039Y5855004D01*
X5726125Y5840476D01*
X5727039Y5825998D01*
X5729732Y5811672D01*
X5734253Y5797854D01*
X5740450Y5784646D01*
X5748223Y5772404D01*
X5750560Y5769610D01*
X5752388Y5766257D01*
X5752846Y5762498D01*
X5751880Y5758789D01*
X5749645Y5755741D01*
X5746445Y5753709D01*
X5742736Y5752947D01*
G37*

%LPC*%
G36*
X5842000Y7340092D02*
G01*
X5855614Y7341006D01*
X5868974Y7343749D01*
X5881878Y7348220D01*
X5894019Y7354366D01*
X5905246Y7362088D01*
X5915406Y7371232D01*
X5924194Y7381646D01*
X5931509Y7393127D01*
X5937250Y7405522D01*
X5941314Y7418527D01*
X5943549Y7431989D01*
X5944006Y7445603D01*
X5942685Y7459167D01*
X5939485Y7472425D01*
X5934608Y7485176D01*
X5928055Y7497114D01*
X5919978Y7508087D01*
X5910478Y7517892D01*
X5899759Y7526375D01*
X5888024Y7533335D01*
X5875477Y7538618D01*
X5862320Y7542225D01*
X5848807Y7544053D01*
X5835192Y7544053D01*
X5821680Y7542225D01*
X5808522Y7538618D01*
X5795975Y7533335D01*
X5784240Y7526375D01*
X5773521Y7517892D01*
X5764022Y7508087D01*
X5755944Y7497114D01*
X5749391Y7485176D01*
X5744514Y7472425D01*
X5741314Y7459167D01*
X5739993Y7445603D01*
X5740450Y7431989D01*
X5742686Y7418527D01*
X5746750Y7405522D01*
X5752490Y7393127D01*
X5759805Y7381646D01*
X5768594Y7371232D01*
X5778754Y7362088D01*
X5789980Y7354366D01*
X5802122Y7348220D01*
X5815025Y7343749D01*
X5828385Y7341006D01*
G37*

%LPD*%
G36*
X5257901Y5752947D02*
G01*
X5254040Y5753760D01*
X5250738Y5755944D01*
X3741165Y7265466D01*
X3738829Y7269175D01*
X3738270Y7273544D01*
X3739591Y7277760D01*
X3742537Y7281011D01*
X3745128Y7282789D01*
X3752087Y7289749D01*
X3757726Y7297826D01*
X3761892Y7306716D01*
X3764432Y7316216D01*
X3765296Y7325969D01*
X3764432Y7335774D01*
X3761892Y7345273D01*
X3760774Y7347661D01*
X3759809Y7351928D01*
X3759809Y7415682D01*
X3759606Y7420356D01*
X3759047Y7424724D01*
X3758082Y7429093D01*
X3756761Y7433309D01*
X3755034Y7437424D01*
X3753002Y7441336D01*
X3750614Y7445095D01*
X3747922Y7448651D01*
X3744772Y7452055D01*
X3504844Y7691983D01*
X3502812Y7694879D01*
X3499154Y7702651D01*
X3493566Y7710678D01*
X3486607Y7717637D01*
X3478529Y7723276D01*
X3469640Y7727442D01*
X3460140Y7729981D01*
X3450386Y7730845D01*
X3440582Y7729981D01*
X3431082Y7727442D01*
X3422192Y7723276D01*
X3414115Y7717637D01*
X3407156Y7710678D01*
X3401568Y7702651D01*
X3397402Y7693761D01*
X3394862Y7684262D01*
X3393998Y7674457D01*
X3394862Y7664653D01*
X3397402Y7655153D01*
X3401568Y7646263D01*
X3407156Y7638237D01*
X3414115Y7631277D01*
X3422192Y7625638D01*
X3429914Y7622031D01*
X3432810Y7620000D01*
X3655009Y7397800D01*
X3657244Y7394498D01*
X3658006Y7390638D01*
X3658006Y7372705D01*
X3657295Y7368997D01*
X3655263Y7365746D01*
X3652164Y7363510D01*
X3648506Y7362545D01*
X3644747Y7363053D01*
X3641394Y7364831D01*
X3637534Y7368031D01*
X3630879Y7371588D01*
X3623665Y7373772D01*
X3615639Y7374534D01*
X3218434Y7374534D01*
X3214573Y7375347D01*
X3211271Y7377531D01*
X3164992Y7423810D01*
X3162604Y7427518D01*
X3162046Y7431887D01*
X3163366Y7436103D01*
X3166313Y7439304D01*
X3171139Y7442708D01*
X3178098Y7449667D01*
X3183737Y7457694D01*
X3187903Y7466584D01*
X3190443Y7476083D01*
X3191306Y7485888D01*
X3190443Y7495692D01*
X3187903Y7505192D01*
X3183737Y7514081D01*
X3178098Y7522108D01*
X3176524Y7523734D01*
X3174288Y7527036D01*
X3173526Y7530896D01*
X3173526Y7984439D01*
X3174288Y7988300D01*
X3176524Y7991602D01*
X3179775Y7993837D01*
X3183686Y7994599D01*
X3187598Y7993837D01*
X3190849Y7991602D01*
X3310686Y7871764D01*
X3312718Y7868869D01*
X3313633Y7865465D01*
X3313328Y7861960D01*
X3310686Y7852105D01*
X3309823Y7842300D01*
X3310686Y7832547D01*
X3313226Y7823047D01*
X3317392Y7814157D01*
X3323031Y7806080D01*
X3329990Y7799120D01*
X3338017Y7793532D01*
X3346907Y7789367D01*
X3356406Y7786827D01*
X3366211Y7785963D01*
X3376015Y7786827D01*
X3385515Y7789367D01*
X3394405Y7793532D01*
X3402431Y7799120D01*
X3409391Y7806080D01*
X3415029Y7814157D01*
X3419195Y7823047D01*
X3421735Y7832547D01*
X3422599Y7842300D01*
X3421735Y7852105D01*
X3419195Y7861604D01*
X3415029Y7870494D01*
X3409391Y7878572D01*
X3402329Y7885633D01*
X3400551Y7888020D01*
X3398265Y7892288D01*
X3393135Y7898536D01*
X3287115Y8004606D01*
X3284880Y8007908D01*
X3284118Y8011769D01*
X3284880Y8015681D01*
X3287115Y8018983D01*
X3290366Y8021167D01*
X3294278Y8021929D01*
X3307892Y8021929D01*
X3322015Y8023758D01*
X3335731Y8027365D01*
X3348939Y8032699D01*
X3361283Y8039658D01*
X3372662Y8048142D01*
X3382873Y8058048D01*
X3391763Y8069173D01*
X3399129Y8081314D01*
X3404870Y8094319D01*
X3408934Y8107934D01*
X3411169Y8121954D01*
X3411626Y8136128D01*
X3410254Y8150301D01*
X3407105Y8164169D01*
X3402228Y8177479D01*
X3395624Y8190077D01*
X3387496Y8201710D01*
X3377946Y8212277D01*
X3367125Y8221472D01*
X3355238Y8229193D01*
X3342436Y8235391D01*
X3328924Y8239861D01*
X3315004Y8242553D01*
X3300831Y8243468D01*
X3286607Y8242553D01*
X3272688Y8239861D01*
X3259175Y8235391D01*
X3246374Y8229193D01*
X3234486Y8221472D01*
X3229152Y8216950D01*
X3225850Y8215020D01*
X3222040Y8214512D01*
X3218332Y8215426D01*
X3215182Y8217662D01*
X3213150Y8220913D01*
X3212439Y8224672D01*
X3212439Y8259114D01*
X3211626Y8267141D01*
X3209442Y8274354D01*
X3205886Y8281009D01*
X3200755Y8287258D01*
X3152394Y8335619D01*
X3150158Y8339023D01*
X3149396Y8342985D01*
X3154934Y8361934D01*
X3157169Y8375954D01*
X3157626Y8390128D01*
X3156254Y8404301D01*
X3153105Y8418169D01*
X3148228Y8431479D01*
X3141624Y8444077D01*
X3133801Y8455355D01*
X3132124Y8459419D01*
X3132328Y8463788D01*
X3134360Y8467699D01*
X3137814Y8470341D01*
X3142132Y8471306D01*
X3205480Y8471306D01*
X3209798Y8470341D01*
X3213252Y8467699D01*
X3215284Y8463788D01*
X3215487Y8459419D01*
X3213811Y8455355D01*
X3205988Y8444077D01*
X3201466Y8435441D01*
X3251962Y8435441D01*
X3251962Y8461146D01*
X3252724Y8465058D01*
X3254908Y8468309D01*
X3258210Y8470544D01*
X3262122Y8471306D01*
X3323285Y8471306D01*
X3327146Y8470544D01*
X3330448Y8468309D01*
X3346704Y8452104D01*
X3348888Y8448802D01*
X3349650Y8444941D01*
X3349650Y8435441D01*
X3359150Y8435441D01*
X3363010Y8434679D01*
X3366312Y8432495D01*
X3400094Y8398662D01*
X3402329Y8395360D01*
X3403092Y8391499D01*
X3403092Y8347913D01*
X3402329Y8344001D01*
X3400094Y8340699D01*
X3396843Y8338515D01*
X3392932Y8337753D01*
X3349650Y8337753D01*
X3349650Y8287105D01*
X3361283Y8293658D01*
X3372662Y8302142D01*
X3382873Y8312048D01*
X3388563Y8319160D01*
X3391662Y8321751D01*
X3395472Y8322919D01*
X3399485Y8322564D01*
X3402990Y8320684D01*
X3405530Y8317534D01*
X3409645Y8309609D01*
X3414776Y8303412D01*
X3485134Y8233054D01*
X3487420Y8229549D01*
X3488131Y8225434D01*
X3487115Y8221421D01*
X3484524Y8218119D01*
X3477666Y8212277D01*
X3468115Y8201710D01*
X3459987Y8190077D01*
X3453384Y8177479D01*
X3448507Y8164169D01*
X3445357Y8150301D01*
X3443986Y8136128D01*
X3444443Y8121954D01*
X3446678Y8107934D01*
X3450742Y8094319D01*
X3456482Y8081314D01*
X3463848Y8069173D01*
X3472738Y8058048D01*
X3482949Y8048142D01*
X3494328Y8039658D01*
X3506673Y8032699D01*
X3519881Y8027365D01*
X3533597Y8023758D01*
X3547719Y8021929D01*
X3561892Y8021929D01*
X3576015Y8023758D01*
X3589731Y8027365D01*
X3594658Y8029346D01*
X3598570Y8030108D01*
X3602431Y8029295D01*
X3605682Y8027111D01*
X3816604Y7816240D01*
X3822801Y7811109D01*
X3829507Y7807553D01*
X3836720Y7805369D01*
X3844747Y7804556D01*
X3918610Y7804556D01*
X3922522Y7803794D01*
X3925824Y7801559D01*
X3927398Y7799984D01*
X3935476Y7794345D01*
X3944365Y7790180D01*
X3953865Y7787640D01*
X3963670Y7786776D01*
X3973423Y7787640D01*
X3982923Y7790180D01*
X3991813Y7794345D01*
X3999890Y7799984D01*
X4006850Y7806944D01*
X4012437Y7814970D01*
X4016603Y7823860D01*
X4019143Y7833359D01*
X4020007Y7843164D01*
X4021074Y7846872D01*
X4023360Y7849870D01*
X4026662Y7851851D01*
X4030421Y7852460D01*
X4034180Y7851648D01*
X4037329Y7849463D01*
X4471568Y7415275D01*
X4477766Y7410145D01*
X4484471Y7406589D01*
X4491685Y7404404D01*
X4499711Y7403592D01*
X4815535Y7403592D01*
X4819446Y7402830D01*
X4822748Y7400594D01*
X4824323Y7399020D01*
X4832553Y7393279D01*
X4835499Y7390028D01*
X4836820Y7385862D01*
X4836261Y7381494D01*
X4833874Y7377785D01*
X4760468Y7304379D01*
X4757572Y7302347D01*
X4754168Y7301433D01*
X4750663Y7301738D01*
X4747463Y7303211D01*
X4743043Y7306309D01*
X4734153Y7310475D01*
X4724654Y7313015D01*
X4714849Y7313879D01*
X4705045Y7313015D01*
X4695545Y7310475D01*
X4686655Y7306309D01*
X4678629Y7300722D01*
X4671669Y7293762D01*
X4666030Y7285685D01*
X4661865Y7276795D01*
X4659325Y7267295D01*
X4658461Y7257491D01*
X4659325Y7247737D01*
X4661865Y7238238D01*
X4666030Y7229348D01*
X4671669Y7221270D01*
X4678629Y7214311D01*
X4686655Y7208723D01*
X4695545Y7204557D01*
X4705045Y7202017D01*
X4714849Y7201153D01*
X4724654Y7202017D01*
X4734153Y7204557D01*
X4743043Y7208723D01*
X4751070Y7214311D01*
X4752695Y7215936D01*
X4755997Y7218121D01*
X4759858Y7218883D01*
X4767732Y7218883D01*
X4775758Y7219696D01*
X4782972Y7221880D01*
X4789678Y7225436D01*
X4795875Y7230567D01*
X4954828Y7389520D01*
X4959959Y7395768D01*
X4963515Y7402423D01*
X4965700Y7409637D01*
X4966512Y7417663D01*
X4966512Y7774990D01*
X4965700Y7783017D01*
X4963515Y7790230D01*
X4959959Y7796936D01*
X4954828Y7803134D01*
X4676394Y8081619D01*
X4674158Y8085023D01*
X4673396Y8088985D01*
X4678934Y8107934D01*
X4681169Y8121954D01*
X4681626Y8136128D01*
X4680254Y8150301D01*
X4677105Y8164169D01*
X4672228Y8177479D01*
X4665624Y8190077D01*
X4657496Y8201710D01*
X4647946Y8212277D01*
X4637125Y8221472D01*
X4625238Y8229193D01*
X4612436Y8235391D01*
X4598924Y8239861D01*
X4585004Y8242553D01*
X4570831Y8243468D01*
X4556607Y8242553D01*
X4542688Y8239861D01*
X4529175Y8235391D01*
X4516374Y8229193D01*
X4504486Y8221472D01*
X4493666Y8212277D01*
X4484116Y8201710D01*
X4475988Y8190077D01*
X4469384Y8177479D01*
X4464507Y8164169D01*
X4461357Y8150301D01*
X4459986Y8136128D01*
X4460443Y8121954D01*
X4462678Y8107934D01*
X4466742Y8094319D01*
X4472482Y8081314D01*
X4479848Y8069173D01*
X4488738Y8058048D01*
X4498949Y8048142D01*
X4510328Y8039658D01*
X4522673Y8032699D01*
X4535881Y8027365D01*
X4549597Y8023758D01*
X4563719Y8021929D01*
X4577892Y8021929D01*
X4592015Y8023758D01*
X4605731Y8027365D01*
X4610658Y8029346D01*
X4614570Y8030108D01*
X4618431Y8029295D01*
X4621682Y8027111D01*
X4886299Y7762494D01*
X4888534Y7759192D01*
X4889296Y7755280D01*
X4889296Y7505903D01*
X4888636Y7502245D01*
X4886706Y7499096D01*
X4883759Y7496809D01*
X4880203Y7495794D01*
X4876495Y7496048D01*
X4870348Y7497724D01*
X4860594Y7498588D01*
X4850790Y7497724D01*
X4841290Y7495184D01*
X4832400Y7491018D01*
X4824323Y7485380D01*
X4822748Y7483805D01*
X4819446Y7481570D01*
X4815535Y7480808D01*
X4559858Y7480808D01*
X4555591Y7481773D01*
X4552086Y7484414D01*
X4550054Y7488326D01*
X4549851Y7492746D01*
X4551578Y7496809D01*
X4557420Y7505192D01*
X4561586Y7514081D01*
X4564126Y7523581D01*
X4564989Y7533386D01*
X4564126Y7543190D01*
X4561586Y7552690D01*
X4557420Y7561580D01*
X4551832Y7569606D01*
X4550206Y7571231D01*
X4548022Y7574534D01*
X4547260Y7578394D01*
X4547260Y7686294D01*
X4546447Y7694320D01*
X4544263Y7701534D01*
X4540707Y7708188D01*
X4535576Y7714437D01*
X4168394Y8081619D01*
X4166158Y8085023D01*
X4165396Y8088985D01*
X4170934Y8107934D01*
X4173169Y8121954D01*
X4173626Y8136128D01*
X4172254Y8150301D01*
X4169105Y8164169D01*
X4164228Y8177479D01*
X4157624Y8190077D01*
X4149496Y8201710D01*
X4139946Y8212277D01*
X4129125Y8221472D01*
X4117238Y8229193D01*
X4104436Y8235391D01*
X4090924Y8239861D01*
X4077004Y8242553D01*
X4062831Y8243468D01*
X4048607Y8242553D01*
X4034688Y8239861D01*
X4021175Y8235391D01*
X4008374Y8229193D01*
X3996486Y8221472D01*
X3985666Y8212277D01*
X3976115Y8201710D01*
X3967987Y8190077D01*
X3961384Y8177479D01*
X3956507Y8164169D01*
X3953357Y8150301D01*
X3951986Y8136128D01*
X3952443Y8121954D01*
X3954678Y8107934D01*
X3958742Y8094319D01*
X3964482Y8081314D01*
X3971848Y8069173D01*
X3980738Y8058048D01*
X3990949Y8048142D01*
X4002328Y8039658D01*
X4014673Y8032699D01*
X4027881Y8027365D01*
X4041597Y8023758D01*
X4055719Y8021929D01*
X4069892Y8021929D01*
X4084015Y8023758D01*
X4097731Y8027365D01*
X4102658Y8029346D01*
X4106570Y8030108D01*
X4110431Y8029295D01*
X4113682Y8027111D01*
X4467047Y7673746D01*
X4469231Y7670444D01*
X4470044Y7666583D01*
X4470044Y7578394D01*
X4469231Y7574534D01*
X4467047Y7571231D01*
X4465421Y7569606D01*
X4459833Y7561580D01*
X4457852Y7557414D01*
X4455617Y7554264D01*
X4452315Y7552232D01*
X4448505Y7551572D01*
X4444695Y7552334D01*
X4441494Y7554518D01*
X3914394Y8081619D01*
X3912158Y8085023D01*
X3911396Y8088985D01*
X3916934Y8107934D01*
X3919169Y8121954D01*
X3919626Y8136128D01*
X3918254Y8150301D01*
X3915105Y8164169D01*
X3910228Y8177479D01*
X3903624Y8190077D01*
X3895496Y8201710D01*
X3885946Y8212277D01*
X3875125Y8221472D01*
X3863238Y8229193D01*
X3850436Y8235391D01*
X3836924Y8239861D01*
X3823004Y8242553D01*
X3808831Y8243468D01*
X3794607Y8242553D01*
X3780688Y8239861D01*
X3768191Y8235696D01*
X3764534Y8235238D01*
X3760876Y8236051D01*
X3757828Y8238185D01*
X3709466Y8286546D01*
X3703218Y8291677D01*
X3696563Y8295233D01*
X3689350Y8297418D01*
X3681323Y8298180D01*
X3646932Y8298180D01*
X3643223Y8298891D01*
X3640023Y8300923D01*
X3637787Y8303971D01*
X3636822Y8307628D01*
X3637229Y8311337D01*
X3639007Y8314690D01*
X3645763Y8323173D01*
X3653129Y8335314D01*
X3658870Y8348319D01*
X3662934Y8361934D01*
X3665169Y8375954D01*
X3665626Y8390128D01*
X3664254Y8404301D01*
X3661105Y8418169D01*
X3656228Y8431479D01*
X3649624Y8444077D01*
X3641496Y8455710D01*
X3631946Y8466277D01*
X3621125Y8475472D01*
X3609238Y8483193D01*
X3596436Y8489391D01*
X3582924Y8493861D01*
X3569004Y8496554D01*
X3554831Y8497468D01*
X3540607Y8496554D01*
X3526688Y8493861D01*
X3513175Y8489391D01*
X3500374Y8483193D01*
X3488486Y8475472D01*
X3477666Y8466277D01*
X3467709Y8455304D01*
X3464458Y8452916D01*
X3460445Y8452002D01*
X3456432Y8452713D01*
X3453028Y8454948D01*
X3406952Y8501024D01*
X3404768Y8504326D01*
X3404006Y8508187D01*
X3404768Y8512098D01*
X3406952Y8515400D01*
X3410254Y8517585D01*
X3414166Y8518347D01*
X6588252Y8518347D01*
X6592112Y8517585D01*
X6595414Y8515400D01*
X6596837Y8514029D01*
X6598970Y8510828D01*
X6599783Y8507018D01*
X6599123Y8503259D01*
X6597142Y8499957D01*
X6594043Y8497671D01*
X6574688Y8493861D01*
X6561175Y8489391D01*
X6548374Y8483193D01*
X6536486Y8475472D01*
X6525666Y8466277D01*
X6516116Y8455710D01*
X6507988Y8444077D01*
X6501384Y8431479D01*
X6496507Y8418169D01*
X6493357Y8404301D01*
X6491986Y8390128D01*
X6492443Y8375954D01*
X6494678Y8361934D01*
X6498742Y8348319D01*
X6504482Y8335314D01*
X6511848Y8323173D01*
X6520738Y8312048D01*
X6530949Y8302142D01*
X6542328Y8293658D01*
X6554673Y8286699D01*
X6567881Y8281365D01*
X6581597Y8277758D01*
X6595719Y8275929D01*
X6609892Y8275929D01*
X6624015Y8277758D01*
X6637731Y8281365D01*
X6650939Y8286699D01*
X6663283Y8293658D01*
X6674662Y8302142D01*
X6684873Y8312048D01*
X6693763Y8323173D01*
X6701129Y8335314D01*
X6706870Y8348319D01*
X6710934Y8361934D01*
X6713016Y8375040D01*
X6714693Y8379104D01*
X6717893Y8382152D01*
X6722109Y8383524D01*
X6726529Y8382965D01*
X6730238Y8380577D01*
X6823709Y8287105D01*
X6825894Y8283803D01*
X6826707Y8279942D01*
X6826707Y7750352D01*
X6825894Y7746492D01*
X6823709Y7743190D01*
X6820408Y7740954D01*
X6816547Y7740192D01*
X6812635Y7740954D01*
X6809333Y7743190D01*
X6534708Y8017764D01*
X6528511Y8022894D01*
X6521805Y8026450D01*
X6514592Y8028635D01*
X6506565Y8029448D01*
X6426200Y8029448D01*
X6422085Y8030311D01*
X6418681Y8032800D01*
X6416548Y8036407D01*
X6416090Y8040573D01*
X6417360Y8044586D01*
X6420662Y8048142D01*
X6430873Y8058048D01*
X6439763Y8069173D01*
X6447129Y8081314D01*
X6452870Y8094319D01*
X6456934Y8107934D01*
X6459169Y8121954D01*
X6459626Y8136128D01*
X6458254Y8150301D01*
X6455105Y8164169D01*
X6450228Y8177479D01*
X6443624Y8190077D01*
X6435496Y8201710D01*
X6425946Y8212277D01*
X6415125Y8221472D01*
X6403238Y8229193D01*
X6390436Y8235391D01*
X6376924Y8239861D01*
X6363004Y8242553D01*
X6348831Y8243468D01*
X6334607Y8242553D01*
X6320688Y8239861D01*
X6307175Y8235391D01*
X6294374Y8229193D01*
X6282486Y8221472D01*
X6271666Y8212277D01*
X6262116Y8201710D01*
X6253988Y8190077D01*
X6247384Y8177479D01*
X6242507Y8164169D01*
X6239357Y8150301D01*
X6237986Y8136128D01*
X6238443Y8121954D01*
X6240678Y8107934D01*
X6244742Y8094319D01*
X6250482Y8081314D01*
X6257848Y8069173D01*
X6266738Y8058048D01*
X6277457Y8047736D01*
X6280251Y8044586D01*
X6281521Y8040573D01*
X6281064Y8036407D01*
X6278930Y8032800D01*
X6275527Y8030311D01*
X6271412Y8029448D01*
X6172200Y8029448D01*
X6168085Y8030311D01*
X6164681Y8032800D01*
X6162548Y8036407D01*
X6162090Y8040573D01*
X6163360Y8044586D01*
X6166662Y8048142D01*
X6176873Y8058048D01*
X6185763Y8069173D01*
X6193129Y8081314D01*
X6198870Y8094319D01*
X6202934Y8107934D01*
X6205169Y8121954D01*
X6205626Y8136128D01*
X6204254Y8150301D01*
X6201105Y8164169D01*
X6196228Y8177479D01*
X6189624Y8190077D01*
X6181496Y8201710D01*
X6171946Y8212277D01*
X6161125Y8221472D01*
X6149238Y8229193D01*
X6136436Y8235391D01*
X6122924Y8239861D01*
X6109004Y8242553D01*
X6094831Y8243468D01*
X6080607Y8242553D01*
X6066688Y8239861D01*
X6053175Y8235391D01*
X6040374Y8229193D01*
X6028486Y8221472D01*
X6017666Y8212277D01*
X6008116Y8201710D01*
X5999988Y8190077D01*
X5993384Y8177479D01*
X5988507Y8164169D01*
X5985357Y8150301D01*
X5983986Y8136128D01*
X5984443Y8121954D01*
X5986678Y8107934D01*
X5990742Y8094319D01*
X5996482Y8081314D01*
X6003848Y8069173D01*
X6012738Y8058048D01*
X6023457Y8047736D01*
X6026251Y8044586D01*
X6027521Y8040573D01*
X6027064Y8036407D01*
X6024930Y8032800D01*
X6021527Y8030311D01*
X6017412Y8029448D01*
X6002782Y8029448D01*
X5998870Y8030209D01*
X5995568Y8032445D01*
X5946394Y8081619D01*
X5944158Y8085023D01*
X5943396Y8088985D01*
X5948934Y8107934D01*
X5951169Y8121954D01*
X5951626Y8136128D01*
X5950254Y8150301D01*
X5947105Y8164169D01*
X5942228Y8177479D01*
X5935624Y8190077D01*
X5927496Y8201710D01*
X5917946Y8212277D01*
X5907125Y8221472D01*
X5895238Y8229193D01*
X5882436Y8235391D01*
X5868924Y8239861D01*
X5855004Y8242553D01*
X5840831Y8243468D01*
X5826607Y8242553D01*
X5812688Y8239861D01*
X5799175Y8235391D01*
X5786374Y8229193D01*
X5774486Y8221472D01*
X5769152Y8216950D01*
X5765850Y8215020D01*
X5762040Y8214512D01*
X5758332Y8215426D01*
X5755182Y8217662D01*
X5753150Y8220913D01*
X5752439Y8224672D01*
X5752439Y8259114D01*
X5751626Y8267141D01*
X5749442Y8274354D01*
X5745886Y8281009D01*
X5740755Y8287258D01*
X5692394Y8335619D01*
X5690158Y8339023D01*
X5689396Y8342985D01*
X5694934Y8361934D01*
X5697169Y8375954D01*
X5697626Y8390128D01*
X5696254Y8404301D01*
X5693105Y8418169D01*
X5688228Y8431479D01*
X5681624Y8444077D01*
X5673496Y8455710D01*
X5663946Y8466277D01*
X5653125Y8475472D01*
X5641238Y8483193D01*
X5628436Y8489391D01*
X5614924Y8493861D01*
X5601004Y8496554D01*
X5586831Y8497468D01*
X5572607Y8496554D01*
X5558688Y8493861D01*
X5545175Y8489391D01*
X5532374Y8483193D01*
X5520486Y8475472D01*
X5509666Y8466277D01*
X5500116Y8455710D01*
X5491988Y8444077D01*
X5485384Y8431479D01*
X5480507Y8418169D01*
X5477357Y8404301D01*
X5475986Y8390128D01*
X5476443Y8375954D01*
X5478678Y8361934D01*
X5482742Y8348319D01*
X5488482Y8335314D01*
X5495848Y8323173D01*
X5504738Y8312048D01*
X5514949Y8302142D01*
X5526328Y8293658D01*
X5538673Y8286699D01*
X5551881Y8281365D01*
X5565597Y8277758D01*
X5579719Y8275929D01*
X5593892Y8275929D01*
X5608015Y8277758D01*
X5621731Y8281365D01*
X5626658Y8283346D01*
X5630570Y8284108D01*
X5634431Y8283295D01*
X5637682Y8281111D01*
X5672226Y8246567D01*
X5674410Y8243265D01*
X5675223Y8239404D01*
X5675223Y8224672D01*
X5674461Y8220913D01*
X5672429Y8217662D01*
X5669280Y8215426D01*
X5665571Y8214512D01*
X5661761Y8215020D01*
X5658459Y8216950D01*
X5653125Y8221472D01*
X5641238Y8229193D01*
X5628436Y8235391D01*
X5614924Y8239861D01*
X5601004Y8242553D01*
X5586831Y8243468D01*
X5572607Y8242553D01*
X5558688Y8239861D01*
X5545175Y8235391D01*
X5532374Y8229193D01*
X5520486Y8221472D01*
X5509666Y8212277D01*
X5500116Y8201710D01*
X5491988Y8190077D01*
X5485384Y8177479D01*
X5480507Y8164169D01*
X5477357Y8150301D01*
X5475986Y8136128D01*
X5476443Y8121954D01*
X5478678Y8107934D01*
X5482742Y8094319D01*
X5488482Y8081314D01*
X5495848Y8069173D01*
X5504738Y8058048D01*
X5514949Y8048142D01*
X5526328Y8039658D01*
X5538673Y8032699D01*
X5541873Y8031429D01*
X5545175Y8029194D01*
X5547410Y8025892D01*
X5548223Y8021980D01*
X5548223Y6765493D01*
X5547410Y6761581D01*
X5545226Y6758279D01*
X5436717Y6649821D01*
X5433517Y6647637D01*
X5429656Y6646824D01*
X5425795Y6647535D01*
X5417820Y6650736D01*
X5403697Y6654342D01*
X5389270Y6656171D01*
X5374741Y6656171D01*
X5360263Y6654342D01*
X5346192Y6650736D01*
X5332679Y6645351D01*
X5319928Y6638340D01*
X5308142Y6629806D01*
X5297525Y6619849D01*
X5288229Y6608622D01*
X5280456Y6596329D01*
X5274259Y6583172D01*
X5269738Y6569303D01*
X5267045Y6555028D01*
X5266131Y6540500D01*
X5267045Y6525971D01*
X5269738Y6511696D01*
X5274259Y6497828D01*
X5280456Y6484670D01*
X5288229Y6472377D01*
X5297525Y6461150D01*
X5308142Y6451193D01*
X5319928Y6442659D01*
X5332679Y6435648D01*
X5336997Y6433921D01*
X5340350Y6431737D01*
X5342585Y6428435D01*
X5343398Y6424472D01*
X5343398Y5956503D01*
X5342585Y5952591D01*
X5340350Y5949238D01*
X5336997Y5947054D01*
X5332679Y5945378D01*
X5319928Y5938367D01*
X5308142Y5929782D01*
X5297525Y5919825D01*
X5288229Y5908598D01*
X5280456Y5896356D01*
X5274259Y5883148D01*
X5269738Y5869330D01*
X5267045Y5855004D01*
X5266131Y5840476D01*
X5267045Y5825998D01*
X5269738Y5811672D01*
X5274259Y5797854D01*
X5280456Y5784646D01*
X5288229Y5772404D01*
X5290566Y5769610D01*
X5292394Y5766257D01*
X5292852Y5762498D01*
X5291886Y5758789D01*
X5289651Y5755741D01*
X5286451Y5753709D01*
X5282692Y5752947D01*
G37*

%LPC*%
G36*
X5325719Y8021929D02*
G01*
X5339892Y8021929D01*
X5354015Y8023758D01*
X5367731Y8027365D01*
X5380939Y8032699D01*
X5393283Y8039658D01*
X5404662Y8048142D01*
X5414873Y8058048D01*
X5423763Y8069173D01*
X5431129Y8081314D01*
X5436870Y8094319D01*
X5440934Y8107934D01*
X5443169Y8121954D01*
X5443626Y8136128D01*
X5442254Y8150301D01*
X5439105Y8164169D01*
X5434228Y8177479D01*
X5427624Y8190077D01*
X5419496Y8201710D01*
X5409946Y8212277D01*
X5399125Y8221472D01*
X5387238Y8229193D01*
X5374436Y8235391D01*
X5360924Y8239861D01*
X5347004Y8242553D01*
X5332831Y8243468D01*
X5318607Y8242553D01*
X5304688Y8239861D01*
X5291175Y8235391D01*
X5278374Y8229193D01*
X5266486Y8221472D01*
X5255666Y8212277D01*
X5246116Y8201710D01*
X5237988Y8190077D01*
X5231384Y8177479D01*
X5226507Y8164169D01*
X5223357Y8150301D01*
X5221986Y8136128D01*
X5222443Y8121954D01*
X5224678Y8107934D01*
X5228742Y8094319D01*
X5234482Y8081314D01*
X5241848Y8069173D01*
X5250738Y8058048D01*
X5260949Y8048142D01*
X5272328Y8039658D01*
X5284673Y8032699D01*
X5297881Y8027365D01*
X5311597Y8023758D01*
G37*
G36*
X4309719Y8021929D02*
G01*
X4323892Y8021929D01*
X4338015Y8023758D01*
X4351731Y8027365D01*
X4364939Y8032699D01*
X4377283Y8039658D01*
X4388662Y8048142D01*
X4398873Y8058048D01*
X4407763Y8069173D01*
X4415129Y8081314D01*
X4420870Y8094319D01*
X4424934Y8107934D01*
X4427169Y8121954D01*
X4427626Y8136128D01*
X4426254Y8150301D01*
X4423105Y8164169D01*
X4418228Y8177479D01*
X4411624Y8190077D01*
X4403496Y8201710D01*
X4393946Y8212277D01*
X4383125Y8221472D01*
X4371238Y8229193D01*
X4358436Y8235391D01*
X4344924Y8239861D01*
X4331004Y8242553D01*
X4316831Y8243468D01*
X4302607Y8242553D01*
X4288688Y8239861D01*
X4275175Y8235391D01*
X4262374Y8229193D01*
X4250486Y8221472D01*
X4239666Y8212277D01*
X4230116Y8201710D01*
X4221988Y8190077D01*
X4215384Y8177479D01*
X4210507Y8164169D01*
X4207357Y8150301D01*
X4205986Y8136128D01*
X4206443Y8121954D01*
X4208678Y8107934D01*
X4212742Y8094319D01*
X4218482Y8081314D01*
X4225848Y8069173D01*
X4234738Y8058048D01*
X4244949Y8048142D01*
X4256328Y8039658D01*
X4268673Y8032699D01*
X4281881Y8027365D01*
X4295597Y8023758D01*
G37*
G36*
X5071719Y8021929D02*
G01*
X5085892Y8021929D01*
X5100015Y8023758D01*
X5113731Y8027365D01*
X5126939Y8032699D01*
X5139283Y8039658D01*
X5150662Y8048142D01*
X5160873Y8058048D01*
X5169763Y8069173D01*
X5177129Y8081314D01*
X5182870Y8094319D01*
X5186934Y8107934D01*
X5189169Y8121954D01*
X5189626Y8136128D01*
X5188254Y8150301D01*
X5185105Y8164169D01*
X5180228Y8177479D01*
X5173624Y8190077D01*
X5165496Y8201710D01*
X5155946Y8212277D01*
X5145125Y8221472D01*
X5133238Y8229193D01*
X5120436Y8235391D01*
X5106924Y8239861D01*
X5093004Y8242553D01*
X5078831Y8243468D01*
X5064607Y8242553D01*
X5050688Y8239861D01*
X5037175Y8235391D01*
X5024374Y8229193D01*
X5012486Y8221472D01*
X5001666Y8212277D01*
X4992116Y8201710D01*
X4983988Y8190077D01*
X4977384Y8177479D01*
X4972507Y8164169D01*
X4969357Y8150301D01*
X4967986Y8136128D01*
X4968443Y8121954D01*
X4970678Y8107934D01*
X4974742Y8094319D01*
X4980482Y8081314D01*
X4987848Y8069173D01*
X4996738Y8058048D01*
X5006949Y8048142D01*
X5018328Y8039658D01*
X5030673Y8032699D01*
X5043881Y8027365D01*
X5057597Y8023758D01*
G37*
G36*
X4873650Y8033105D02*
G01*
X4885283Y8039658D01*
X4896662Y8048142D01*
X4906873Y8058048D01*
X4915763Y8069173D01*
X4923129Y8081314D01*
X4924196Y8083753D01*
X4873650Y8083753D01*
G37*
G36*
X6651650Y8033105D02*
G01*
X6663283Y8039658D01*
X6674662Y8048142D01*
X6684873Y8058048D01*
X6693763Y8069173D01*
X6701129Y8081314D01*
X6702196Y8083753D01*
X6651650Y8083753D01*
G37*
G36*
X6553962Y8033105D02*
G01*
X6553962Y8083753D01*
X6503416Y8083753D01*
X6504482Y8081314D01*
X6511848Y8069173D01*
X6520738Y8058048D01*
X6530949Y8048142D01*
X6542328Y8039658D01*
G37*
G36*
X4775962Y8033105D02*
G01*
X4775962Y8083753D01*
X4725416Y8083753D01*
X4726482Y8081314D01*
X4733848Y8069173D01*
X4742738Y8058048D01*
X4752949Y8048142D01*
X4764328Y8039658D01*
G37*
G36*
X4725466Y8181441D02*
G01*
X4775962Y8181441D01*
X4775962Y8231886D01*
X4770374Y8229193D01*
X4758486Y8221472D01*
X4747666Y8212277D01*
X4738116Y8201710D01*
X4729988Y8190077D01*
G37*
G36*
X4873650Y8181441D02*
G01*
X4924145Y8181441D01*
X4919624Y8190077D01*
X4911496Y8201710D01*
X4901946Y8212277D01*
X4891125Y8221472D01*
X4879238Y8229193D01*
X4873650Y8231886D01*
G37*
G36*
X6651650Y8181441D02*
G01*
X6702145Y8181441D01*
X6697624Y8190077D01*
X6689496Y8201710D01*
X6679946Y8212277D01*
X6669125Y8221472D01*
X6657238Y8229193D01*
X6651650Y8231886D01*
G37*
G36*
X6503466Y8181441D02*
G01*
X6553962Y8181441D01*
X6553962Y8231886D01*
X6548374Y8229193D01*
X6536486Y8221472D01*
X6525666Y8212277D01*
X6516116Y8201710D01*
X6507988Y8190077D01*
G37*
G36*
X5071719Y8275929D02*
G01*
X5085892Y8275929D01*
X5100015Y8277758D01*
X5113731Y8281365D01*
X5126939Y8286699D01*
X5139283Y8293658D01*
X5150662Y8302142D01*
X5160873Y8312048D01*
X5169763Y8323173D01*
X5177129Y8335314D01*
X5182870Y8348319D01*
X5186934Y8361934D01*
X5189169Y8375954D01*
X5189626Y8390128D01*
X5188254Y8404301D01*
X5185105Y8418169D01*
X5180228Y8431479D01*
X5173624Y8444077D01*
X5165496Y8455710D01*
X5155946Y8466277D01*
X5145125Y8475472D01*
X5133238Y8483193D01*
X5120436Y8489391D01*
X5106924Y8493861D01*
X5093004Y8496554D01*
X5078831Y8497468D01*
X5064607Y8496554D01*
X5050688Y8493861D01*
X5037175Y8489391D01*
X5024374Y8483193D01*
X5012486Y8475472D01*
X5001666Y8466277D01*
X4992116Y8455710D01*
X4983988Y8444077D01*
X4977384Y8431479D01*
X4972507Y8418169D01*
X4969357Y8404301D01*
X4967986Y8390128D01*
X4968443Y8375954D01*
X4970678Y8361934D01*
X4974742Y8348319D01*
X4980482Y8335314D01*
X4987848Y8323173D01*
X4996738Y8312048D01*
X5006949Y8302142D01*
X5018328Y8293658D01*
X5030673Y8286699D01*
X5043881Y8281365D01*
X5057597Y8277758D01*
G37*
G36*
X6341719Y8275929D02*
G01*
X6355892Y8275929D01*
X6370015Y8277758D01*
X6383731Y8281365D01*
X6396939Y8286699D01*
X6409283Y8293658D01*
X6420662Y8302142D01*
X6430873Y8312048D01*
X6439763Y8323173D01*
X6447129Y8335314D01*
X6452870Y8348319D01*
X6456934Y8361934D01*
X6459169Y8375954D01*
X6459626Y8390128D01*
X6458254Y8404301D01*
X6455105Y8418169D01*
X6450228Y8431479D01*
X6443624Y8444077D01*
X6435496Y8455710D01*
X6425946Y8466277D01*
X6415125Y8475472D01*
X6403238Y8483193D01*
X6390436Y8489391D01*
X6376924Y8493861D01*
X6363004Y8496554D01*
X6348831Y8497468D01*
X6334607Y8496554D01*
X6320688Y8493861D01*
X6307175Y8489391D01*
X6294374Y8483193D01*
X6282486Y8475472D01*
X6271666Y8466277D01*
X6262116Y8455710D01*
X6253988Y8444077D01*
X6247384Y8431479D01*
X6242507Y8418169D01*
X6239357Y8404301D01*
X6237986Y8390128D01*
X6238443Y8375954D01*
X6240678Y8361934D01*
X6244742Y8348319D01*
X6250482Y8335314D01*
X6257848Y8323173D01*
X6266738Y8312048D01*
X6276949Y8302142D01*
X6288328Y8293658D01*
X6300673Y8286699D01*
X6313881Y8281365D01*
X6327597Y8277758D01*
G37*
G36*
X4817719Y8275929D02*
G01*
X4831892Y8275929D01*
X4846015Y8277758D01*
X4859731Y8281365D01*
X4872939Y8286699D01*
X4885283Y8293658D01*
X4896662Y8302142D01*
X4906873Y8312048D01*
X4915763Y8323173D01*
X4923129Y8335314D01*
X4928870Y8348319D01*
X4932934Y8361934D01*
X4935169Y8375954D01*
X4935626Y8390128D01*
X4934254Y8404301D01*
X4931105Y8418169D01*
X4926228Y8431479D01*
X4919624Y8444077D01*
X4911496Y8455710D01*
X4901946Y8466277D01*
X4891125Y8475472D01*
X4879238Y8483193D01*
X4866436Y8489391D01*
X4852924Y8493861D01*
X4839004Y8496554D01*
X4824831Y8497468D01*
X4810607Y8496554D01*
X4796688Y8493861D01*
X4783175Y8489391D01*
X4770374Y8483193D01*
X4758486Y8475472D01*
X4747666Y8466277D01*
X4738116Y8455710D01*
X4729988Y8444077D01*
X4723384Y8431479D01*
X4718507Y8418169D01*
X4715357Y8404301D01*
X4713986Y8390128D01*
X4714443Y8375954D01*
X4716678Y8361934D01*
X4720742Y8348319D01*
X4726482Y8335314D01*
X4733848Y8323173D01*
X4742738Y8312048D01*
X4752949Y8302142D01*
X4764328Y8293658D01*
X4776673Y8286699D01*
X4789881Y8281365D01*
X4803597Y8277758D01*
G37*
G36*
X4309719Y8275929D02*
G01*
X4323892Y8275929D01*
X4338015Y8277758D01*
X4351731Y8281365D01*
X4364939Y8286699D01*
X4377283Y8293658D01*
X4388662Y8302142D01*
X4398873Y8312048D01*
X4407763Y8323173D01*
X4415129Y8335314D01*
X4420870Y8348319D01*
X4424934Y8361934D01*
X4427169Y8375954D01*
X4427626Y8390128D01*
X4426254Y8404301D01*
X4423105Y8418169D01*
X4418228Y8431479D01*
X4411624Y8444077D01*
X4403496Y8455710D01*
X4393946Y8466277D01*
X4383125Y8475472D01*
X4371238Y8483193D01*
X4358436Y8489391D01*
X4344924Y8493861D01*
X4331004Y8496554D01*
X4316831Y8497468D01*
X4302607Y8496554D01*
X4288688Y8493861D01*
X4275175Y8489391D01*
X4262374Y8483193D01*
X4250486Y8475472D01*
X4239666Y8466277D01*
X4230116Y8455710D01*
X4221988Y8444077D01*
X4215384Y8431479D01*
X4210507Y8418169D01*
X4207357Y8404301D01*
X4205986Y8390128D01*
X4206443Y8375954D01*
X4208678Y8361934D01*
X4212742Y8348319D01*
X4218482Y8335314D01*
X4225848Y8323173D01*
X4234738Y8312048D01*
X4244949Y8302142D01*
X4256328Y8293658D01*
X4268673Y8286699D01*
X4281881Y8281365D01*
X4295597Y8277758D01*
G37*
G36*
X3801719Y8275929D02*
G01*
X3815892Y8275929D01*
X3830015Y8277758D01*
X3843731Y8281365D01*
X3856939Y8286699D01*
X3869283Y8293658D01*
X3880662Y8302142D01*
X3890873Y8312048D01*
X3899763Y8323173D01*
X3907129Y8335314D01*
X3912870Y8348319D01*
X3916934Y8361934D01*
X3919169Y8375954D01*
X3919626Y8390128D01*
X3918254Y8404301D01*
X3915105Y8418169D01*
X3910228Y8431479D01*
X3903624Y8444077D01*
X3895496Y8455710D01*
X3885946Y8466277D01*
X3875125Y8475472D01*
X3863238Y8483193D01*
X3850436Y8489391D01*
X3836924Y8493861D01*
X3823004Y8496554D01*
X3808831Y8497468D01*
X3794607Y8496554D01*
X3780688Y8493861D01*
X3767175Y8489391D01*
X3754374Y8483193D01*
X3742486Y8475472D01*
X3731666Y8466277D01*
X3722115Y8455710D01*
X3713987Y8444077D01*
X3707384Y8431479D01*
X3702507Y8418169D01*
X3699357Y8404301D01*
X3697986Y8390128D01*
X3698443Y8375954D01*
X3700678Y8361934D01*
X3704742Y8348319D01*
X3710482Y8335314D01*
X3717848Y8323173D01*
X3726738Y8312048D01*
X3736949Y8302142D01*
X3748328Y8293658D01*
X3760673Y8286699D01*
X3773881Y8281365D01*
X3787597Y8277758D01*
G37*
G36*
X6087719Y8275929D02*
G01*
X6101892Y8275929D01*
X6116015Y8277758D01*
X6129731Y8281365D01*
X6142939Y8286699D01*
X6155283Y8293658D01*
X6166662Y8302142D01*
X6176873Y8312048D01*
X6185763Y8323173D01*
X6193129Y8335314D01*
X6198870Y8348319D01*
X6202934Y8361934D01*
X6205169Y8375954D01*
X6205626Y8390128D01*
X6204254Y8404301D01*
X6201105Y8418169D01*
X6196228Y8431479D01*
X6189624Y8444077D01*
X6181496Y8455710D01*
X6171946Y8466277D01*
X6161125Y8475472D01*
X6149238Y8483193D01*
X6136436Y8489391D01*
X6122924Y8493861D01*
X6109004Y8496554D01*
X6094831Y8497468D01*
X6080607Y8496554D01*
X6066688Y8493861D01*
X6053175Y8489391D01*
X6040374Y8483193D01*
X6028486Y8475472D01*
X6017666Y8466277D01*
X6008116Y8455710D01*
X5999988Y8444077D01*
X5993384Y8431479D01*
X5988507Y8418169D01*
X5985357Y8404301D01*
X5983986Y8390128D01*
X5984443Y8375954D01*
X5986678Y8361934D01*
X5990742Y8348319D01*
X5996482Y8335314D01*
X6003848Y8323173D01*
X6012738Y8312048D01*
X6022949Y8302142D01*
X6034328Y8293658D01*
X6046673Y8286699D01*
X6059881Y8281365D01*
X6073597Y8277758D01*
G37*
G36*
X4563719Y8275929D02*
G01*
X4577892Y8275929D01*
X4592015Y8277758D01*
X4605731Y8281365D01*
X4618939Y8286699D01*
X4631283Y8293658D01*
X4642662Y8302142D01*
X4652873Y8312048D01*
X4661763Y8323173D01*
X4669129Y8335314D01*
X4674870Y8348319D01*
X4678934Y8361934D01*
X4681169Y8375954D01*
X4681626Y8390128D01*
X4680254Y8404301D01*
X4677105Y8418169D01*
X4672228Y8431479D01*
X4665624Y8444077D01*
X4657496Y8455710D01*
X4647946Y8466277D01*
X4637125Y8475472D01*
X4625238Y8483193D01*
X4612436Y8489391D01*
X4598924Y8493861D01*
X4585004Y8496554D01*
X4570831Y8497468D01*
X4556607Y8496554D01*
X4542688Y8493861D01*
X4529175Y8489391D01*
X4516374Y8483193D01*
X4504486Y8475472D01*
X4493666Y8466277D01*
X4484116Y8455710D01*
X4475988Y8444077D01*
X4469384Y8431479D01*
X4464507Y8418169D01*
X4461357Y8404301D01*
X4459986Y8390128D01*
X4460443Y8375954D01*
X4462678Y8361934D01*
X4466742Y8348319D01*
X4472482Y8335314D01*
X4479848Y8323173D01*
X4488738Y8312048D01*
X4498949Y8302142D01*
X4510328Y8293658D01*
X4522673Y8286699D01*
X4535881Y8281365D01*
X4549597Y8277758D01*
G37*
G36*
X5283962Y8287105D02*
G01*
X5283962Y8337753D01*
X5233416Y8337753D01*
X5234482Y8335314D01*
X5241848Y8323173D01*
X5250738Y8312048D01*
X5260949Y8302142D01*
X5272328Y8293658D01*
G37*
G36*
X4013962Y8287105D02*
G01*
X4013962Y8337753D01*
X3963415Y8337753D01*
X3964482Y8335314D01*
X3971848Y8323173D01*
X3980738Y8312048D01*
X3990949Y8302142D01*
X4002328Y8293658D01*
G37*
G36*
X5889650Y8287105D02*
G01*
X5901283Y8293658D01*
X5912662Y8302142D01*
X5922873Y8312048D01*
X5931763Y8323173D01*
X5939129Y8335314D01*
X5940196Y8337753D01*
X5889650Y8337753D01*
G37*
G36*
X4111650Y8287105D02*
G01*
X4123283Y8293658D01*
X4134662Y8302142D01*
X4144873Y8312048D01*
X4153763Y8323173D01*
X4161129Y8335314D01*
X4162196Y8337753D01*
X4111650Y8337753D01*
G37*
G36*
X5791962Y8287105D02*
G01*
X5791962Y8337753D01*
X5741416Y8337753D01*
X5742482Y8335314D01*
X5749848Y8323173D01*
X5758738Y8312048D01*
X5768949Y8302142D01*
X5780328Y8293658D01*
G37*
G36*
X5381650Y8287105D02*
G01*
X5393283Y8293658D01*
X5404662Y8302142D01*
X5414873Y8312048D01*
X5423763Y8323173D01*
X5431129Y8335314D01*
X5432196Y8337753D01*
X5381650Y8337753D01*
G37*
G36*
X3251962Y8287105D02*
G01*
X3251962Y8337753D01*
X3201416Y8337753D01*
X3202482Y8335314D01*
X3209848Y8323173D01*
X3218738Y8312048D01*
X3228949Y8302142D01*
X3240328Y8293658D01*
G37*
G36*
X4111650Y8435441D02*
G01*
X4162145Y8435441D01*
X4157624Y8444077D01*
X4149496Y8455710D01*
X4139946Y8466277D01*
X4129125Y8475472D01*
X4117238Y8483193D01*
X4111650Y8485886D01*
G37*
G36*
X5741466Y8435441D02*
G01*
X5791962Y8435441D01*
X5791962Y8485886D01*
X5786374Y8483193D01*
X5774486Y8475472D01*
X5763666Y8466277D01*
X5754116Y8455710D01*
X5745988Y8444077D01*
G37*
G36*
X5889650Y8435441D02*
G01*
X5940145Y8435441D01*
X5935624Y8444077D01*
X5927496Y8455710D01*
X5917946Y8466277D01*
X5907125Y8475472D01*
X5895238Y8483193D01*
X5889650Y8485886D01*
G37*
G36*
X5381650Y8435441D02*
G01*
X5432145Y8435441D01*
X5427624Y8444077D01*
X5419496Y8455710D01*
X5409946Y8466277D01*
X5399125Y8475472D01*
X5387238Y8483193D01*
X5381650Y8485886D01*
G37*
G36*
X3963466Y8435441D02*
G01*
X4013962Y8435441D01*
X4013962Y8485886D01*
X4008374Y8483193D01*
X3996486Y8475472D01*
X3985666Y8466277D01*
X3976115Y8455710D01*
X3967987Y8444077D01*
G37*
G36*
X5233466Y8435441D02*
G01*
X5283962Y8435441D01*
X5283962Y8485886D01*
X5278374Y8483193D01*
X5266486Y8475472D01*
X5255666Y8466277D01*
X5246116Y8455710D01*
X5237988Y8444077D01*
G37*

%LPD*%
G36*
X2842463Y5730798D02*
G01*
X2838094Y5731814D01*
X2834538Y5734608D01*
X2832608Y5738622D01*
X2832557Y5743143D01*
X2834436Y5747207D01*
X2837891Y5750052D01*
X2846019Y5754166D01*
X2857246Y5761888D01*
X2867406Y5771032D01*
X2876194Y5781446D01*
X2883509Y5792927D01*
X2889250Y5805322D01*
X2893314Y5818327D01*
X2895549Y5831789D01*
X2896006Y5845403D01*
X2894685Y5858967D01*
X2891485Y5872226D01*
X2890367Y5875223D01*
X2889656Y5879033D01*
X2890469Y5882843D01*
X2892653Y5886043D01*
X2956712Y5950102D01*
X2960014Y5952337D01*
X2963926Y5953099D01*
X2999130Y5953099D01*
X3002991Y5952337D01*
X3006293Y5950153D01*
X3008477Y5946851D01*
X3009290Y5942990D01*
X3008528Y5939129D01*
X3006344Y5935827D01*
X2990240Y5926175D01*
X2979521Y5917692D01*
X2970022Y5907887D01*
X2961944Y5896914D01*
X2955391Y5884976D01*
X2950514Y5872226D01*
X2947314Y5858967D01*
X2945993Y5845403D01*
X2946450Y5831789D01*
X2948686Y5818327D01*
X2952750Y5805322D01*
X2958490Y5792927D01*
X2965805Y5781446D01*
X2974594Y5771032D01*
X2984754Y5761888D01*
X2995980Y5754166D01*
X3004108Y5750052D01*
X3007563Y5747207D01*
X3009442Y5743143D01*
X3009392Y5738622D01*
X3007461Y5734608D01*
X3003905Y5731814D01*
X2999536Y5730798D01*
G37*

%LPD*%
G36*
X3096463Y5730798D02*
G01*
X3092094Y5731814D01*
X3088538Y5734608D01*
X3086608Y5738622D01*
X3086557Y5743143D01*
X3088436Y5747207D01*
X3091891Y5750052D01*
X3100019Y5754166D01*
X3111246Y5761888D01*
X3121406Y5771032D01*
X3130194Y5781446D01*
X3137509Y5792927D01*
X3143250Y5805322D01*
X3147314Y5818327D01*
X3149549Y5831789D01*
X3150006Y5845403D01*
X3148685Y5858967D01*
X3145485Y5872226D01*
X3140608Y5884976D01*
X3134055Y5896914D01*
X3125978Y5907887D01*
X3116478Y5917692D01*
X3105759Y5926175D01*
X3094024Y5933135D01*
X3092145Y5933897D01*
X3088538Y5936488D01*
X3086404Y5940348D01*
X3086100Y5944819D01*
X3087674Y5948934D01*
X3090926Y5951982D01*
X3095142Y5953353D01*
X3100374Y5953912D01*
X3107588Y5956096D01*
X3114243Y5959652D01*
X3120491Y5964783D01*
X3199688Y6043980D01*
X3203498Y6046368D01*
X3208020Y6046927D01*
X3212236Y6045454D01*
X3215436Y6042253D01*
X3219805Y6035446D01*
X3228594Y6025032D01*
X3238754Y6015888D01*
X3249980Y6008166D01*
X3262122Y6002020D01*
X3275025Y5997549D01*
X3288385Y5994806D01*
X3302000Y5993892D01*
X3315614Y5994806D01*
X3328974Y5997549D01*
X3341878Y6002020D01*
X3354019Y6008166D01*
X3365246Y6015888D01*
X3373424Y6023254D01*
X3376726Y6025235D01*
X3380587Y6025896D01*
X3384346Y6024981D01*
X3387547Y6022797D01*
X3389629Y6019546D01*
X3390392Y6015736D01*
X3390392Y5989218D01*
X3389629Y5985306D01*
X3387394Y5982004D01*
X3346196Y5940806D01*
X3343300Y5938774D01*
X3339846Y5937859D01*
X3336290Y5938164D01*
X3322320Y5942025D01*
X3308807Y5943854D01*
X3295192Y5943854D01*
X3281679Y5942025D01*
X3268522Y5938418D01*
X3255975Y5933135D01*
X3244240Y5926175D01*
X3233521Y5917692D01*
X3224022Y5907887D01*
X3215944Y5896914D01*
X3209391Y5884976D01*
X3204514Y5872226D01*
X3201314Y5858967D01*
X3199993Y5845403D01*
X3200450Y5831789D01*
X3202686Y5818327D01*
X3206750Y5805322D01*
X3212490Y5792927D01*
X3219805Y5781446D01*
X3228594Y5771032D01*
X3238754Y5761888D01*
X3249980Y5754166D01*
X3258108Y5750052D01*
X3261563Y5747207D01*
X3263442Y5743143D01*
X3263392Y5738622D01*
X3261461Y5734608D01*
X3257905Y5731814D01*
X3253536Y5730798D01*
G37*

%LPD*%
G36*
X3726992Y5679846D02*
G01*
X3723081Y5680608D01*
X3719779Y5682843D01*
X3717594Y5686094D01*
X3716832Y5690006D01*
X3717594Y5693918D01*
X3719779Y5697169D01*
X3766007Y5743397D01*
X3769106Y5745530D01*
X3772763Y5746343D01*
X3776522Y5745784D01*
X3783025Y5743549D01*
X3796385Y5740806D01*
X3810000Y5739892D01*
X3823614Y5740806D01*
X3836974Y5743549D01*
X3849878Y5748020D01*
X3862019Y5754166D01*
X3873246Y5761888D01*
X3883406Y5771032D01*
X3892194Y5781446D01*
X3899509Y5792927D01*
X3905250Y5805322D01*
X3909314Y5818327D01*
X3911549Y5831789D01*
X3912006Y5845403D01*
X3910685Y5858967D01*
X3907485Y5872226D01*
X3902608Y5884976D01*
X3896055Y5896914D01*
X3887978Y5907887D01*
X3878478Y5917692D01*
X3867759Y5926175D01*
X3856024Y5933135D01*
X3843477Y5938418D01*
X3830320Y5942025D01*
X3816807Y5943854D01*
X3803192Y5943854D01*
X3789679Y5942025D01*
X3776522Y5938418D01*
X3763975Y5933135D01*
X3752240Y5926175D01*
X3741521Y5917692D01*
X3732022Y5907887D01*
X3723944Y5896914D01*
X3717391Y5884976D01*
X3712514Y5872226D01*
X3709314Y5858967D01*
X3707993Y5845403D01*
X3708450Y5831789D01*
X3710686Y5818327D01*
X3713835Y5808116D01*
X3714292Y5804509D01*
X3713429Y5800953D01*
X3711346Y5797956D01*
X3647186Y5733796D01*
X3643884Y5731611D01*
X3640023Y5730798D01*
X3604463Y5730798D01*
X3600094Y5731814D01*
X3597452Y5733796D01*
X3594201Y5731611D01*
X3590290Y5730798D01*
X3521710Y5730798D01*
X3517798Y5731611D01*
X3514496Y5733846D01*
X3511905Y5731814D01*
X3507536Y5730798D01*
X3350463Y5730798D01*
X3346094Y5731814D01*
X3342538Y5734608D01*
X3340608Y5738622D01*
X3340557Y5743143D01*
X3342436Y5747207D01*
X3345891Y5750052D01*
X3354019Y5754166D01*
X3365246Y5761888D01*
X3375406Y5771032D01*
X3384194Y5781446D01*
X3391509Y5792927D01*
X3397250Y5805322D01*
X3401314Y5818327D01*
X3403549Y5831789D01*
X3404006Y5845403D01*
X3402685Y5858967D01*
X3399485Y5872226D01*
X3398367Y5875223D01*
X3397656Y5879033D01*
X3398469Y5882843D01*
X3400653Y5886043D01*
X3455924Y5941364D01*
X3461054Y5947562D01*
X3464610Y5954268D01*
X3466795Y5961481D01*
X3467608Y5969508D01*
X3467608Y6015736D01*
X3468370Y6019546D01*
X3470452Y6022797D01*
X3473653Y6024981D01*
X3477412Y6025896D01*
X3481273Y6025235D01*
X3484575Y6023254D01*
X3492754Y6015888D01*
X3503980Y6008166D01*
X3516122Y6002020D01*
X3529025Y5997549D01*
X3542385Y5994806D01*
X3556000Y5993892D01*
X3569614Y5994806D01*
X3582974Y5997549D01*
X3595878Y6002020D01*
X3608019Y6008166D01*
X3619246Y6015888D01*
X3629406Y6025032D01*
X3638194Y6035446D01*
X3645509Y6046927D01*
X3651250Y6059322D01*
X3655314Y6072327D01*
X3657549Y6085789D01*
X3658006Y6099403D01*
X3656685Y6112967D01*
X3653485Y6126226D01*
X3648608Y6138976D01*
X3642055Y6150914D01*
X3633978Y6161887D01*
X3624478Y6171692D01*
X3613759Y6180175D01*
X3602024Y6187135D01*
X3589477Y6192418D01*
X3576320Y6196025D01*
X3562807Y6197854D01*
X3549192Y6197854D01*
X3535679Y6196025D01*
X3522522Y6192418D01*
X3509975Y6187135D01*
X3498240Y6180175D01*
X3487521Y6171692D01*
X3485083Y6169152D01*
X3481781Y6166916D01*
X3477869Y6166104D01*
X3473958Y6166815D01*
X3470605Y6168999D01*
X3468370Y6172301D01*
X3467608Y6176264D01*
X3467608Y6237427D01*
X3468370Y6241338D01*
X3470605Y6244640D01*
X3633571Y6407607D01*
X3636873Y6409842D01*
X3640785Y6410604D01*
X3644646Y6409842D01*
X3647948Y6407607D01*
X3650132Y6404305D01*
X3650945Y6400444D01*
X3650945Y6342532D01*
X3651707Y6334506D01*
X3653891Y6327292D01*
X3657447Y6320637D01*
X3662578Y6314389D01*
X3759403Y6217615D01*
X3765600Y6212484D01*
X3772611Y6208725D01*
X3775557Y6206388D01*
X3777437Y6203086D01*
X3777945Y6199327D01*
X3777081Y6195618D01*
X3774948Y6192520D01*
X3771798Y6190437D01*
X3763975Y6187135D01*
X3752240Y6180175D01*
X3741521Y6171692D01*
X3732022Y6161887D01*
X3723944Y6150914D01*
X3717391Y6138976D01*
X3712514Y6126226D01*
X3709314Y6112967D01*
X3707993Y6099403D01*
X3708450Y6085789D01*
X3710686Y6072327D01*
X3714750Y6059322D01*
X3720490Y6046927D01*
X3727805Y6035446D01*
X3736594Y6025032D01*
X3746754Y6015888D01*
X3757980Y6008166D01*
X3770122Y6002020D01*
X3783025Y5997549D01*
X3796385Y5994806D01*
X3810000Y5993892D01*
X3823614Y5994806D01*
X3836974Y5997549D01*
X3849878Y6002020D01*
X3862019Y6008166D01*
X3873246Y6015888D01*
X3882390Y6024118D01*
X3885641Y6026099D01*
X3889451Y6026759D01*
X3893210Y6025946D01*
X3896360Y6023762D01*
X3970985Y5949188D01*
X3977182Y5944057D01*
X3983888Y5940501D01*
X3991101Y5938316D01*
X3993184Y5938113D01*
X3996994Y5936945D01*
X4000042Y5934405D01*
X4001922Y5930849D01*
X4002278Y5926886D01*
X4001058Y5923076D01*
X3998468Y5920028D01*
X3995521Y5917692D01*
X3986022Y5907887D01*
X3977944Y5896914D01*
X3972204Y5886450D01*
X4019550Y5886450D01*
X4019550Y5927344D01*
X4020312Y5931255D01*
X4022547Y5934557D01*
X4025798Y5936742D01*
X4029710Y5937504D01*
X4064457Y5937504D01*
X4068368Y5936742D01*
X4071670Y5934557D01*
X4105452Y5900724D01*
X4107687Y5897422D01*
X4108450Y5893562D01*
X4108450Y5886450D01*
X4115562Y5886450D01*
X4119422Y5885688D01*
X4122724Y5883452D01*
X4126687Y5879490D01*
X4128922Y5876188D01*
X4129684Y5872327D01*
X4129684Y5811875D01*
X4128922Y5807964D01*
X4126687Y5804662D01*
X4122572Y5800547D01*
X4119270Y5798312D01*
X4115358Y5797550D01*
X4108450Y5797550D01*
X4108450Y5790641D01*
X4107687Y5786729D01*
X4105452Y5783427D01*
X4004868Y5682843D01*
X4001566Y5680608D01*
X3997655Y5679846D01*
G37*

%LPC*%
G36*
X3600450Y5750356D02*
G01*
X3608019Y5754166D01*
X3619246Y5761888D01*
X3629406Y5771032D01*
X3638194Y5781446D01*
X3645509Y5792927D01*
X3647643Y5797550D01*
X3600450Y5797550D01*
G37*
G36*
X3511550Y5750356D02*
G01*
X3511550Y5797550D01*
X3464356Y5797550D01*
X3466490Y5792927D01*
X3473805Y5781446D01*
X3482594Y5771032D01*
X3492754Y5761888D01*
X3503980Y5754166D01*
G37*
G36*
X4019550Y5750356D02*
G01*
X4019550Y5797550D01*
X3972356Y5797550D01*
X3974490Y5792927D01*
X3981805Y5781446D01*
X3990594Y5771032D01*
X4000754Y5761888D01*
X4011980Y5754166D01*
G37*
G36*
X3600450Y5886450D02*
G01*
X3647795Y5886450D01*
X3642055Y5896914D01*
X3633978Y5907887D01*
X3624478Y5917692D01*
X3613759Y5926175D01*
X3602024Y5933135D01*
X3600450Y5933795D01*
G37*
G36*
X3464204Y5886450D02*
G01*
X3511550Y5886450D01*
X3511550Y5933795D01*
X3509975Y5933135D01*
X3498240Y5926175D01*
X3487521Y5917692D01*
X3478022Y5907887D01*
X3469944Y5896914D01*
G37*

%LPD*%
G36*
X1245260Y5636514D02*
G01*
X1222654Y5637377D01*
X1201267Y5639968D01*
X1180185Y5644184D01*
X1159459Y5650077D01*
X1139291Y5657545D01*
X1119784Y5666587D01*
X1101039Y5677103D01*
X1083157Y5689092D01*
X1066241Y5702452D01*
X1050493Y5717082D01*
X1035913Y5732881D01*
X1022603Y5749798D01*
X1010666Y5767730D01*
X1000201Y5786526D01*
X991209Y5806084D01*
X983792Y5826252D01*
X977950Y5846978D01*
X973785Y5868111D01*
X971296Y5889498D01*
X970534Y5910580D01*
X970534Y8310625D01*
X971346Y8332470D01*
X973937Y8353856D01*
X978153Y8374938D01*
X984046Y8395665D01*
X991514Y8415832D01*
X1000556Y8435340D01*
X1011072Y8454085D01*
X1023061Y8471966D01*
X1036421Y8488883D01*
X1051052Y8504631D01*
X1066850Y8519210D01*
X1083767Y8532520D01*
X1101699Y8544458D01*
X1120495Y8554923D01*
X1140053Y8563914D01*
X1160221Y8571331D01*
X1180947Y8577173D01*
X1202080Y8581339D01*
X1223467Y8583828D01*
X1245311Y8584692D01*
X2820416Y8584692D01*
X2824073Y8584031D01*
X2827223Y8582101D01*
X2829458Y8579154D01*
X2830525Y8575598D01*
X2830220Y8571890D01*
X2828848Y8566759D01*
X2828086Y8557818D01*
X2827070Y8554212D01*
X2824835Y8551214D01*
X2821635Y8549233D01*
X2817977Y8548522D01*
X2232152Y8548522D01*
X2224125Y8547709D01*
X2216912Y8545525D01*
X2210257Y8541969D01*
X2204008Y8536838D01*
X2130856Y8463686D01*
X2128570Y8460892D01*
X2125167Y8458200D01*
X2120950Y8457184D01*
X2116683Y8457996D01*
X2113178Y8460486D01*
X2107946Y8466277D01*
X2097125Y8475472D01*
X2085238Y8483193D01*
X2072436Y8489391D01*
X2058924Y8493861D01*
X2045004Y8496554D01*
X2030831Y8497468D01*
X2016607Y8496554D01*
X2002688Y8493861D01*
X1989175Y8489391D01*
X1976374Y8483193D01*
X1964486Y8475472D01*
X1953666Y8466277D01*
X1944116Y8455710D01*
X1935988Y8444077D01*
X1929384Y8431479D01*
X1924507Y8418169D01*
X1921357Y8404301D01*
X1919986Y8390128D01*
X1920443Y8375954D01*
X1922678Y8361934D01*
X1926742Y8348319D01*
X1932482Y8335314D01*
X1939848Y8323173D01*
X1948738Y8312048D01*
X1958949Y8302142D01*
X1962454Y8298383D01*
X1963674Y8294268D01*
X1963064Y8289950D01*
X1960727Y8286343D01*
X1901088Y8226704D01*
X1898091Y8224621D01*
X1894586Y8223758D01*
X1890979Y8224164D01*
X1887728Y8225790D01*
X1885289Y8228482D01*
X1881987Y8233714D01*
X1877923Y8237778D01*
X1872996Y8240877D01*
X1867560Y8242808D01*
X1861261Y8243519D01*
X1730248Y8243519D01*
X1726336Y8244281D01*
X1723034Y8246465D01*
X1720850Y8249767D01*
X1720088Y8253679D01*
X1720850Y8257540D01*
X1723034Y8260842D01*
X1739087Y8276894D01*
X1741982Y8278875D01*
X1745335Y8279841D01*
X1748840Y8279536D01*
X1755597Y8277758D01*
X1769719Y8275929D01*
X1783892Y8275929D01*
X1798015Y8277758D01*
X1811731Y8281365D01*
X1824939Y8286699D01*
X1837283Y8293658D01*
X1848662Y8302142D01*
X1858873Y8312048D01*
X1867763Y8323173D01*
X1875129Y8335314D01*
X1880870Y8348319D01*
X1884934Y8361934D01*
X1887169Y8375954D01*
X1887626Y8390128D01*
X1886254Y8404301D01*
X1883105Y8418169D01*
X1878228Y8431479D01*
X1871624Y8444077D01*
X1863496Y8455710D01*
X1853946Y8466277D01*
X1843125Y8475472D01*
X1831238Y8483193D01*
X1818436Y8489391D01*
X1804924Y8493861D01*
X1791004Y8496554D01*
X1776831Y8497468D01*
X1762607Y8496554D01*
X1748688Y8493861D01*
X1735175Y8489391D01*
X1722374Y8483193D01*
X1710486Y8475472D01*
X1699666Y8466277D01*
X1690116Y8455710D01*
X1681988Y8444077D01*
X1675384Y8431479D01*
X1670507Y8418169D01*
X1667357Y8404301D01*
X1665986Y8390128D01*
X1666443Y8375954D01*
X1668678Y8361934D01*
X1669592Y8358886D01*
X1669999Y8355279D01*
X1669084Y8351774D01*
X1667052Y8348827D01*
X1234135Y7915960D01*
X1230985Y7912506D01*
X1228293Y7909001D01*
X1225905Y7905242D01*
X1223873Y7901279D01*
X1222146Y7897215D01*
X1220825Y7892948D01*
X1219860Y7888630D01*
X1219301Y7884210D01*
X1219098Y7879588D01*
X1219098Y7734808D01*
X1218336Y7730896D01*
X1216101Y7727645D01*
X1212799Y7725409D01*
X1208938Y7724648D01*
X1191818Y7724648D01*
X1185519Y7723936D01*
X1180033Y7722006D01*
X1175156Y7718958D01*
X1171041Y7714843D01*
X1167993Y7709966D01*
X1166063Y7704480D01*
X1165352Y7698181D01*
X1165352Y7541818D01*
X1166063Y7535519D01*
X1167993Y7530033D01*
X1171041Y7525156D01*
X1175156Y7521041D01*
X1180033Y7517993D01*
X1185519Y7516063D01*
X1191818Y7515352D01*
X1208938Y7515352D01*
X1212799Y7514590D01*
X1216101Y7512354D01*
X1218336Y7509103D01*
X1219098Y7505192D01*
X1219098Y7501483D01*
X1219911Y7492238D01*
X1222197Y7483652D01*
X1225956Y7475626D01*
X1226921Y7474203D01*
X1228598Y7470190D01*
X1228445Y7465872D01*
X1226515Y7462012D01*
X1223111Y7459268D01*
X1217676Y7456627D01*
X1206296Y7449007D01*
X1196035Y7439964D01*
X1186992Y7429703D01*
X1179372Y7418324D01*
X1176121Y7411720D01*
X1224280Y7411720D01*
X1224280Y7451699D01*
X1225245Y7455966D01*
X1227886Y7459472D01*
X1231798Y7461503D01*
X1236218Y7461707D01*
X1240282Y7460030D01*
X1244549Y7456982D01*
X1252626Y7453274D01*
X1261160Y7450937D01*
X1270457Y7450124D01*
X1304188Y7450124D01*
X1308049Y7449362D01*
X1311351Y7447178D01*
X1312722Y7445756D01*
X1314958Y7442453D01*
X1315720Y7438593D01*
X1315720Y7411720D01*
X1328521Y7411720D01*
X1332433Y7410958D01*
X1335735Y7408722D01*
X1337919Y7405471D01*
X1338681Y7401559D01*
X1338681Y7330440D01*
X1337919Y7326528D01*
X1335735Y7323277D01*
X1332433Y7321042D01*
X1328521Y7320280D01*
X1315720Y7320280D01*
X1315720Y7272121D01*
X1322882Y7275779D01*
X1326946Y7277353D01*
X1331315Y7277100D01*
X1335125Y7275068D01*
X1337767Y7271562D01*
X1338681Y7267346D01*
X1338681Y6964781D01*
X1337919Y6960920D01*
X1335735Y6957618D01*
X1316329Y6938264D01*
X1313637Y6936333D01*
X1310487Y6935368D01*
X1307185Y6935470D01*
X1296517Y6937603D01*
X1282700Y6938467D01*
X1268882Y6937603D01*
X1255318Y6934860D01*
X1242161Y6930440D01*
X1229766Y6924294D01*
X1218234Y6916623D01*
X1207820Y6907479D01*
X1198676Y6897065D01*
X1191006Y6885533D01*
X1184859Y6873138D01*
X1180439Y6859981D01*
X1177696Y6846417D01*
X1176832Y6832600D01*
X1177696Y6818782D01*
X1180439Y6805218D01*
X1184859Y6792061D01*
X1191006Y6779666D01*
X1198676Y6768134D01*
X1207820Y6757720D01*
X1218234Y6748576D01*
X1229766Y6740906D01*
X1242161Y6734759D01*
X1255318Y6730339D01*
X1268882Y6727596D01*
X1282700Y6726732D01*
X1296517Y6727596D01*
X1310081Y6730339D01*
X1323238Y6734759D01*
X1335633Y6740906D01*
X1347165Y6748576D01*
X1357579Y6757720D01*
X1366723Y6768134D01*
X1374394Y6779666D01*
X1380540Y6792061D01*
X1384960Y6805218D01*
X1387703Y6818782D01*
X1388567Y6832600D01*
X1387703Y6846417D01*
X1385570Y6857085D01*
X1385468Y6860387D01*
X1386433Y6863537D01*
X1388364Y6866229D01*
X1425448Y6903364D01*
X1428597Y6906768D01*
X1431290Y6910324D01*
X1433677Y6914083D01*
X1435760Y6917994D01*
X1437436Y6922109D01*
X1438757Y6926325D01*
X1439722Y6930694D01*
X1440332Y6935063D01*
X1440535Y6939737D01*
X1440535Y7440675D01*
X1440332Y7445349D01*
X1439722Y7449718D01*
X1438757Y7454087D01*
X1437436Y7458303D01*
X1435760Y7462418D01*
X1433677Y7466330D01*
X1431290Y7470089D01*
X1428597Y7473645D01*
X1425448Y7477048D01*
X1376629Y7525867D01*
X1374851Y7528306D01*
X1373835Y7531201D01*
X1373733Y7534249D01*
X1374648Y7541869D01*
X1374648Y7698181D01*
X1373936Y7704480D01*
X1372006Y7709966D01*
X1368958Y7714843D01*
X1364843Y7718958D01*
X1359966Y7722006D01*
X1354480Y7723936D01*
X1348181Y7724648D01*
X1331061Y7724648D01*
X1327200Y7725409D01*
X1323898Y7727645D01*
X1321663Y7730896D01*
X1320901Y7734808D01*
X1320901Y7854492D01*
X1321663Y7858404D01*
X1323898Y7861655D01*
X1648561Y8186369D01*
X1651863Y8188553D01*
X1655724Y8189315D01*
X1659636Y8188553D01*
X1662938Y8186369D01*
X1665122Y8183067D01*
X1665884Y8179155D01*
X1665884Y8048142D01*
X1666595Y8041843D01*
X1668525Y8036407D01*
X1671624Y8031480D01*
X1675688Y8027416D01*
X1680616Y8024317D01*
X1686052Y8022386D01*
X1692351Y8021675D01*
X1861261Y8021675D01*
X1867560Y8022386D01*
X1872996Y8024317D01*
X1877923Y8027416D01*
X1881987Y8031480D01*
X1885086Y8036407D01*
X1887016Y8041843D01*
X1887728Y8048142D01*
X1887728Y8084616D01*
X1888388Y8088274D01*
X1890369Y8091424D01*
X1893316Y8093709D01*
X1904542Y8096961D01*
X1912010Y8100974D01*
X1916328Y8102142D01*
X1920748Y8101380D01*
X1924405Y8098790D01*
X1926742Y8094319D01*
X1932482Y8081314D01*
X1939848Y8069173D01*
X1948738Y8058048D01*
X1958949Y8048142D01*
X1970328Y8039658D01*
X1982673Y8032699D01*
X1995881Y8027365D01*
X2009597Y8023758D01*
X2023719Y8021929D01*
X2037892Y8021929D01*
X2052015Y8023758D01*
X2065731Y8027365D01*
X2078939Y8032699D01*
X2091283Y8039658D01*
X2102662Y8048142D01*
X2112873Y8058048D01*
X2121763Y8069173D01*
X2129129Y8081314D01*
X2134870Y8094319D01*
X2138934Y8107934D01*
X2141169Y8121954D01*
X2141626Y8136128D01*
X2140254Y8150301D01*
X2137105Y8164169D01*
X2132228Y8177479D01*
X2125624Y8190077D01*
X2117496Y8201710D01*
X2107946Y8212277D01*
X2098141Y8220608D01*
X2095703Y8223707D01*
X2094585Y8227466D01*
X2095042Y8231378D01*
X2096922Y8234832D01*
X2099970Y8237321D01*
X2107793Y8241436D01*
X2113991Y8246567D01*
X2184400Y8316925D01*
X2187956Y8319211D01*
X2192121Y8319871D01*
X2196236Y8318753D01*
X2199487Y8316061D01*
X2202738Y8312048D01*
X2212949Y8302142D01*
X2224328Y8293658D01*
X2235962Y8287105D01*
X2235962Y8337753D01*
X2206548Y8337753D01*
X2202688Y8338515D01*
X2199386Y8340699D01*
X2197201Y8344001D01*
X2196439Y8347913D01*
X2196439Y8415832D01*
X2197201Y8419744D01*
X2199386Y8423046D01*
X2208834Y8432495D01*
X2212136Y8434679D01*
X2215997Y8435441D01*
X2235962Y8435441D01*
X2235962Y8455406D01*
X2236724Y8459266D01*
X2238908Y8462568D01*
X2244699Y8468309D01*
X2248001Y8470544D01*
X2251862Y8471306D01*
X2323490Y8471306D01*
X2327402Y8470544D01*
X2330704Y8468309D01*
X2332888Y8465058D01*
X2333650Y8461146D01*
X2333650Y8435441D01*
X2384145Y8435441D01*
X2379624Y8444077D01*
X2371801Y8455355D01*
X2370124Y8459419D01*
X2370328Y8463788D01*
X2372360Y8467699D01*
X2375814Y8470341D01*
X2380132Y8471306D01*
X2443480Y8471306D01*
X2447798Y8470341D01*
X2451252Y8467699D01*
X2453284Y8463788D01*
X2453487Y8459419D01*
X2451811Y8455355D01*
X2443988Y8444077D01*
X2437384Y8431479D01*
X2432507Y8418169D01*
X2429357Y8404301D01*
X2427986Y8390128D01*
X2428443Y8375954D01*
X2430678Y8361934D01*
X2434742Y8348319D01*
X2440482Y8335314D01*
X2447848Y8323173D01*
X2456738Y8312048D01*
X2466949Y8302142D01*
X2478328Y8293658D01*
X2490673Y8286699D01*
X2503881Y8281365D01*
X2517597Y8277758D01*
X2531719Y8275929D01*
X2545892Y8275929D01*
X2560015Y8277758D01*
X2573731Y8281365D01*
X2586939Y8286699D01*
X2599283Y8293658D01*
X2610662Y8302142D01*
X2620873Y8312048D01*
X2629763Y8323173D01*
X2637129Y8335314D01*
X2642870Y8348319D01*
X2646934Y8361934D01*
X2649169Y8375954D01*
X2649626Y8390128D01*
X2648254Y8404301D01*
X2645105Y8418169D01*
X2640228Y8431479D01*
X2633624Y8444077D01*
X2625801Y8455355D01*
X2624124Y8459419D01*
X2624328Y8463788D01*
X2626360Y8467699D01*
X2629814Y8470341D01*
X2634132Y8471306D01*
X2697480Y8471306D01*
X2701798Y8470341D01*
X2705252Y8467699D01*
X2707284Y8463788D01*
X2707487Y8459419D01*
X2705811Y8455355D01*
X2697988Y8444077D01*
X2691384Y8431479D01*
X2686507Y8418169D01*
X2683357Y8404301D01*
X2681986Y8390128D01*
X2682443Y8375954D01*
X2684678Y8361934D01*
X2688742Y8348319D01*
X2694482Y8335314D01*
X2701848Y8323173D01*
X2710738Y8312048D01*
X2720949Y8302142D01*
X2732328Y8293658D01*
X2744673Y8286699D01*
X2757881Y8281365D01*
X2771597Y8277758D01*
X2785719Y8275929D01*
X2799892Y8275929D01*
X2814015Y8277758D01*
X2827731Y8281365D01*
X2832658Y8283346D01*
X2836570Y8284108D01*
X2840431Y8283295D01*
X2843682Y8281111D01*
X2864358Y8260435D01*
X2866593Y8257133D01*
X2867355Y8253222D01*
X2867355Y8234832D01*
X2866440Y8230616D01*
X2863850Y8227161D01*
X2860040Y8225078D01*
X2855722Y8224774D01*
X2851658Y8226348D01*
X2847238Y8229193D01*
X2841650Y8231886D01*
X2841650Y8181441D01*
X2857195Y8181441D01*
X2861106Y8180679D01*
X2864358Y8178495D01*
X2866593Y8175193D01*
X2867355Y8171281D01*
X2867355Y8093913D01*
X2866593Y8090001D01*
X2864358Y8086699D01*
X2861106Y8084515D01*
X2857195Y8083753D01*
X2841650Y8083753D01*
X2841650Y8033105D01*
X2852216Y8039049D01*
X2856230Y8040319D01*
X2860395Y8039862D01*
X2864002Y8037728D01*
X2866491Y8034324D01*
X2867355Y8030209D01*
X2867355Y7628737D01*
X2868168Y7620711D01*
X2870352Y7613497D01*
X2873908Y7606792D01*
X2879039Y7600594D01*
X3170580Y7309002D01*
X3176828Y7303871D01*
X3183483Y7300315D01*
X3190697Y7298131D01*
X3198723Y7297318D01*
X3595928Y7297318D01*
X3599789Y7296556D01*
X3603091Y7294372D01*
X5210048Y5687415D01*
X5216296Y5682284D01*
X5222951Y5678728D01*
X5230164Y5676544D01*
X5238191Y5675731D01*
X6234582Y5675731D01*
X6242608Y5676544D01*
X6249822Y5678728D01*
X6256477Y5682284D01*
X6262725Y5687415D01*
X6471869Y5896559D01*
X6475120Y5898743D01*
X6479032Y5899505D01*
X6482943Y5898743D01*
X6486194Y5896559D01*
X6488430Y5893257D01*
X6489192Y5889345D01*
X6489192Y5740958D01*
X6489903Y5734659D01*
X6491833Y5729173D01*
X6494881Y5724296D01*
X6498996Y5720181D01*
X6503873Y5717133D01*
X6509359Y5715203D01*
X6515658Y5714492D01*
X6717741Y5714492D01*
X6724040Y5715203D01*
X6729526Y5717133D01*
X6734403Y5720181D01*
X6738518Y5724296D01*
X6741566Y5729173D01*
X6743496Y5734659D01*
X6744208Y5740958D01*
X6744208Y5943041D01*
X6743496Y5949340D01*
X6741566Y5954826D01*
X6738518Y5959703D01*
X6734403Y5963818D01*
X6729526Y5966866D01*
X6724040Y5968796D01*
X6717741Y5969508D01*
X6689902Y5969508D01*
X6685635Y5970422D01*
X6682130Y5973064D01*
X6680098Y5976924D01*
X6679844Y5981293D01*
X6681470Y5985357D01*
X6684619Y5988354D01*
X6689140Y5991098D01*
X6701231Y6000597D01*
X6712102Y6011468D01*
X6721602Y6023559D01*
X6729577Y6036767D01*
X6735927Y6050788D01*
X6740499Y6065469D01*
X6743242Y6080607D01*
X6744208Y6096000D01*
X6743242Y6111392D01*
X6740499Y6126530D01*
X6735927Y6141212D01*
X6729577Y6155232D01*
X6721602Y6168440D01*
X6712102Y6180531D01*
X6701231Y6191402D01*
X6689140Y6200902D01*
X6675932Y6208877D01*
X6665163Y6213754D01*
X6662013Y6215938D01*
X6659930Y6219190D01*
X6659168Y6223000D01*
X6659930Y6226810D01*
X6662013Y6230061D01*
X6665163Y6232245D01*
X6675932Y6237122D01*
X6689140Y6245098D01*
X6701231Y6254597D01*
X6712102Y6265468D01*
X6721602Y6277559D01*
X6729577Y6290767D01*
X6735927Y6304788D01*
X6740499Y6319469D01*
X6743242Y6334607D01*
X6744208Y6350000D01*
X6743242Y6365392D01*
X6740499Y6380530D01*
X6735927Y6395212D01*
X6732778Y6402171D01*
X6731863Y6406134D01*
X6732625Y6410147D01*
X6734860Y6413550D01*
X6892239Y6570929D01*
X6897370Y6577177D01*
X6900925Y6583832D01*
X6903110Y6591046D01*
X6903923Y6599072D01*
X6903923Y8299653D01*
X6903110Y8307679D01*
X6900925Y8314893D01*
X6897370Y8321548D01*
X6892239Y8327796D01*
X6652666Y8567369D01*
X6650481Y8570620D01*
X6649720Y8574532D01*
X6650481Y8578443D01*
X6652666Y8581694D01*
X6655968Y8583930D01*
X6659880Y8584692D01*
X7143800Y8584692D01*
X7166406Y8583777D01*
X7187793Y8581186D01*
X7208926Y8576970D01*
X7229602Y8571077D01*
X7249769Y8563610D01*
X7269327Y8554567D01*
X7288072Y8544052D01*
X7305954Y8532063D01*
X7322820Y8518702D01*
X7338618Y8504072D01*
X7353198Y8488273D01*
X7366508Y8471357D01*
X7378395Y8453424D01*
X7388910Y8434628D01*
X7397902Y8415070D01*
X7405319Y8394903D01*
X7411110Y8374176D01*
X7415275Y8353044D01*
X7417765Y8331657D01*
X7418831Y8308086D01*
X7418831Y5913069D01*
X7417714Y5888685D01*
X7415174Y5867298D01*
X7410907Y5846216D01*
X7405065Y5825490D01*
X7397597Y5805322D01*
X7388555Y5785815D01*
X7377988Y5767070D01*
X7366000Y5749188D01*
X7352690Y5732272D01*
X7338059Y5716524D01*
X7322210Y5701944D01*
X7305294Y5688634D01*
X7287412Y5676696D01*
X7268616Y5666232D01*
X7249058Y5657240D01*
X7228840Y5649823D01*
X7208113Y5643981D01*
X7187031Y5639816D01*
X7165644Y5637326D01*
X7143851Y5636514D01*
X4092295Y5636514D01*
X4088384Y5637276D01*
X4085082Y5639511D01*
X4082897Y5642813D01*
X4082135Y5646674D01*
X4082897Y5650585D01*
X4085082Y5653836D01*
X4195216Y5764022D01*
X4200347Y5770219D01*
X4203903Y5776925D01*
X4206087Y5784138D01*
X4206900Y5793384D01*
X4207662Y5797245D01*
X4209796Y5800496D01*
X4212996Y5802731D01*
X4216806Y5803544D01*
X4220667Y5802884D01*
X4223969Y5800852D01*
X4226255Y5797702D01*
X4228490Y5792927D01*
X4235805Y5781446D01*
X4244594Y5771032D01*
X4254754Y5761888D01*
X4265980Y5754166D01*
X4278122Y5748020D01*
X4291025Y5743549D01*
X4304385Y5740806D01*
X4318000Y5739892D01*
X4331614Y5740806D01*
X4344974Y5743549D01*
X4357878Y5748020D01*
X4370019Y5754166D01*
X4381246Y5761888D01*
X4391406Y5771032D01*
X4400194Y5781446D01*
X4407509Y5792927D01*
X4413250Y5805322D01*
X4417314Y5818327D01*
X4419549Y5831789D01*
X4420006Y5845403D01*
X4418685Y5858967D01*
X4415485Y5872226D01*
X4410608Y5884976D01*
X4404055Y5896914D01*
X4395978Y5907887D01*
X4386478Y5917692D01*
X4375759Y5926175D01*
X4364024Y5933135D01*
X4351477Y5938418D01*
X4338320Y5942025D01*
X4324807Y5943854D01*
X4311192Y5943854D01*
X4297680Y5942025D01*
X4284522Y5938418D01*
X4271975Y5933135D01*
X4260240Y5926175D01*
X4249521Y5917692D01*
X4240022Y5907887D01*
X4231944Y5896914D01*
X4225950Y5885992D01*
X4223054Y5882690D01*
X4218990Y5880912D01*
X4214520Y5881065D01*
X4210608Y5883046D01*
X4207865Y5886551D01*
X4206900Y5892038D01*
X4206087Y5900064D01*
X4203903Y5907278D01*
X4200347Y5913932D01*
X4195216Y5920181D01*
X4119473Y5995974D01*
X4117086Y5999683D01*
X4116527Y6004052D01*
X4117898Y6008268D01*
X4120896Y6011519D01*
X4127246Y6015888D01*
X4137406Y6025032D01*
X4146194Y6035446D01*
X4153509Y6046927D01*
X4159250Y6059322D01*
X4163314Y6072327D01*
X4165549Y6085789D01*
X4166006Y6099403D01*
X4164685Y6112967D01*
X4161485Y6126226D01*
X4156608Y6138976D01*
X4150055Y6150914D01*
X4141978Y6161887D01*
X4132478Y6171692D01*
X4121759Y6180175D01*
X4110024Y6187135D01*
X4097477Y6192418D01*
X4084320Y6196025D01*
X4070807Y6197854D01*
X4057192Y6197854D01*
X4043679Y6196025D01*
X4029710Y6192164D01*
X4026154Y6191859D01*
X4022699Y6192774D01*
X4019804Y6194806D01*
X3943096Y6271463D01*
X3936898Y6276594D01*
X3930192Y6280150D01*
X3922979Y6282334D01*
X3914952Y6283147D01*
X3807256Y6283147D01*
X3803345Y6283909D01*
X3800043Y6286144D01*
X3775049Y6311138D01*
X3772865Y6314389D01*
X3772052Y6318148D01*
X3772712Y6321958D01*
X3774795Y6325260D01*
X3777894Y6327546D01*
X3782974Y6329934D01*
X3791051Y6335522D01*
X3792626Y6337147D01*
X3795928Y6339332D01*
X3799840Y6340094D01*
X4015079Y6340094D01*
X4018940Y6339332D01*
X4022242Y6337147D01*
X4219346Y6140043D01*
X4221530Y6136843D01*
X4222343Y6133033D01*
X4221632Y6129223D01*
X4220514Y6126226D01*
X4217314Y6112967D01*
X4215993Y6099403D01*
X4216450Y6085789D01*
X4218686Y6072327D01*
X4222750Y6059322D01*
X4228490Y6046927D01*
X4235805Y6035446D01*
X4244594Y6025032D01*
X4254754Y6015888D01*
X4265980Y6008166D01*
X4278122Y6002020D01*
X4291025Y5997549D01*
X4304385Y5994806D01*
X4318000Y5993892D01*
X4331614Y5994806D01*
X4344974Y5997549D01*
X4357878Y6002020D01*
X4370019Y6008166D01*
X4381246Y6015888D01*
X4391406Y6025032D01*
X4400194Y6035446D01*
X4407509Y6046927D01*
X4413250Y6059322D01*
X4417314Y6072327D01*
X4419549Y6085789D01*
X4420006Y6099403D01*
X4418685Y6112967D01*
X4415485Y6126226D01*
X4410608Y6138976D01*
X4404055Y6150914D01*
X4395978Y6161887D01*
X4386478Y6171692D01*
X4375759Y6180175D01*
X4364024Y6187135D01*
X4351477Y6192418D01*
X4338320Y6196025D01*
X4324807Y6197854D01*
X4311192Y6197854D01*
X4297680Y6196025D01*
X4283710Y6192164D01*
X4280154Y6191859D01*
X4276699Y6192774D01*
X4273804Y6194806D01*
X4062933Y6405676D01*
X4056684Y6410807D01*
X4050029Y6414363D01*
X4042816Y6416548D01*
X4034790Y6417310D01*
X3799840Y6417310D01*
X3795928Y6418122D01*
X3792626Y6420307D01*
X3791051Y6421932D01*
X3779824Y6429857D01*
X3777742Y6433159D01*
X3777081Y6436969D01*
X3777894Y6440728D01*
X3780028Y6443980D01*
X3815943Y6479844D01*
X3821074Y6486093D01*
X3824630Y6492748D01*
X3826814Y6499961D01*
X3827627Y6507988D01*
X3827627Y6584594D01*
X3826814Y6592620D01*
X3824630Y6599834D01*
X3821074Y6606489D01*
X3815943Y6612737D01*
X3322523Y7106158D01*
X3320491Y7109053D01*
X3319576Y7112457D01*
X3318865Y7120483D01*
X3316325Y7129983D01*
X3312160Y7138873D01*
X3306572Y7146950D01*
X3299612Y7153909D01*
X3291535Y7159498D01*
X3282645Y7163663D01*
X3273145Y7166203D01*
X3263392Y7167067D01*
X3253587Y7166203D01*
X3244088Y7163663D01*
X3235198Y7159498D01*
X3227120Y7153909D01*
X3220161Y7146950D01*
X3214573Y7138873D01*
X3210407Y7129983D01*
X3207867Y7120483D01*
X3207004Y7110679D01*
X3207867Y7100925D01*
X3210407Y7091425D01*
X3214573Y7082536D01*
X3220161Y7074458D01*
X3227120Y7067499D01*
X3235198Y7061911D01*
X3244088Y7057745D01*
X3253587Y7055205D01*
X3261614Y7054494D01*
X3265017Y7053580D01*
X3267913Y7051548D01*
X3701745Y6617716D01*
X3703929Y6614515D01*
X3704742Y6610705D01*
X3704031Y6606895D01*
X3701999Y6603593D01*
X3698849Y6601307D01*
X3692906Y6598513D01*
X3684828Y6592925D01*
X3677869Y6585966D01*
X3672281Y6577888D01*
X3668115Y6568998D01*
X3665575Y6559499D01*
X3664864Y6551472D01*
X3663950Y6548069D01*
X3661918Y6545173D01*
X3591153Y6474409D01*
X3587953Y6472224D01*
X3584143Y6471412D01*
X3580333Y6472123D01*
X3577031Y6474155D01*
X3568903Y6485890D01*
X3561943Y6492849D01*
X3560318Y6493967D01*
X3557524Y6496964D01*
X3556101Y6500825D01*
X3556355Y6504940D01*
X3558184Y6508597D01*
X3561334Y6511239D01*
X3565296Y6512407D01*
X3571443Y6512966D01*
X3580942Y6515506D01*
X3589832Y6519672D01*
X3597910Y6525259D01*
X3604869Y6532219D01*
X3610457Y6540296D01*
X3614623Y6549186D01*
X3617163Y6558686D01*
X3618026Y6568440D01*
X3617163Y6578244D01*
X3614623Y6587744D01*
X3610457Y6596634D01*
X3604869Y6604711D01*
X3597910Y6611670D01*
X3589832Y6617258D01*
X3580942Y6621424D01*
X3571443Y6623964D01*
X3561689Y6624828D01*
X3551885Y6623964D01*
X3542385Y6621424D01*
X3533495Y6617258D01*
X3525418Y6611670D01*
X3518458Y6604711D01*
X3512870Y6596634D01*
X3508705Y6587744D01*
X3506165Y6578244D01*
X3505454Y6570218D01*
X3504539Y6566814D01*
X3502507Y6563918D01*
X3148076Y6209436D01*
X3142945Y6203238D01*
X3139389Y6196533D01*
X3137204Y6189319D01*
X3136392Y6181293D01*
X3136392Y6176264D01*
X3135630Y6172301D01*
X3133394Y6168999D01*
X3130042Y6166815D01*
X3126130Y6166104D01*
X3122218Y6166916D01*
X3118916Y6169152D01*
X3116478Y6171692D01*
X3105759Y6180175D01*
X3094024Y6187135D01*
X3081477Y6192418D01*
X3068320Y6196025D01*
X3054807Y6197854D01*
X3041192Y6197854D01*
X3027680Y6196025D01*
X3014522Y6192418D01*
X3001975Y6187135D01*
X2990240Y6180175D01*
X2979521Y6171692D01*
X2970022Y6161887D01*
X2961944Y6150914D01*
X2955391Y6138976D01*
X2950514Y6126226D01*
X2947314Y6112967D01*
X2945993Y6099403D01*
X2946450Y6085789D01*
X2948686Y6072327D01*
X2952750Y6059322D01*
X2960624Y6041898D01*
X2960268Y6037580D01*
X2958236Y6033820D01*
X2954782Y6031230D01*
X2950565Y6030315D01*
X2944215Y6030315D01*
X2936189Y6029502D01*
X2928975Y6027318D01*
X2922270Y6023762D01*
X2916072Y6018631D01*
X2838196Y5940806D01*
X2835300Y5938774D01*
X2831846Y5937859D01*
X2828290Y5938164D01*
X2814320Y5942025D01*
X2800807Y5943854D01*
X2787192Y5943854D01*
X2773680Y5942025D01*
X2760522Y5938418D01*
X2747975Y5933135D01*
X2736240Y5926175D01*
X2725521Y5917692D01*
X2716022Y5907887D01*
X2707944Y5896914D01*
X2701391Y5884976D01*
X2696514Y5872226D01*
X2693314Y5858967D01*
X2691993Y5845403D01*
X2692450Y5831789D01*
X2694686Y5818327D01*
X2698750Y5805322D01*
X2704490Y5792927D01*
X2711805Y5781446D01*
X2720594Y5771032D01*
X2730754Y5761888D01*
X2741980Y5754166D01*
X2750108Y5750052D01*
X2753563Y5747207D01*
X2755442Y5743143D01*
X2755392Y5738622D01*
X2753461Y5734608D01*
X2749905Y5731814D01*
X2745536Y5730798D01*
X2588463Y5730798D01*
X2584094Y5731814D01*
X2581452Y5733796D01*
X2578201Y5731611D01*
X2574290Y5730798D01*
X2557678Y5730798D01*
X2553766Y5731611D01*
X2550464Y5733796D01*
X2498547Y5785764D01*
X2496312Y5789066D01*
X2495550Y5792927D01*
X2495550Y5797550D01*
X2490927Y5797550D01*
X2487066Y5798312D01*
X2483764Y5800547D01*
X2470150Y5814161D01*
X2467914Y5817463D01*
X2467152Y5821324D01*
X2467152Y5876290D01*
X2467914Y5880201D01*
X2470150Y5883452D01*
X2473401Y5885688D01*
X2477312Y5886450D01*
X2495550Y5886450D01*
X2495550Y5933795D01*
X2493975Y5933135D01*
X2482494Y5926328D01*
X2478481Y5924956D01*
X2474214Y5925362D01*
X2470556Y5927496D01*
X2468016Y5930900D01*
X2467152Y5935065D01*
X2467152Y6003137D01*
X2468118Y6007455D01*
X2470759Y6010910D01*
X2474620Y6012942D01*
X2478989Y6013196D01*
X2483053Y6011519D01*
X2487980Y6008166D01*
X2500122Y6002020D01*
X2513025Y5997549D01*
X2526385Y5994806D01*
X2540000Y5993892D01*
X2553614Y5994806D01*
X2566974Y5997549D01*
X2579878Y6002020D01*
X2592019Y6008166D01*
X2603246Y6015888D01*
X2613406Y6025032D01*
X2622194Y6035446D01*
X2629509Y6046927D01*
X2635250Y6059322D01*
X2639314Y6072327D01*
X2641549Y6085789D01*
X2642006Y6099403D01*
X2640685Y6112967D01*
X2637485Y6126226D01*
X2632608Y6138976D01*
X2626055Y6150914D01*
X2617978Y6161887D01*
X2608478Y6171692D01*
X2597759Y6180175D01*
X2586024Y6187135D01*
X2573477Y6192418D01*
X2560320Y6196025D01*
X2546807Y6197854D01*
X2533192Y6197854D01*
X2519680Y6196025D01*
X2506522Y6192418D01*
X2493975Y6187135D01*
X2482494Y6180328D01*
X2478481Y6178956D01*
X2474214Y6179362D01*
X2470556Y6181496D01*
X2468016Y6184900D01*
X2467152Y6189065D01*
X2467152Y6503009D01*
X2467914Y6506921D01*
X2470150Y6510223D01*
X2471724Y6511798D01*
X2477363Y6519875D01*
X2481529Y6528765D01*
X2484069Y6538264D01*
X2484932Y6548018D01*
X2484069Y6557822D01*
X2481529Y6567322D01*
X2477363Y6576212D01*
X2471724Y6584289D01*
X2464765Y6591249D01*
X2456738Y6596837D01*
X2447848Y6601002D01*
X2438349Y6603542D01*
X2432354Y6604101D01*
X2428646Y6605117D01*
X2425649Y6607454D01*
X2423668Y6610705D01*
X2423058Y6614515D01*
X2423871Y6618224D01*
X2426055Y6621373D01*
X2583942Y6779310D01*
X2589072Y6785508D01*
X2592628Y6792214D01*
X2594813Y6799427D01*
X2595626Y6807453D01*
X2595626Y7065670D01*
X2596388Y7069581D01*
X2598572Y7072884D01*
X2600198Y7074458D01*
X2605786Y7082536D01*
X2609951Y7091425D01*
X2612491Y7100925D01*
X2613355Y7110679D01*
X2612491Y7120483D01*
X2609951Y7129983D01*
X2605786Y7138873D01*
X2600198Y7146950D01*
X2593238Y7153909D01*
X2585161Y7159498D01*
X2576271Y7163663D01*
X2566771Y7166203D01*
X2557018Y7167067D01*
X2547213Y7166203D01*
X2537714Y7163663D01*
X2528824Y7159498D01*
X2520746Y7153909D01*
X2513787Y7146950D01*
X2508199Y7138873D01*
X2504033Y7129983D01*
X2501493Y7120483D01*
X2500630Y7110679D01*
X2501493Y7100925D01*
X2504033Y7091425D01*
X2508199Y7082536D01*
X2513787Y7074458D01*
X2515412Y7072884D01*
X2517597Y7069581D01*
X2518410Y7065670D01*
X2518410Y6827164D01*
X2517597Y6823252D01*
X2515412Y6819950D01*
X2303272Y6607809D01*
X2300376Y6605778D01*
X2296972Y6604863D01*
X2288895Y6604152D01*
X2279396Y6601612D01*
X2270506Y6597446D01*
X2262479Y6591858D01*
X2255520Y6584899D01*
X2249881Y6576822D01*
X2245715Y6567931D01*
X2243175Y6558432D01*
X2242312Y6548628D01*
X2243175Y6538874D01*
X2245715Y6529374D01*
X2249881Y6520484D01*
X2255520Y6512407D01*
X2262479Y6505448D01*
X2270506Y6499860D01*
X2279396Y6495694D01*
X2288895Y6493154D01*
X2298700Y6492290D01*
X2308504Y6493154D01*
X2318004Y6495694D01*
X2326894Y6499860D01*
X2334920Y6505448D01*
X2341880Y6512407D01*
X2347518Y6520484D01*
X2351684Y6529374D01*
X2353716Y6537045D01*
X2355748Y6540957D01*
X2359253Y6543649D01*
X2363520Y6544564D01*
X2367838Y6543649D01*
X2371344Y6540957D01*
X2373376Y6537045D01*
X2375560Y6528765D01*
X2379726Y6519875D01*
X2385364Y6511798D01*
X2386939Y6510223D01*
X2389174Y6506921D01*
X2389936Y6503009D01*
X2389936Y6429806D01*
X2389073Y6425742D01*
X2386634Y6422339D01*
X2383028Y6420205D01*
X2378913Y6419697D01*
X2368296Y6420612D01*
X2358491Y6419748D01*
X2348992Y6417208D01*
X2340102Y6413042D01*
X2332075Y6407454D01*
X2325116Y6400495D01*
X2319477Y6392418D01*
X2315311Y6383528D01*
X2312771Y6374028D01*
X2311908Y6364224D01*
X2312771Y6354470D01*
X2315311Y6344970D01*
X2319477Y6336080D01*
X2325116Y6328003D01*
X2326690Y6326428D01*
X2328926Y6323126D01*
X2329688Y6319215D01*
X2329688Y5792927D01*
X2330500Y5784900D01*
X2332685Y5777687D01*
X2336241Y5770981D01*
X2341372Y5764784D01*
X2452268Y5653836D01*
X2454452Y5650585D01*
X2455214Y5646674D01*
X2454452Y5642813D01*
X2452268Y5639511D01*
X2448966Y5637276D01*
X2445054Y5636514D01*
G37*

%LPC*%
G36*
X2584450Y5750356D02*
G01*
X2592019Y5754166D01*
X2603246Y5761888D01*
X2613406Y5771032D01*
X2622194Y5781446D01*
X2629509Y5792927D01*
X2631643Y5797550D01*
X2584450Y5797550D01*
G37*
G36*
X1285443Y5797245D02*
G01*
X1302867Y5797702D01*
X1320088Y5800039D01*
X1337005Y5804154D01*
X1353362Y5810046D01*
X1369009Y5817666D01*
X1383741Y5826861D01*
X1397406Y5837631D01*
X1409852Y5849772D01*
X1420977Y5863132D01*
X1430578Y5877661D01*
X1438605Y5893054D01*
X1444955Y5909259D01*
X1449527Y5926074D01*
X1452270Y5943244D01*
X1453184Y5960567D01*
X1452270Y5977940D01*
X1449527Y5995111D01*
X1444955Y6011926D01*
X1438605Y6028131D01*
X1430578Y6043523D01*
X1420977Y6058052D01*
X1409852Y6071412D01*
X1397406Y6083554D01*
X1383741Y6094272D01*
X1369009Y6103518D01*
X1353362Y6111138D01*
X1337005Y6117031D01*
X1320088Y6121146D01*
X1302867Y6123482D01*
X1285443Y6123940D01*
X1268120Y6122517D01*
X1251051Y6119317D01*
X1234389Y6114288D01*
X1218336Y6107531D01*
X1203147Y6099098D01*
X1188923Y6089091D01*
X1175816Y6077661D01*
X1164031Y6064859D01*
X1153668Y6050940D01*
X1144828Y6035954D01*
X1137615Y6020104D01*
X1132179Y6003594D01*
X1128522Y5986576D01*
X1126642Y5969304D01*
X1126642Y5951880D01*
X1128522Y5934608D01*
X1132179Y5917590D01*
X1137615Y5901080D01*
X1144828Y5885230D01*
X1153668Y5870244D01*
X1164031Y5856325D01*
X1175816Y5843524D01*
X1188923Y5832094D01*
X1203147Y5822086D01*
X1218336Y5813653D01*
X1234389Y5806897D01*
X1251051Y5801868D01*
X1268120Y5798667D01*
G37*
G36*
X7085431Y5797245D02*
G01*
X7102856Y5797702D01*
X7120077Y5800039D01*
X7136993Y5804154D01*
X7153351Y5810046D01*
X7168997Y5817666D01*
X7183729Y5826861D01*
X7197394Y5837631D01*
X7209840Y5849772D01*
X7220966Y5863132D01*
X7230567Y5877661D01*
X7238593Y5893054D01*
X7244943Y5909259D01*
X7249515Y5926074D01*
X7252258Y5943244D01*
X7253173Y5960567D01*
X7252258Y5977940D01*
X7249515Y5995111D01*
X7244943Y6011926D01*
X7238593Y6028131D01*
X7230567Y6043523D01*
X7220966Y6058052D01*
X7209840Y6071412D01*
X7197394Y6083554D01*
X7183729Y6094272D01*
X7168997Y6103518D01*
X7153351Y6111138D01*
X7136993Y6117031D01*
X7120077Y6121146D01*
X7102856Y6123482D01*
X7085431Y6123940D01*
X7068108Y6122517D01*
X7051040Y6119317D01*
X7034377Y6114288D01*
X7018324Y6107531D01*
X7003135Y6099098D01*
X6988911Y6089091D01*
X6975805Y6077661D01*
X6964019Y6064859D01*
X6953656Y6050940D01*
X6944817Y6035954D01*
X6937603Y6020104D01*
X6932168Y6003594D01*
X6928510Y5986576D01*
X6926630Y5969304D01*
X6926630Y5951880D01*
X6928510Y5934608D01*
X6932168Y5917590D01*
X6937603Y5901080D01*
X6944817Y5885230D01*
X6953656Y5870244D01*
X6964019Y5856325D01*
X6975805Y5843524D01*
X6988911Y5832094D01*
X7003135Y5822086D01*
X7018324Y5813653D01*
X7034377Y5806897D01*
X7051040Y5801868D01*
X7068108Y5798667D01*
G37*
G36*
X2584450Y5886450D02*
G01*
X2631795Y5886450D01*
X2626055Y5896914D01*
X2617978Y5907887D01*
X2608478Y5917692D01*
X2597759Y5926175D01*
X2586024Y5933135D01*
X2584450Y5933795D01*
G37*
G36*
X2794000Y5993892D02*
G01*
X2807614Y5994806D01*
X2820974Y5997549D01*
X2833878Y6002020D01*
X2846019Y6008166D01*
X2857246Y6015888D01*
X2867406Y6025032D01*
X2876194Y6035446D01*
X2883509Y6046927D01*
X2889250Y6059322D01*
X2893314Y6072327D01*
X2895549Y6085789D01*
X2896006Y6099403D01*
X2894685Y6112967D01*
X2891485Y6126226D01*
X2886608Y6138976D01*
X2880055Y6150914D01*
X2871978Y6161887D01*
X2862478Y6171692D01*
X2851759Y6180175D01*
X2840024Y6187135D01*
X2827477Y6192418D01*
X2814320Y6196025D01*
X2800807Y6197854D01*
X2787192Y6197854D01*
X2773680Y6196025D01*
X2760522Y6192418D01*
X2747975Y6187135D01*
X2736240Y6180175D01*
X2725521Y6171692D01*
X2716022Y6161887D01*
X2707944Y6150914D01*
X2701391Y6138976D01*
X2696514Y6126226D01*
X2693314Y6112967D01*
X2691993Y6099403D01*
X2692450Y6085789D01*
X2694686Y6072327D01*
X2698750Y6059322D01*
X2704490Y6046927D01*
X2711805Y6035446D01*
X2720594Y6025032D01*
X2730754Y6015888D01*
X2741980Y6008166D01*
X2754122Y6002020D01*
X2767025Y5997549D01*
X2780385Y5994806D01*
G37*
G36*
X1329029Y6483654D02*
G01*
X1335633Y6486906D01*
X1347165Y6494576D01*
X1357579Y6503720D01*
X1366723Y6514134D01*
X1374394Y6525666D01*
X1377645Y6532270D01*
X1329029Y6532270D01*
G37*
G36*
X1236370Y6483654D02*
G01*
X1236370Y6532270D01*
X1187754Y6532270D01*
X1191006Y6525666D01*
X1198676Y6514134D01*
X1207820Y6503720D01*
X1218234Y6494576D01*
X1229766Y6486906D01*
G37*
G36*
X1329029Y6624929D02*
G01*
X1377645Y6624929D01*
X1374394Y6631533D01*
X1366723Y6643065D01*
X1357579Y6653479D01*
X1347165Y6662623D01*
X1335633Y6670294D01*
X1329029Y6673545D01*
G37*
G36*
X1187754Y6624929D02*
G01*
X1236370Y6624929D01*
X1236370Y6673545D01*
X1229766Y6670294D01*
X1218234Y6662623D01*
X1207820Y6653479D01*
X1198676Y6643065D01*
X1191006Y6631533D01*
G37*
G36*
X1224280Y7272121D02*
G01*
X1224280Y7320280D01*
X1176121Y7320280D01*
X1179372Y7313675D01*
X1186992Y7302296D01*
X1196035Y7292035D01*
X1206296Y7282992D01*
X1217676Y7275372D01*
G37*
G36*
X2235352Y7788249D02*
G01*
X2245156Y7789113D01*
X2254656Y7791653D01*
X2263546Y7795818D01*
X2271623Y7801406D01*
X2273198Y7803032D01*
X2276500Y7805216D01*
X2280412Y7805978D01*
X2519019Y7805978D01*
X2527046Y7806791D01*
X2534259Y7808975D01*
X2540965Y7812531D01*
X2547162Y7817662D01*
X2689860Y7960359D01*
X2692755Y7962341D01*
X2696159Y7963255D01*
X2704185Y7963966D01*
X2713685Y7966506D01*
X2722575Y7970672D01*
X2730652Y7976311D01*
X2737612Y7983270D01*
X2743200Y7991297D01*
X2747365Y8000187D01*
X2749905Y8009686D01*
X2750769Y8019491D01*
X2749905Y8029295D01*
X2747365Y8038795D01*
X2744927Y8044078D01*
X2743962Y8048345D01*
X2743962Y8083753D01*
X2691790Y8083753D01*
X2691028Y8080400D01*
X2688336Y8076946D01*
X2684475Y8074964D01*
X2675128Y8072475D01*
X2666238Y8068309D01*
X2658160Y8062671D01*
X2651201Y8055711D01*
X2645613Y8047685D01*
X2641447Y8038795D01*
X2638907Y8029295D01*
X2638196Y8021218D01*
X2637282Y8017814D01*
X2635250Y8014919D01*
X2506522Y7886192D01*
X2503220Y7884007D01*
X2499309Y7883194D01*
X2280412Y7883194D01*
X2276500Y7884007D01*
X2273198Y7886192D01*
X2271623Y7887817D01*
X2263546Y7893405D01*
X2254656Y7897571D01*
X2245156Y7900111D01*
X2235352Y7900974D01*
X2225598Y7900111D01*
X2216099Y7897571D01*
X2207209Y7893405D01*
X2199132Y7887817D01*
X2192172Y7880858D01*
X2186584Y7872780D01*
X2182418Y7863890D01*
X2179878Y7854391D01*
X2179015Y7844586D01*
X2179878Y7834833D01*
X2182418Y7825333D01*
X2186584Y7816443D01*
X2192172Y7808366D01*
X2199132Y7801406D01*
X2207209Y7795818D01*
X2216099Y7791653D01*
X2225598Y7789113D01*
G37*
G36*
X2531719Y8021929D02*
G01*
X2545892Y8021929D01*
X2560015Y8023758D01*
X2573731Y8027365D01*
X2586939Y8032699D01*
X2599283Y8039658D01*
X2610662Y8048142D01*
X2620873Y8058048D01*
X2629763Y8069173D01*
X2637129Y8081314D01*
X2642870Y8094319D01*
X2646934Y8107934D01*
X2649169Y8121954D01*
X2649626Y8136128D01*
X2648254Y8150301D01*
X2645105Y8164169D01*
X2640228Y8177479D01*
X2633624Y8190077D01*
X2625496Y8201710D01*
X2615946Y8212277D01*
X2605125Y8221472D01*
X2593238Y8229193D01*
X2580436Y8235391D01*
X2566924Y8239861D01*
X2553004Y8242553D01*
X2538831Y8243468D01*
X2524607Y8242553D01*
X2510688Y8239861D01*
X2497175Y8235391D01*
X2484374Y8229193D01*
X2472486Y8221472D01*
X2461666Y8212277D01*
X2452116Y8201710D01*
X2443988Y8190077D01*
X2437384Y8177479D01*
X2432507Y8164169D01*
X2429357Y8150301D01*
X2427986Y8136128D01*
X2428443Y8121954D01*
X2430678Y8107934D01*
X2434742Y8094319D01*
X2440482Y8081314D01*
X2447848Y8069173D01*
X2456738Y8058048D01*
X2466949Y8048142D01*
X2478328Y8039658D01*
X2490673Y8032699D01*
X2503881Y8027365D01*
X2517597Y8023758D01*
G37*
G36*
X2277719Y8021929D02*
G01*
X2291892Y8021929D01*
X2306015Y8023758D01*
X2319731Y8027365D01*
X2332939Y8032699D01*
X2345283Y8039658D01*
X2356662Y8048142D01*
X2366873Y8058048D01*
X2375763Y8069173D01*
X2383129Y8081314D01*
X2388870Y8094319D01*
X2392934Y8107934D01*
X2395169Y8121954D01*
X2395626Y8136128D01*
X2394254Y8150301D01*
X2391105Y8164169D01*
X2386228Y8177479D01*
X2379624Y8190077D01*
X2371496Y8201710D01*
X2361946Y8212277D01*
X2351125Y8221472D01*
X2339238Y8229193D01*
X2326436Y8235391D01*
X2312924Y8239861D01*
X2299004Y8242553D01*
X2284831Y8243468D01*
X2270607Y8242553D01*
X2256688Y8239861D01*
X2243175Y8235391D01*
X2230374Y8229193D01*
X2218486Y8221472D01*
X2207666Y8212277D01*
X2198116Y8201710D01*
X2189988Y8190077D01*
X2183384Y8177479D01*
X2178507Y8164169D01*
X2175357Y8150301D01*
X2173986Y8136128D01*
X2174443Y8121954D01*
X2176678Y8107934D01*
X2180742Y8094319D01*
X2186482Y8081314D01*
X2193848Y8069173D01*
X2202738Y8058048D01*
X2212949Y8048142D01*
X2224328Y8039658D01*
X2236673Y8032699D01*
X2249881Y8027365D01*
X2263597Y8023758D01*
G37*
G36*
X1285443Y8097266D02*
G01*
X1302867Y8097723D01*
X1320088Y8100009D01*
X1337005Y8104174D01*
X1353362Y8110067D01*
X1369009Y8117636D01*
X1383741Y8126882D01*
X1397406Y8137601D01*
X1409852Y8149742D01*
X1420977Y8163153D01*
X1430578Y8177631D01*
X1438605Y8193074D01*
X1444955Y8209280D01*
X1449527Y8226044D01*
X1452270Y8243214D01*
X1453184Y8260588D01*
X1452270Y8277961D01*
X1449527Y8295131D01*
X1444955Y8311896D01*
X1438605Y8328101D01*
X1430578Y8343544D01*
X1420977Y8358022D01*
X1409852Y8371433D01*
X1397406Y8383574D01*
X1383741Y8394293D01*
X1369009Y8403539D01*
X1353362Y8411108D01*
X1337005Y8417001D01*
X1320088Y8421166D01*
X1302867Y8423452D01*
X1285443Y8423910D01*
X1268120Y8422538D01*
X1251051Y8419338D01*
X1234389Y8414308D01*
X1218336Y8407552D01*
X1203147Y8399119D01*
X1188923Y8389112D01*
X1175816Y8377631D01*
X1164031Y8364880D01*
X1153668Y8350910D01*
X1144828Y8335924D01*
X1137615Y8320074D01*
X1132179Y8303564D01*
X1128522Y8286597D01*
X1126642Y8269274D01*
X1126642Y8251901D01*
X1128522Y8234578D01*
X1132179Y8217611D01*
X1137615Y8201101D01*
X1144828Y8185251D01*
X1153668Y8170265D01*
X1164031Y8156295D01*
X1175816Y8143544D01*
X1188923Y8132064D01*
X1203147Y8122056D01*
X1218336Y8113623D01*
X1234389Y8106867D01*
X1251051Y8101838D01*
X1268120Y8098637D01*
G37*
G36*
X7085431Y8097266D02*
G01*
X7102856Y8097723D01*
X7120077Y8100009D01*
X7136993Y8104174D01*
X7153351Y8110067D01*
X7168997Y8117636D01*
X7183729Y8126882D01*
X7197394Y8137601D01*
X7209840Y8149742D01*
X7220966Y8163153D01*
X7230567Y8177631D01*
X7238593Y8193074D01*
X7244943Y8209280D01*
X7249515Y8226044D01*
X7252258Y8243214D01*
X7253173Y8260588D01*
X7252258Y8277961D01*
X7249515Y8295131D01*
X7244943Y8311896D01*
X7238593Y8328101D01*
X7230567Y8343544D01*
X7220966Y8358022D01*
X7209840Y8371433D01*
X7197394Y8383574D01*
X7183729Y8394293D01*
X7168997Y8403539D01*
X7153351Y8411108D01*
X7136993Y8417001D01*
X7120077Y8421166D01*
X7102856Y8423452D01*
X7085431Y8423910D01*
X7068108Y8422538D01*
X7051040Y8419338D01*
X7034377Y8414308D01*
X7018324Y8407552D01*
X7003135Y8399119D01*
X6988911Y8389112D01*
X6975805Y8377631D01*
X6964019Y8364880D01*
X6953656Y8350910D01*
X6944817Y8335924D01*
X6937603Y8320074D01*
X6932168Y8303564D01*
X6928510Y8286597D01*
X6926630Y8269274D01*
X6926630Y8251901D01*
X6928510Y8234578D01*
X6932168Y8217611D01*
X6937603Y8201101D01*
X6944817Y8185251D01*
X6953656Y8170265D01*
X6964019Y8156295D01*
X6975805Y8143544D01*
X6988911Y8132064D01*
X7003135Y8122056D01*
X7018324Y8113623D01*
X7034377Y8106867D01*
X7051040Y8101838D01*
X7068108Y8098637D01*
G37*
G36*
X2693466Y8181441D02*
G01*
X2743962Y8181441D01*
X2743962Y8231886D01*
X2738374Y8229193D01*
X2726486Y8221472D01*
X2715666Y8212277D01*
X2706116Y8201710D01*
X2697988Y8190077D01*
G37*
G36*
X2333650Y8287105D02*
G01*
X2345283Y8293658D01*
X2356662Y8302142D01*
X2366873Y8312048D01*
X2375763Y8323173D01*
X2383129Y8335314D01*
X2384196Y8337753D01*
X2333650Y8337753D01*
G37*

%LPD*%
D10*
X3302000Y6096000D02*
G01*
X3302000Y6225971D01*
X3525697Y6449669D01*
X2794000Y5842000D02*
G01*
X2943707Y5991707D01*
X3092831Y5991707D01*
X3175000Y6073876D01*
X3175000Y6181801D01*
X3561664Y6568465D01*
X3810000Y5842000D02*
G01*
X3660216Y5692216D01*
X2537459Y5692216D01*
X2428544Y5801131D01*
X2428544Y6548043D01*
X4062806Y8132597D02*
G01*
X4508627Y7686776D01*
X4508627Y7533386D01*
X3554806Y8132597D02*
G01*
X3844239Y7843164D01*
X3963644Y7843164D01*
X3134918Y7485887D02*
G01*
X3134918Y8044484D01*
X3046806Y8132597D01*
X3366211Y7842326D02*
G01*
X3366211Y7870875D01*
X3173806Y8063280D01*
X3173806Y8259597D01*
X3046806Y8386597D01*
X1776806Y8132597D02*
G01*
X1889810Y8132597D01*
X1889810Y8132597D02*
G01*
X1889810Y8160842D01*
X2002459Y8273491D01*
X2086356Y8273491D01*
X2157806Y8344941D01*
X2157806Y8436051D01*
X2231669Y8509914D01*
X2848609Y8509914D01*
X2860116Y8498408D01*
X2908655Y8498408D01*
X2920161Y8509914D01*
X3343478Y8509914D01*
X3441700Y8411692D01*
X3441700Y8331072D01*
X3513175Y8259597D01*
X3681806Y8259597D01*
X3808806Y8132597D01*
X3808806Y8132597D02*
G01*
X4499203Y7442200D01*
X4860569Y7442200D01*
X6616700Y7620000D02*
G01*
X5586806Y7620000D01*
X5586806Y7620000D02*
G01*
X5586806Y8132597D01*
X5382006Y5840476D02*
G01*
X5382006Y6540474D01*
X5382006Y6540474D02*
G01*
X5586806Y6745274D01*
X5586806Y7620000D01*
X2884373Y8556980D02*
G01*
X6608445Y8556980D01*
X6865289Y8300135D01*
X6865289Y6598589D01*
X6616700Y6350000D01*
X6616700Y6858000D02*
G01*
X6755917Y6997217D01*
X6755917Y7673847D01*
X6479717Y7950047D01*
X5846521Y7950047D01*
X5713806Y8082762D01*
X5713806Y8259597D01*
X5586806Y8386597D01*
X6616700Y6604000D02*
G01*
X6810324Y6797624D01*
X6810324Y7687589D01*
X6507073Y7990839D01*
X5982563Y7990839D01*
X5840806Y8132597D01*
X5842000Y5840476D02*
G01*
X5842000Y6540474D01*
X5842000Y6540474D02*
G01*
X5842000Y6832600D01*
X2368295Y6364249D02*
G01*
X2368295Y5792419D01*
X2519476Y5641238D01*
X4017873Y5641238D01*
X4168292Y5791657D01*
X4168292Y5892520D01*
X4084675Y5976137D01*
X3998620Y5976137D01*
X3878757Y6096000D01*
X3810000Y6096000D01*
X2235377Y7844612D02*
G01*
X2519527Y7844612D01*
X2694406Y8019491D01*
X2792806Y8386597D02*
G01*
X2905963Y8273440D01*
X2905963Y7628229D01*
X3198240Y7335951D01*
X3616121Y7335951D01*
X5237708Y5714364D01*
X6235065Y5714364D01*
X6616700Y6096000D01*
X4570806Y8132597D02*
G01*
X4927904Y7775498D01*
X4927904Y7417180D01*
X4768240Y7257516D01*
X4714849Y7257516D01*
X3721074Y6549720D02*
G01*
X3429000Y6257645D01*
X3429000Y5969000D01*
X3302000Y5842000D01*
X4064000Y6096000D02*
G01*
X3915460Y6244539D01*
X3787038Y6244539D01*
X3689527Y6342049D01*
X3689527Y6408038D01*
X3788994Y6507505D01*
X3788994Y6585077D01*
X3263366Y7110704D01*
X2556992Y7110704D02*
G01*
X2556992Y6806945D01*
X2298700Y6548653D01*
X4318000Y6096000D02*
G01*
X4035272Y6378727D01*
X3754805Y6378727D01*
X6602806Y8132597D02*
G01*
X6475806Y8259597D01*
X5967806Y8259597D01*
X5840806Y8386597D01*
X5840806Y8386597D02*
G01*
X5717870Y8509533D01*
X5455742Y8509533D01*
X5332806Y8386597D01*
X5332806Y8386597D02*
G01*
X5205806Y8259597D01*
X4951806Y8259597D01*
X4824806Y8132597D01*
X4824806Y8132597D02*
G01*
X4697806Y8259597D01*
X4189806Y8259597D01*
X4062806Y8386597D01*
X4064000Y5842000D02*
G01*
X3952875Y5953125D01*
X3667125Y5953125D01*
X3556000Y5842000D01*
X3300806Y8386597D02*
G01*
X3441700Y8245703D01*
X3441700Y7853222D01*
X3461588Y7833334D01*
X2540000Y5842000D02*
G01*
X2644317Y5737682D01*
X3451682Y5737682D01*
X3556000Y5842000D01*
X2792806Y8132597D02*
G01*
X2762732Y8132597D01*
X2284806Y8386597D02*
G01*
X2411806Y8259597D01*
X2635732Y8259597D01*
X2762732Y8132597D01*
X2762732Y8132597D02*
G01*
X2762732Y6232626D01*
X2667000Y6136894D01*
X2667000Y5969000D01*
X2540000Y5842000D01*
X1282700Y6578600D02*
G01*
X1164158Y6697141D01*
X1164158Y7260158D01*
X1270000Y7366000D01*
D11*
X1282700Y6832600D02*
G01*
X1389608Y6939508D01*
X1389608Y7440904D01*
X1329461Y7501051D01*
X1270000Y7501051D01*
X1270000Y7620000D02*
G01*
X1270000Y7501051D01*
X1776806Y8386597D02*
G01*
X1270000Y7879791D01*
X1270000Y7620000D01*
X3708908Y7325995D02*
G01*
X3708908Y7415911D01*
X3450361Y7674457D01*
D12*
G01*
X1776796Y8132610D03*
D13*
G01*
X1776806Y8386597D03*
G01*
X2030806Y8132597D03*
G01*
X2030806Y8386597D03*
G01*
X2284806Y8132597D03*
G01*
X2284806Y8386597D03*
G01*
X2538806Y8132597D03*
G01*
X2538806Y8386597D03*
G01*
X2792806Y8132597D03*
G01*
X2792806Y8386597D03*
G01*
X3046806Y8132597D03*
G01*
X3046806Y8386597D03*
G01*
X3300806Y8132597D03*
G01*
X3300806Y8386597D03*
G01*
X3554806Y8132597D03*
G01*
X3554806Y8386597D03*
G01*
X3808806Y8132597D03*
G01*
X3808806Y8386597D03*
G01*
X4062806Y8132597D03*
G01*
X4062806Y8386597D03*
G01*
X4316806Y8132597D03*
G01*
X4316806Y8386597D03*
G01*
X4570806Y8132597D03*
G01*
X4570806Y8386597D03*
G01*
X4824806Y8132597D03*
G01*
X4824806Y8386597D03*
G01*
X5078806Y8132597D03*
G01*
X5078806Y8386597D03*
G01*
X5332806Y8132597D03*
G01*
X5332806Y8386597D03*
G01*
X5586806Y8132597D03*
G01*
X5586806Y8386597D03*
G01*
X5840806Y8132597D03*
G01*
X5840806Y8386597D03*
G01*
X6094806Y8132597D03*
G01*
X6094806Y8386597D03*
G01*
X6348806Y8132597D03*
G01*
X6348806Y8386597D03*
G01*
X6602806Y8132597D03*
G01*
X6602806Y8386597D03*
D14*
G01*
X6616700Y5842000D03*
D15*
G01*
X6616700Y6096000D03*
G01*
X6616700Y6350000D03*
G01*
X6616700Y6604000D03*
G01*
X6616700Y6858000D03*
G01*
X6616700Y7112000D03*
G01*
X6616700Y7366000D03*
G01*
X6616700Y7620000D03*
D16*
G01*
X5842000Y7442200D03*
G01*
X5842000Y6832600D03*
D17*
G01*
X1282700Y6832600D03*
G01*
X1282700Y6578600D03*
D18*
G01*
X5382006Y6540474D03*
G01*
X5842000Y6540474D03*
G01*
X5842000Y5840476D03*
G01*
X5382006Y5840476D03*
D19*
G01*
X1270000Y7620000D03*
D20*
G01*
X1270000Y7366000D03*
D16*
G01*
X4318000Y6096000D03*
G01*
X4064000Y6096000D03*
G01*
X3810000Y6096000D03*
G01*
X3556000Y6096000D03*
G01*
X3302000Y6096000D03*
G01*
X3048000Y6096000D03*
G01*
X2794000Y6096000D03*
G01*
X2540000Y6096000D03*
G01*
X2540000Y5842000D03*
G01*
X2794000Y5842000D03*
G01*
X3048000Y5842000D03*
G01*
X3302000Y5842000D03*
G01*
X3556000Y5842000D03*
G01*
X3810000Y5842000D03*
G01*
X4064000Y5842000D03*
G01*
X4318000Y5842000D03*
D21*
G01*
X3450361Y7674457D03*
G01*
X3708908Y7325995D03*
G01*
X3461588Y7833334D03*
G01*
X3754805Y6378727D03*
G01*
X3263366Y7110704D03*
G01*
X2556992Y7110704D03*
G01*
X2298700Y6548653D03*
G01*
X3721074Y6549720D03*
G01*
X4714849Y7257516D03*
G01*
X2235377Y7844612D03*
G01*
X2694406Y8019491D03*
G01*
X2368295Y6364249D03*
G01*
X2884373Y8556980D03*
G01*
X4860569Y7442200D03*
G01*
X3366211Y7842326D03*
G01*
X3134918Y7485887D03*
G01*
X3963644Y7843164D03*
G01*
X4508627Y7533386D03*
G01*
X2428544Y6548043D03*
G01*
X3561664Y6568465D03*
G01*
X3525697Y6449669D03*
M02*
