G04 Layer: BottomSolderMaskLayer*
G04 EasyEDA v6.5.22, 2022-12-03 20:42:59*
G04 c9e85bc281f3473fbd440b6798323965,1ae14fa7f5aa486887b2aa5280da83c0,10*
G04 Gerber Generator version 0.2*
G04 Scale: 100 percent, Rotated: No, Reflected: No *
G04 Dimensions in millimeters *
G04 leading zeros omitted , absolute positions ,4 integer and 5 decimal *
%FSLAX45Y45*%
%MOMM*%

%AMMACRO1*1,1,$1,$2,$3*1,1,$1,$4,$5*1,1,$1,0-$2,0-$3*1,1,$1,0-$4,0-$5*20,1,$1,$2,$3,$4,$5,0*20,1,$1,$4,$5,0-$2,0-$3,0*20,1,$1,0-$2,0-$3,0-$4,0-$5,0*20,1,$1,0-$4,0-$5,$2,$3,0*4,1,4,$2,$3,$4,$5,0-$2,0-$3,0-$4,0-$5,$2,$3,0*%
%ADD10MACRO1,0.2032X-0.8509X-0.8509X-0.8509X0.8509*%
%ADD11C,1.9032*%
%ADD12C,2.0032*%
%ADD13R,2.1336X2.1336*%
%ADD14C,2.1336*%
%ADD15C,1.6256*%
%ADD16C,1.7016*%
%ADD17MACRO1,0.1016X0.762X0.762X0.762X-0.762*%
%ADD18MACRO1,0.1016X-0.7874X0.7874X0.7874X0.7874*%
%ADD19C,1.6764*%

%LPD*%
D10*
G01*
X1776796Y8132610D03*
D11*
G01*
X1776806Y8386597D03*
G01*
X2030806Y8132597D03*
G01*
X2030806Y8386597D03*
G01*
X2284806Y8132597D03*
G01*
X2284806Y8386597D03*
G01*
X2538806Y8132597D03*
G01*
X2538806Y8386597D03*
G01*
X2792806Y8132597D03*
G01*
X2792806Y8386597D03*
G01*
X3046806Y8132597D03*
G01*
X3046806Y8386597D03*
G01*
X3300806Y8132597D03*
G01*
X3300806Y8386597D03*
G01*
X3554806Y8132597D03*
G01*
X3554806Y8386597D03*
G01*
X3808806Y8132597D03*
G01*
X3808806Y8386597D03*
G01*
X4062806Y8132597D03*
G01*
X4062806Y8386597D03*
G01*
X4316806Y8132597D03*
G01*
X4316806Y8386597D03*
G01*
X4570806Y8132597D03*
G01*
X4570806Y8386597D03*
G01*
X4824806Y8132597D03*
G01*
X4824806Y8386597D03*
G01*
X5078806Y8132597D03*
G01*
X5078806Y8386597D03*
G01*
X5332806Y8132597D03*
G01*
X5332806Y8386597D03*
G01*
X5586806Y8132597D03*
G01*
X5586806Y8386597D03*
G01*
X5840806Y8132597D03*
G01*
X5840806Y8386597D03*
G01*
X6094806Y8132597D03*
G01*
X6094806Y8386597D03*
G01*
X6348806Y8132597D03*
G01*
X6348806Y8386597D03*
G01*
X6602806Y8132597D03*
G01*
X6602806Y8386597D03*
D12*
G01*
X5080025Y5839205D03*
G01*
X5080025Y6299200D03*
G01*
X5780024Y6299200D03*
G01*
X5780024Y5839205D03*
D13*
G01*
X6616700Y5842000D03*
D14*
G01*
X6616700Y6096000D03*
G01*
X6616700Y6350000D03*
G01*
X6616700Y6604000D03*
G01*
X6616700Y6858000D03*
G01*
X6616700Y7112000D03*
G01*
X6616700Y7366000D03*
G01*
X6616700Y7620000D03*
D15*
G01*
X5588000Y7467600D03*
G01*
X5588000Y6858000D03*
D16*
G01*
X1282700Y6832600D03*
G01*
X1282700Y6578600D03*
D15*
G01*
X4318000Y6096000D03*
G01*
X4064000Y6096000D03*
G01*
X3810000Y6096000D03*
G01*
X3556000Y6096000D03*
G01*
X3302000Y6096000D03*
G01*
X3048000Y6096000D03*
G01*
X2794000Y6096000D03*
G01*
X2540000Y6096000D03*
D17*
G01*
X2540000Y5842000D03*
D15*
G01*
X2794000Y5842000D03*
G01*
X3048000Y5842000D03*
G01*
X3302000Y5842000D03*
D17*
G01*
X3556000Y5842000D03*
D15*
G01*
X3810000Y5842000D03*
D17*
G01*
X4064000Y5842000D03*
D15*
G01*
X4318000Y5842000D03*
D18*
G01*
X1282700Y7620000D03*
D19*
G01*
X1282700Y7366000D03*
M02*
