G04 Layer: TopSolderMaskLayer*
G04 EasyEDA v6.5.22, 2022-11-17 19:54:28*
G04 58078ef82a4c4da8a465e0a24104bfee,1ae14fa7f5aa486887b2aa5280da83c0,10*
G04 Gerber Generator version 0.2*
G04 Scale: 100 percent, Rotated: No, Reflected: No *
G04 Dimensions in millimeters *
G04 leading zeros omitted , absolute positions ,4 integer and 5 decimal *
%FSLAX45Y45*%
%MOMM*%

%AMMACRO1*1,1,$1,$2,$3*1,1,$1,$4,$5*1,1,$1,0-$2,0-$3*1,1,$1,0-$4,0-$5*20,1,$1,$2,$3,$4,$5,0*20,1,$1,$4,$5,0-$2,0-$3,0*20,1,$1,0-$2,0-$3,0-$4,0-$5,0*20,1,$1,0-$4,0-$5,$2,$3,0*4,1,4,$2,$3,$4,$5,0-$2,0-$3,0-$4,0-$5,$2,$3,0*%
%ADD10C,1.8796*%
%ADD11MACRO1,0.1016X0.9398X0.9398X0.9398X-0.9398*%
%ADD12MACRO1,0.1016X-0.65X-0.95X-0.65X0.95*%
%ADD13C,2.1336*%
%ADD14MACRO1,0.1016X-1.016X1.016X1.016X1.016*%
%ADD15MACRO1,0.1016X0.7874X0.7874X0.7874X-0.7874*%
%ADD16C,1.6764*%

%LPD*%
D10*
G01*
X762000Y-3048000D03*
G01*
X508000Y-3048000D03*
G01*
X762000Y-2794000D03*
G01*
X508000Y-2794000D03*
G01*
X762000Y-2540000D03*
G01*
X508000Y-2540000D03*
G01*
X762000Y-2286000D03*
G01*
X508000Y-2286000D03*
G01*
X762000Y-2032000D03*
G01*
X508000Y-2032000D03*
G01*
X762000Y-1778000D03*
G01*
X508000Y-1778000D03*
G01*
X762000Y-1524000D03*
G01*
X508000Y-1524000D03*
G01*
X762000Y-1270000D03*
G01*
X508000Y-1270000D03*
D11*
G01*
X2527300Y-838200D03*
G01*
X2781300Y-838200D03*
G01*
X2527300Y-1092200D03*
G01*
X2781300Y-1092200D03*
G01*
X2527300Y-1346200D03*
G01*
X2781300Y-1346200D03*
G01*
X2527300Y-1600200D03*
G01*
X2781300Y-1600200D03*
G01*
X2527300Y-1854200D03*
G01*
X2781300Y-1854200D03*
G01*
X2527300Y-2108200D03*
G01*
X2781300Y-2108200D03*
G01*
X2527300Y-2362200D03*
G01*
X2781300Y-2362200D03*
G01*
X2527300Y-2616200D03*
G01*
X2781300Y-2616200D03*
G01*
X2527300Y-2870200D03*
G01*
X2781300Y-2870200D03*
G01*
X2527300Y-3124200D03*
G01*
X2781300Y-3124200D03*
G01*
X2527300Y-3378200D03*
G01*
X2781300Y-3378200D03*
G01*
X2527300Y-3632200D03*
G01*
X2781300Y-3632200D03*
G01*
X2527300Y-3886200D03*
G01*
X2781300Y-3886200D03*
G01*
X2527300Y-4140200D03*
G01*
X2781300Y-4140200D03*
G01*
X2527300Y-4394200D03*
G01*
X2781300Y-4394200D03*
G01*
X2527300Y-4648200D03*
G01*
X2781300Y-4648200D03*
G01*
X2527300Y-4902200D03*
G01*
X2781300Y-4902200D03*
G01*
X2527300Y-5156200D03*
G01*
X2781300Y-5156200D03*
G01*
X2527300Y-5410200D03*
G01*
X2781300Y-5410200D03*
G01*
X2527300Y-5664200D03*
G01*
X2781300Y-5664200D03*
D12*
G01*
X346506Y-4839599D03*
G01*
X346506Y-3999600D03*
G01*
X796493Y-4839599D03*
G01*
X796493Y-3999600D03*
D13*
G01*
X1778000Y-3048000D03*
G01*
X1778000Y-4572000D03*
D14*
G01*
X254000Y-5588000D03*
D13*
G01*
X508000Y-5588000D03*
G01*
X762000Y-5588000D03*
G01*
X1016000Y-5588000D03*
G01*
X1270000Y-5588000D03*
G01*
X1524000Y-5588000D03*
G01*
X1778000Y-5588000D03*
G01*
X2032000Y-5588000D03*
D15*
G01*
X1790700Y-508000D03*
D16*
G01*
X1536700Y-508000D03*
M02*
