G04 Layer: BottomLayer*
G04 EasyEDA v6.5.22, 2022-11-17 19:54:28*
G04 58078ef82a4c4da8a465e0a24104bfee,1ae14fa7f5aa486887b2aa5280da83c0,10*
G04 Gerber Generator version 0.2*
G04 Scale: 100 percent, Rotated: No, Reflected: No *
G04 Dimensions in millimeters *
G04 leading zeros omitted , absolute positions ,4 integer and 5 decimal *
%FSLAX45Y45*%
%MOMM*%

%ADD10C,0.2540*%
%ADD11C,1.7780*%
%ADD12R,1.8796X1.8796*%
%ADD13C,2.0320*%
%ADD14R,2.0320X2.0320*%
%ADD15R,1.5748X1.5748*%
%ADD16C,1.5748*%
%ADD17C,0.6100*%

%LPD*%
D10*
X508000Y-3048000D02*
G01*
X335965Y-2875965D01*
X335965Y-2280285D01*
X467258Y-2148992D01*
X560323Y-2148992D01*
X635000Y-2074316D01*
X635000Y-1969033D01*
X695070Y-1908962D01*
X1885162Y-1908962D01*
X2338400Y-2362200D01*
X2527300Y-2362200D01*
X2527300Y-3632200D02*
G01*
X1346200Y-3632200D01*
X762000Y-3048000D01*
X2659405Y-3886200D02*
G01*
X2659405Y-3764305D01*
X2649397Y-3754297D01*
X1301343Y-3754297D01*
X635000Y-3087954D01*
X635000Y-2921000D01*
X762000Y-2794000D01*
X2781300Y-3886200D02*
G01*
X2659405Y-3886200D01*
X2659405Y-1346200D02*
G01*
X2659405Y-1224305D01*
X2659227Y-1224127D01*
X2252827Y-1224127D01*
X1536700Y-508000D01*
X2781300Y-1346200D02*
G01*
X2659405Y-1346200D01*
X1536700Y-508000D02*
G01*
X1270000Y-508000D01*
X508000Y-1270000D01*
X508000Y-1270000D02*
G01*
X388112Y-1389887D01*
X388112Y-1658112D01*
X508000Y-1778000D01*
X508000Y-2286000D02*
G01*
X388112Y-2405887D01*
X388112Y-2674112D01*
X508000Y-2794000D01*
X2659405Y-3632200D02*
G01*
X2659405Y-3510305D01*
X2659227Y-3510127D01*
X1732127Y-3510127D01*
X762000Y-2540000D01*
X2781300Y-3632200D02*
G01*
X2659405Y-3632200D01*
X2527300Y-3378200D02*
G01*
X1887829Y-3378200D01*
X922629Y-2413000D01*
X635000Y-2413000D01*
X508000Y-2540000D01*
X2527300Y-3002305D02*
G01*
X2649194Y-3002305D01*
X2649372Y-3002127D01*
X2649372Y-2755519D01*
X2641981Y-2748127D01*
X1690801Y-2748127D01*
X1228674Y-2286000D01*
X762000Y-2286000D01*
X2527300Y-3124200D02*
G01*
X2527300Y-3002305D01*
X2405405Y-2616200D02*
G01*
X1821205Y-2032000D01*
X762000Y-2032000D01*
X2527300Y-2616200D02*
G01*
X2405405Y-2616200D01*
X2781300Y-2616200D02*
G01*
X2781300Y-2494305D01*
X2781300Y-2494305D02*
G01*
X2659405Y-2494305D01*
X2654300Y-2489200D01*
X2654300Y-2245207D01*
X2646806Y-2237714D01*
X2412238Y-2237714D01*
X1835530Y-1661007D01*
X698322Y-1661007D01*
X645007Y-1714322D01*
X645007Y-1894992D01*
X508000Y-2032000D01*
X2527300Y-2108200D02*
G01*
X2363571Y-2108200D01*
X1779371Y-1524000D01*
X762000Y-1524000D01*
X2405405Y-1600200D02*
G01*
X1950567Y-1145362D01*
X715746Y-1145362D01*
X635000Y-1226108D01*
X635000Y-1397000D01*
X508000Y-1524000D01*
X2527300Y-1600200D02*
G01*
X2405405Y-1600200D01*
X2659405Y-2108200D02*
G01*
X2659405Y-1986305D01*
X2659227Y-1986127D01*
X2412949Y-1986127D01*
X1696821Y-1270000D01*
X762000Y-1270000D01*
X2781300Y-2108200D02*
G01*
X2659405Y-2108200D01*
X1790700Y-508000D02*
G01*
X2451100Y-508000D01*
X2659405Y-716305D01*
X2659405Y-838200D01*
X2781300Y-838200D02*
G01*
X2659405Y-838200D01*
X1270000Y-5588000D02*
G01*
X1831263Y-5026736D01*
X2641981Y-5026736D01*
X2649372Y-5019344D01*
X2649372Y-4780127D01*
X2659405Y-4770094D01*
X2781300Y-4770094D01*
X2781300Y-4648200D02*
G01*
X2781300Y-4770094D01*
X1016000Y-5588000D02*
G01*
X1701800Y-4902200D01*
X2527300Y-4902200D01*
X1778000Y-3048000D02*
G01*
X1955800Y-2870200D01*
X2527300Y-2870200D01*
X762000Y-5588000D02*
G01*
X387451Y-5213451D01*
X387451Y-4850256D01*
X1219580Y-4018127D01*
X2883661Y-4018127D01*
X2952673Y-3949115D01*
X2952673Y-1771573D01*
X2903194Y-1722094D01*
X2781300Y-1722094D01*
X2781300Y-1600200D02*
G01*
X2781300Y-1722094D01*
X2405405Y-4648200D02*
G01*
X2291765Y-4761839D01*
X566978Y-4761839D01*
X459994Y-4868824D01*
X2527300Y-4648200D02*
G01*
X2405405Y-4648200D01*
X508000Y-5588000D02*
G01*
X648157Y-5728157D01*
X2097430Y-5728157D01*
X2288387Y-5537200D01*
X2654300Y-5537200D01*
X2044700Y-1953031D02*
G01*
X1869668Y-1778000D01*
X762000Y-1778000D01*
D11*
G01*
X762000Y-3048000D03*
G01*
X508000Y-3048000D03*
G01*
X762000Y-2794000D03*
G01*
X508000Y-2794000D03*
G01*
X762000Y-2540000D03*
G01*
X508000Y-2540000D03*
G01*
X762000Y-2286000D03*
G01*
X508000Y-2286000D03*
G01*
X762000Y-2032000D03*
G01*
X508000Y-2032000D03*
G01*
X762000Y-1778000D03*
G01*
X508000Y-1778000D03*
G01*
X762000Y-1524000D03*
G01*
X508000Y-1524000D03*
G01*
X762000Y-1270000D03*
G01*
X508000Y-1270000D03*
D12*
G01*
X2527300Y-838200D03*
G01*
X2781300Y-838200D03*
G01*
X2527300Y-1092200D03*
G01*
X2781300Y-1092200D03*
G01*
X2527300Y-1346200D03*
G01*
X2781300Y-1346200D03*
G01*
X2527300Y-1600200D03*
G01*
X2781300Y-1600200D03*
G01*
X2527300Y-1854200D03*
G01*
X2781300Y-1854200D03*
G01*
X2527300Y-2108200D03*
G01*
X2781300Y-2108200D03*
G01*
X2527300Y-2362200D03*
G01*
X2781300Y-2362200D03*
G01*
X2527300Y-2616200D03*
G01*
X2781300Y-2616200D03*
G01*
X2527300Y-2870200D03*
G01*
X2781300Y-2870200D03*
G01*
X2527300Y-3124200D03*
G01*
X2781300Y-3124200D03*
G01*
X2527300Y-3378200D03*
G01*
X2781300Y-3378200D03*
G01*
X2527300Y-3632200D03*
G01*
X2781300Y-3632200D03*
G01*
X2527300Y-3886200D03*
G01*
X2781300Y-3886200D03*
G01*
X2527300Y-4140200D03*
G01*
X2781300Y-4140200D03*
G01*
X2527300Y-4394200D03*
G01*
X2781300Y-4394200D03*
G01*
X2527300Y-4648200D03*
G01*
X2781300Y-4648200D03*
G01*
X2527300Y-4902200D03*
G01*
X2781300Y-4902200D03*
G01*
X2527300Y-5156200D03*
G01*
X2781300Y-5156200D03*
G01*
X2527300Y-5410200D03*
G01*
X2781300Y-5410200D03*
G01*
X2527300Y-5664200D03*
G01*
X2781300Y-5664200D03*
D13*
G01*
X1778000Y-3048000D03*
G01*
X1778000Y-4572000D03*
D14*
G01*
X254000Y-5588000D03*
D13*
G01*
X508000Y-5588000D03*
G01*
X762000Y-5588000D03*
G01*
X1016000Y-5588000D03*
G01*
X1270000Y-5588000D03*
G01*
X1524000Y-5588000D03*
G01*
X1778000Y-5588000D03*
G01*
X2032000Y-5588000D03*
D15*
G01*
X1790700Y-508000D03*
D16*
G01*
X1536700Y-508000D03*
D17*
G01*
X2044700Y-1953031D03*
G01*
X2654300Y-5537200D03*
G01*
X459994Y-4868824D03*
M02*
