G04 Layer: TopLayer*
G04 EasyEDA v6.5.22, 2022-11-17 19:54:28*
G04 58078ef82a4c4da8a465e0a24104bfee,1ae14fa7f5aa486887b2aa5280da83c0,10*
G04 Gerber Generator version 0.2*
G04 Scale: 100 percent, Rotated: No, Reflected: No *
G04 Dimensions in millimeters *
G04 leading zeros omitted , absolute positions ,4 integer and 5 decimal *
%FSLAX45Y45*%
%MOMM*%

%ADD10C,0.2540*%
%ADD11R,1.3000X1.9000*%
%ADD12C,1.7780*%
%ADD13R,1.8796X1.8796*%
%ADD14C,2.0320*%
%ADD15R,2.0320X2.0320*%
%ADD16R,1.5748X1.5748*%
%ADD17C,1.5748*%
%ADD18C,0.6100*%

%LPD*%
D10*
X1778000Y-4572000D02*
G01*
X1461795Y-4572000D01*
X889406Y-3999611D01*
X796493Y-3999611D02*
G01*
X889406Y-3999611D01*
X254000Y-5458485D02*
G01*
X651611Y-5060873D01*
X651611Y-4051579D01*
X703579Y-3999611D01*
X254000Y-5588000D02*
G01*
X254000Y-5458485D01*
X796493Y-3999611D02*
G01*
X703579Y-3999611D01*
X508000Y-1778000D02*
G01*
X635000Y-1905000D01*
X635000Y-2159000D01*
X508000Y-2286000D01*
X2527300Y-4770094D02*
G01*
X2405405Y-4770094D01*
X2032000Y-5143500D01*
X2032000Y-5588000D01*
X2527300Y-4648200D02*
G01*
X2527300Y-4770094D01*
X346506Y-4839588D02*
G01*
X439420Y-4839588D01*
X459994Y-4868824D02*
G01*
X439420Y-4848250D01*
X439420Y-4839588D01*
X2654300Y-5537200D02*
G01*
X2654300Y-1981200D01*
X2659405Y-1976094D01*
X2781300Y-1976094D01*
X2781300Y-1854200D02*
G01*
X2781300Y-1976094D01*
X2781300Y-2870200D02*
G01*
X2781300Y-2748305D01*
X2781300Y-2748305D02*
G01*
X2903194Y-2748305D01*
X2903372Y-2748127D01*
X2903372Y-1739519D01*
X2895981Y-1732127D01*
X2265603Y-1732127D01*
X2044700Y-1953031D01*
D11*
G01*
X346506Y-4839588D03*
G01*
X346506Y-3999611D03*
G01*
X796493Y-4839588D03*
G01*
X796493Y-3999611D03*
D12*
G01*
X762000Y-3048000D03*
G01*
X508000Y-3048000D03*
G01*
X762000Y-2794000D03*
G01*
X508000Y-2794000D03*
G01*
X762000Y-2540000D03*
G01*
X508000Y-2540000D03*
G01*
X762000Y-2286000D03*
G01*
X508000Y-2286000D03*
G01*
X762000Y-2032000D03*
G01*
X508000Y-2032000D03*
G01*
X762000Y-1778000D03*
G01*
X508000Y-1778000D03*
G01*
X762000Y-1524000D03*
G01*
X508000Y-1524000D03*
G01*
X762000Y-1270000D03*
G01*
X508000Y-1270000D03*
D13*
G01*
X2527300Y-838200D03*
G01*
X2781300Y-838200D03*
G01*
X2527300Y-1092200D03*
G01*
X2781300Y-1092200D03*
G01*
X2527300Y-1346200D03*
G01*
X2781300Y-1346200D03*
G01*
X2527300Y-1600200D03*
G01*
X2781300Y-1600200D03*
G01*
X2527300Y-1854200D03*
G01*
X2781300Y-1854200D03*
G01*
X2527300Y-2108200D03*
G01*
X2781300Y-2108200D03*
G01*
X2527300Y-2362200D03*
G01*
X2781300Y-2362200D03*
G01*
X2527300Y-2616200D03*
G01*
X2781300Y-2616200D03*
G01*
X2527300Y-2870200D03*
G01*
X2781300Y-2870200D03*
G01*
X2527300Y-3124200D03*
G01*
X2781300Y-3124200D03*
G01*
X2527300Y-3378200D03*
G01*
X2781300Y-3378200D03*
G01*
X2527300Y-3632200D03*
G01*
X2781300Y-3632200D03*
G01*
X2527300Y-3886200D03*
G01*
X2781300Y-3886200D03*
G01*
X2527300Y-4140200D03*
G01*
X2781300Y-4140200D03*
G01*
X2527300Y-4394200D03*
G01*
X2781300Y-4394200D03*
G01*
X2527300Y-4648200D03*
G01*
X2781300Y-4648200D03*
G01*
X2527300Y-4902200D03*
G01*
X2781300Y-4902200D03*
G01*
X2527300Y-5156200D03*
G01*
X2781300Y-5156200D03*
G01*
X2527300Y-5410200D03*
G01*
X2781300Y-5410200D03*
G01*
X2527300Y-5664200D03*
G01*
X2781300Y-5664200D03*
D14*
G01*
X1778000Y-3048000D03*
G01*
X1778000Y-4572000D03*
D15*
G01*
X254000Y-5588000D03*
D14*
G01*
X508000Y-5588000D03*
G01*
X762000Y-5588000D03*
G01*
X1016000Y-5588000D03*
G01*
X1270000Y-5588000D03*
G01*
X1524000Y-5588000D03*
G01*
X1778000Y-5588000D03*
G01*
X2032000Y-5588000D03*
D16*
G01*
X1790700Y-508000D03*
D17*
G01*
X1536700Y-508000D03*
D18*
G01*
X2044700Y-1953031D03*
G01*
X2654300Y-5537200D03*
G01*
X459994Y-4868824D03*
M02*
