G04 Layer: TopLayer*
G04 EasyEDA v6.5.22, 2022-12-20 18:45:55*
G04 f003bedfd4814326965babdaf269f31e,1ae14fa7f5aa486887b2aa5280da83c0,10*
G04 Gerber Generator version 0.2*
G04 Scale: 100 percent, Rotated: No, Reflected: No *
G04 Dimensions in millimeters *
G04 leading zeros omitted , absolute positions ,4 integer and 5 decimal *
%FSLAX45Y45*%
%MOMM*%

%AMMACRO1*21,1,$1,$2,0,0,$3*%
%ADD10C,0.2540*%
%ADD11C,0.5000*%
%ADD12R,0.6604X2.0320*%
%ADD13MACRO1,1.7018X1.7018X90.0000*%
%ADD14C,1.7000*%
%ADD15R,2.0320X2.0320*%
%ADD16C,2.0320*%
%ADD17C,1.5240*%
%ADD18C,1.6000*%
%ADD19C,1.8000*%
%ADD20R,1.5748X1.5748*%
%ADD21C,1.5748*%
%ADD22C,0.6100*%
%ADD23C,0.0126*%

%LPD*%
G36*
X2617317Y8284260D02*
G01*
X2613406Y8285073D01*
X2610104Y8287308D01*
X2607919Y8290610D01*
X2607157Y8294573D01*
X2607970Y8298434D01*
X2610256Y8301736D01*
X2620873Y8312048D01*
X2629763Y8323173D01*
X2637129Y8335314D01*
X2642870Y8348319D01*
X2646934Y8361934D01*
X2649169Y8375954D01*
X2649626Y8390128D01*
X2648254Y8404301D01*
X2645105Y8418169D01*
X2641955Y8426805D01*
X2641295Y8430564D01*
X2642158Y8434324D01*
X2644292Y8437473D01*
X2722219Y8515400D01*
X2725521Y8517585D01*
X2729382Y8518347D01*
X2839364Y8518347D01*
X2843225Y8517585D01*
X2846527Y8515400D01*
X2848152Y8513775D01*
X2856179Y8508187D01*
X2865069Y8504021D01*
X2874568Y8501481D01*
X2884373Y8500618D01*
X2894177Y8501481D01*
X2903677Y8504021D01*
X2912567Y8508187D01*
X2920593Y8513775D01*
X2927553Y8520734D01*
X2933192Y8528812D01*
X2937357Y8537702D01*
X2939897Y8547201D01*
X2940761Y8556955D01*
X2939897Y8566759D01*
X2938526Y8571890D01*
X2938221Y8575598D01*
X2939288Y8579154D01*
X2941523Y8582101D01*
X2944672Y8584031D01*
X2948330Y8584692D01*
X3003702Y8584692D01*
X3007563Y8583930D01*
X3010865Y8581694D01*
X3013100Y8578443D01*
X3013862Y8574532D01*
X3013100Y8570620D01*
X3010865Y8567369D01*
X2896209Y8452662D01*
X2892501Y8450326D01*
X2888132Y8449716D01*
X2883916Y8451037D01*
X2880664Y8454034D01*
X2879496Y8455710D01*
X2869946Y8466277D01*
X2859125Y8475472D01*
X2847238Y8483193D01*
X2834436Y8489391D01*
X2820924Y8493861D01*
X2807004Y8496554D01*
X2792831Y8497468D01*
X2778607Y8496554D01*
X2764688Y8493861D01*
X2751175Y8489391D01*
X2738374Y8483193D01*
X2726486Y8475472D01*
X2715666Y8466277D01*
X2706116Y8455710D01*
X2697988Y8444077D01*
X2691384Y8431479D01*
X2686507Y8418169D01*
X2683357Y8404301D01*
X2681986Y8390128D01*
X2682443Y8375954D01*
X2684678Y8361934D01*
X2688742Y8348319D01*
X2694482Y8335314D01*
X2701848Y8323173D01*
X2710738Y8312048D01*
X2721356Y8301736D01*
X2723642Y8298434D01*
X2724454Y8294573D01*
X2723692Y8290610D01*
X2721508Y8287308D01*
X2718206Y8285073D01*
X2714294Y8284260D01*
G37*

%LPD*%
G36*
X3730040Y8214512D02*
G01*
X3726332Y8215426D01*
X3723182Y8217662D01*
X3721150Y8220913D01*
X3720439Y8224672D01*
X3720439Y8259114D01*
X3719626Y8267141D01*
X3717442Y8274354D01*
X3713886Y8281009D01*
X3708755Y8287258D01*
X3660394Y8335619D01*
X3658158Y8339023D01*
X3657396Y8342985D01*
X3662934Y8361934D01*
X3665169Y8375954D01*
X3665626Y8390128D01*
X3664254Y8404301D01*
X3661105Y8418169D01*
X3656228Y8431479D01*
X3649624Y8444077D01*
X3641496Y8455710D01*
X3631946Y8466277D01*
X3621125Y8475472D01*
X3609238Y8483193D01*
X3596436Y8489391D01*
X3582924Y8493861D01*
X3575050Y8495385D01*
X3571138Y8497062D01*
X3568242Y8500160D01*
X3566871Y8504224D01*
X3567277Y8508441D01*
X3569411Y8512149D01*
X3572814Y8514638D01*
X3576980Y8515502D01*
X3786632Y8515502D01*
X3790797Y8514638D01*
X3794201Y8512149D01*
X3796334Y8508441D01*
X3796741Y8504224D01*
X3795369Y8500160D01*
X3792474Y8497062D01*
X3788562Y8495385D01*
X3780688Y8493861D01*
X3767175Y8489391D01*
X3754374Y8483193D01*
X3742486Y8475472D01*
X3731666Y8466277D01*
X3722115Y8455710D01*
X3713987Y8444077D01*
X3707384Y8431479D01*
X3702507Y8418169D01*
X3699357Y8404301D01*
X3697986Y8390128D01*
X3698443Y8375954D01*
X3700678Y8361934D01*
X3704742Y8348319D01*
X3710482Y8335314D01*
X3717848Y8323173D01*
X3726738Y8312048D01*
X3736949Y8302142D01*
X3748328Y8293658D01*
X3760673Y8286699D01*
X3773881Y8281365D01*
X3787597Y8277758D01*
X3801719Y8275929D01*
X3815892Y8275929D01*
X3830015Y8277758D01*
X3843731Y8281365D01*
X3848658Y8283346D01*
X3852570Y8284108D01*
X3856431Y8283295D01*
X3859682Y8281111D01*
X3894226Y8246567D01*
X3896410Y8243265D01*
X3897223Y8239404D01*
X3897223Y8224672D01*
X3896461Y8220913D01*
X3894429Y8217662D01*
X3891279Y8215426D01*
X3887571Y8214512D01*
X3883761Y8215020D01*
X3880459Y8216950D01*
X3875125Y8221472D01*
X3863238Y8229193D01*
X3850436Y8235391D01*
X3836924Y8239861D01*
X3823004Y8242553D01*
X3808831Y8243468D01*
X3794607Y8242553D01*
X3780688Y8239861D01*
X3767175Y8235391D01*
X3754374Y8229193D01*
X3742486Y8221472D01*
X3737152Y8216950D01*
X3733850Y8215020D01*
G37*

%LPD*%
G36*
X3984040Y8214512D02*
G01*
X3980332Y8215426D01*
X3977182Y8217662D01*
X3975150Y8220913D01*
X3974439Y8224672D01*
X3974439Y8259114D01*
X3973626Y8267141D01*
X3971442Y8274354D01*
X3967886Y8281009D01*
X3962755Y8287258D01*
X3914394Y8335619D01*
X3912158Y8339023D01*
X3911396Y8342985D01*
X3916934Y8361934D01*
X3919169Y8375954D01*
X3919626Y8390128D01*
X3918254Y8404301D01*
X3915105Y8418169D01*
X3910228Y8431479D01*
X3903624Y8444077D01*
X3895496Y8455710D01*
X3885946Y8466277D01*
X3875125Y8475472D01*
X3863238Y8483193D01*
X3850436Y8489391D01*
X3836924Y8493861D01*
X3829050Y8495385D01*
X3825138Y8497062D01*
X3822242Y8500160D01*
X3820871Y8504224D01*
X3821277Y8508441D01*
X3823411Y8512149D01*
X3826814Y8514638D01*
X3830980Y8515502D01*
X4294632Y8515502D01*
X4298797Y8514638D01*
X4302201Y8512149D01*
X4304334Y8508441D01*
X4304741Y8504224D01*
X4303369Y8500160D01*
X4300474Y8497062D01*
X4296562Y8495385D01*
X4288688Y8493861D01*
X4275175Y8489391D01*
X4262374Y8483193D01*
X4250486Y8475472D01*
X4239666Y8466277D01*
X4230116Y8455710D01*
X4221988Y8444077D01*
X4215384Y8431479D01*
X4210507Y8418169D01*
X4207357Y8404301D01*
X4205986Y8390128D01*
X4206443Y8375954D01*
X4208678Y8361934D01*
X4214215Y8342985D01*
X4213453Y8339023D01*
X4211218Y8335619D01*
X4162856Y8287258D01*
X4157726Y8281009D01*
X4154170Y8274354D01*
X4151985Y8267141D01*
X4151223Y8259114D01*
X4151223Y8224672D01*
X4150461Y8220913D01*
X4148429Y8217662D01*
X4145279Y8215426D01*
X4141571Y8214512D01*
X4137761Y8215020D01*
X4134459Y8216950D01*
X4129125Y8221472D01*
X4117238Y8229193D01*
X4104436Y8235391D01*
X4090924Y8239861D01*
X4077004Y8242553D01*
X4062831Y8243468D01*
X4048607Y8242553D01*
X4034688Y8239861D01*
X4021175Y8235391D01*
X4008374Y8229193D01*
X3996486Y8221472D01*
X3991152Y8216950D01*
X3987850Y8215020D01*
G37*

%LPC*%
G36*
X4111650Y8287105D02*
G01*
X4123283Y8293658D01*
X4134662Y8302142D01*
X4144873Y8312048D01*
X4153763Y8323173D01*
X4161129Y8335314D01*
X4162196Y8337753D01*
X4111650Y8337753D01*
G37*
G36*
X4013962Y8287105D02*
G01*
X4013962Y8337753D01*
X3963415Y8337753D01*
X3964482Y8335314D01*
X3971848Y8323173D01*
X3980738Y8312048D01*
X3990949Y8302142D01*
X4002328Y8293658D01*
G37*
G36*
X3963466Y8435441D02*
G01*
X4013962Y8435441D01*
X4013962Y8485886D01*
X4008374Y8483193D01*
X3996486Y8475472D01*
X3985666Y8466277D01*
X3976115Y8455710D01*
X3967987Y8444077D01*
G37*
G36*
X4111650Y8435441D02*
G01*
X4162145Y8435441D01*
X4157624Y8444077D01*
X4149496Y8455710D01*
X4139946Y8466277D01*
X4129125Y8475472D01*
X4117238Y8483193D01*
X4111650Y8485886D01*
G37*

%LPD*%
G36*
X4141063Y7950250D02*
G01*
X4137151Y7951012D01*
X4133850Y7953248D01*
X4080154Y8006943D01*
X4077868Y8010499D01*
X4077208Y8014665D01*
X4078274Y8018780D01*
X4080967Y8022031D01*
X4084777Y8023961D01*
X4097731Y8027365D01*
X4110939Y8032699D01*
X4123283Y8039658D01*
X4134967Y8048345D01*
X4139031Y8050174D01*
X4143501Y8050072D01*
X4147464Y8048091D01*
X4150207Y8044586D01*
X4151223Y8040217D01*
X4151223Y7960410D01*
X4150410Y7956550D01*
X4148226Y7953248D01*
X4144924Y7951012D01*
G37*

%LPD*%
G36*
X3714089Y7940598D02*
G01*
X3701592Y7941716D01*
X2748127Y7941716D01*
X2744266Y7942529D01*
X2740964Y7944713D01*
X2726690Y7958988D01*
X2724302Y7962696D01*
X2723743Y7967065D01*
X2725064Y7971231D01*
X2728061Y7974482D01*
X2732227Y7977886D01*
X2735529Y7980121D01*
X2739440Y7980883D01*
X3187192Y7980883D01*
X3195218Y7981696D01*
X3202432Y7983880D01*
X3209137Y7987436D01*
X3215335Y7992567D01*
X3249930Y8027111D01*
X3253181Y8029295D01*
X3257042Y8030108D01*
X3260953Y8029346D01*
X3265881Y8027365D01*
X3279597Y8023758D01*
X3293719Y8021929D01*
X3307892Y8021929D01*
X3322015Y8023758D01*
X3335731Y8027365D01*
X3348939Y8032699D01*
X3361283Y8039658D01*
X3372662Y8048142D01*
X3382873Y8058048D01*
X3391763Y8069173D01*
X3399129Y8081314D01*
X3404870Y8094319D01*
X3408934Y8107934D01*
X3411169Y8121954D01*
X3411626Y8136128D01*
X3410254Y8150301D01*
X3407105Y8164169D01*
X3402228Y8177479D01*
X3395624Y8190077D01*
X3387496Y8201710D01*
X3377946Y8212277D01*
X3367125Y8221472D01*
X3355238Y8229193D01*
X3342436Y8235391D01*
X3328924Y8239861D01*
X3315004Y8242553D01*
X3300831Y8243468D01*
X3286607Y8242553D01*
X3272688Y8239861D01*
X3259175Y8235391D01*
X3246374Y8229193D01*
X3234486Y8221472D01*
X3223666Y8212277D01*
X3214116Y8201710D01*
X3205988Y8190077D01*
X3199384Y8177479D01*
X3194507Y8164169D01*
X3191357Y8150301D01*
X3189986Y8136128D01*
X3190443Y8121954D01*
X3192678Y8107934D01*
X3198215Y8088985D01*
X3197453Y8085023D01*
X3195218Y8081619D01*
X3174695Y8061096D01*
X3171393Y8058861D01*
X3167481Y8058099D01*
X3149092Y8058099D01*
X3144926Y8059013D01*
X3141472Y8061502D01*
X3139389Y8065262D01*
X3138982Y8069478D01*
X3140405Y8073542D01*
X3145129Y8081314D01*
X3150870Y8094319D01*
X3154934Y8107934D01*
X3157169Y8121954D01*
X3157626Y8136128D01*
X3156254Y8150301D01*
X3153105Y8164169D01*
X3148228Y8177479D01*
X3141624Y8190077D01*
X3133496Y8201710D01*
X3123946Y8212277D01*
X3113125Y8221472D01*
X3101238Y8229193D01*
X3088436Y8235391D01*
X3074924Y8239861D01*
X3061004Y8242553D01*
X3046831Y8243468D01*
X3032607Y8242553D01*
X3018688Y8239861D01*
X3005175Y8235391D01*
X2992374Y8229193D01*
X2980486Y8221472D01*
X2969666Y8212277D01*
X2960116Y8201710D01*
X2951988Y8190077D01*
X2945384Y8177479D01*
X2940507Y8164169D01*
X2937357Y8150301D01*
X2935986Y8136128D01*
X2936443Y8121954D01*
X2938678Y8107934D01*
X2942742Y8094319D01*
X2948482Y8081314D01*
X2953207Y8073542D01*
X2954629Y8069478D01*
X2954223Y8065262D01*
X2952140Y8061502D01*
X2948686Y8059013D01*
X2944520Y8058099D01*
X2895092Y8058099D01*
X2890926Y8059013D01*
X2887472Y8061502D01*
X2885389Y8065262D01*
X2884982Y8069478D01*
X2886405Y8073542D01*
X2891129Y8081314D01*
X2892196Y8083753D01*
X2841650Y8083753D01*
X2841650Y8068259D01*
X2840888Y8064347D01*
X2838704Y8061096D01*
X2835402Y8058861D01*
X2831490Y8058099D01*
X2754122Y8058099D01*
X2750210Y8058861D01*
X2746908Y8061096D01*
X2744724Y8064347D01*
X2743962Y8068259D01*
X2743962Y8083753D01*
X2691790Y8083753D01*
X2691028Y8080400D01*
X2688336Y8076946D01*
X2684475Y8074964D01*
X2675128Y8072475D01*
X2666238Y8068309D01*
X2658160Y8062671D01*
X2651201Y8055711D01*
X2649423Y8053120D01*
X2646172Y8050174D01*
X2641955Y8048853D01*
X2637586Y8049412D01*
X2633878Y8051749D01*
X2630322Y8055356D01*
X2628188Y8058403D01*
X2627325Y8061959D01*
X2627782Y8065617D01*
X2637129Y8081314D01*
X2642870Y8094319D01*
X2646934Y8107934D01*
X2649169Y8121954D01*
X2649626Y8136128D01*
X2648254Y8150301D01*
X2645105Y8164169D01*
X2640228Y8177479D01*
X2633624Y8190077D01*
X2631236Y8195157D01*
X2631440Y8199526D01*
X2633472Y8203438D01*
X2636977Y8206130D01*
X2641244Y8207044D01*
X2690368Y8207044D01*
X2694635Y8206130D01*
X2698140Y8203438D01*
X2700172Y8199526D01*
X2700375Y8195157D01*
X2697988Y8190077D01*
X2693466Y8181441D01*
X2743962Y8181441D01*
X2743962Y8196884D01*
X2744724Y8200796D01*
X2746908Y8204098D01*
X2750210Y8206282D01*
X2754122Y8207044D01*
X2815640Y8207044D01*
X2823667Y8207857D01*
X2828544Y8209330D01*
X2832303Y8209737D01*
X2835910Y8208772D01*
X2838958Y8206536D01*
X2840939Y8203336D01*
X2841650Y8199628D01*
X2841650Y8181441D01*
X2892145Y8181441D01*
X2887624Y8190077D01*
X2879496Y8201710D01*
X2869946Y8212277D01*
X2860700Y8220100D01*
X2858160Y8223402D01*
X2857144Y8227466D01*
X2857855Y8231530D01*
X2860090Y8235035D01*
X2944418Y8319363D01*
X2947974Y8321649D01*
X2952191Y8322309D01*
X2956306Y8321192D01*
X2959557Y8318500D01*
X2964738Y8312048D01*
X2974949Y8302142D01*
X2986328Y8293658D01*
X2998673Y8286699D01*
X3011881Y8281365D01*
X3025597Y8277758D01*
X3039719Y8275929D01*
X3053892Y8275929D01*
X3068015Y8277758D01*
X3081731Y8281365D01*
X3094939Y8286699D01*
X3107283Y8293658D01*
X3118662Y8302142D01*
X3128873Y8312048D01*
X3137763Y8323173D01*
X3145129Y8335314D01*
X3150870Y8348319D01*
X3154934Y8361934D01*
X3157169Y8375954D01*
X3157626Y8390128D01*
X3156254Y8404301D01*
X3153105Y8418169D01*
X3148228Y8431479D01*
X3141624Y8444077D01*
X3133496Y8455710D01*
X3123946Y8466277D01*
X3113125Y8475472D01*
X3101238Y8483193D01*
X3088436Y8489391D01*
X3074924Y8493861D01*
X3069945Y8494826D01*
X3065932Y8496554D01*
X3063036Y8499805D01*
X3061766Y8503970D01*
X3062376Y8508288D01*
X3065272Y8512556D01*
X3068574Y8514740D01*
X3072485Y8515502D01*
X3532632Y8515502D01*
X3536797Y8514638D01*
X3540201Y8512149D01*
X3542334Y8508441D01*
X3542741Y8504224D01*
X3541369Y8500160D01*
X3538474Y8497062D01*
X3534562Y8495385D01*
X3526688Y8493861D01*
X3513175Y8489391D01*
X3500374Y8483193D01*
X3488486Y8475472D01*
X3477666Y8466277D01*
X3468115Y8455710D01*
X3459987Y8444077D01*
X3453384Y8431479D01*
X3448507Y8418169D01*
X3445357Y8404301D01*
X3443986Y8390128D01*
X3444443Y8375954D01*
X3446678Y8361934D01*
X3450742Y8348319D01*
X3456482Y8335314D01*
X3463848Y8323173D01*
X3472738Y8312048D01*
X3482949Y8302142D01*
X3494328Y8293658D01*
X3506673Y8286699D01*
X3519881Y8281365D01*
X3533597Y8277758D01*
X3547719Y8275929D01*
X3561892Y8275929D01*
X3576015Y8277758D01*
X3589731Y8281365D01*
X3594658Y8283346D01*
X3598570Y8284108D01*
X3602431Y8283295D01*
X3605682Y8281111D01*
X3640226Y8246567D01*
X3642410Y8243265D01*
X3643223Y8239404D01*
X3643223Y8224672D01*
X3642461Y8220913D01*
X3640429Y8217662D01*
X3637279Y8215426D01*
X3633571Y8214512D01*
X3629761Y8215020D01*
X3626459Y8216950D01*
X3621125Y8221472D01*
X3609238Y8229193D01*
X3596436Y8235391D01*
X3582924Y8239861D01*
X3569004Y8242553D01*
X3554831Y8243468D01*
X3540607Y8242553D01*
X3526688Y8239861D01*
X3513175Y8235391D01*
X3500374Y8229193D01*
X3488486Y8221472D01*
X3477666Y8212277D01*
X3468115Y8201710D01*
X3459987Y8190077D01*
X3453384Y8177479D01*
X3448507Y8164169D01*
X3445357Y8150301D01*
X3443986Y8136128D01*
X3444443Y8121954D01*
X3446678Y8107934D01*
X3450742Y8094319D01*
X3456482Y8081314D01*
X3463848Y8069173D01*
X3472738Y8058048D01*
X3482949Y8048142D01*
X3494328Y8039658D01*
X3506673Y8032699D01*
X3519881Y8027365D01*
X3533597Y8023758D01*
X3547719Y8021929D01*
X3561892Y8021929D01*
X3576015Y8023758D01*
X3589731Y8027365D01*
X3602939Y8032699D01*
X3615283Y8039658D01*
X3627983Y8049107D01*
X3631437Y8050733D01*
X3635298Y8050987D01*
X3638956Y8049768D01*
X3641902Y8047278D01*
X3643680Y8043875D01*
X3646170Y8035696D01*
X3649726Y8028990D01*
X3654856Y8022793D01*
X3719779Y7957870D01*
X3722166Y7954111D01*
X3722725Y7949692D01*
X3721303Y7945424D01*
X3718255Y7942224D01*
G37*

%LPC*%
G36*
X3251962Y8287105D02*
G01*
X3251962Y8337753D01*
X3201416Y8337753D01*
X3202482Y8335314D01*
X3209848Y8323173D01*
X3218738Y8312048D01*
X3228949Y8302142D01*
X3240328Y8293658D01*
G37*
G36*
X3349650Y8287105D02*
G01*
X3361283Y8293658D01*
X3372662Y8302142D01*
X3382873Y8312048D01*
X3391763Y8323173D01*
X3399129Y8335314D01*
X3400196Y8337753D01*
X3349650Y8337753D01*
G37*
G36*
X3349650Y8435441D02*
G01*
X3400145Y8435441D01*
X3395624Y8444077D01*
X3387496Y8455710D01*
X3377946Y8466277D01*
X3367125Y8475472D01*
X3355238Y8483193D01*
X3349650Y8485886D01*
G37*
G36*
X3201466Y8435441D02*
G01*
X3251962Y8435441D01*
X3251962Y8485886D01*
X3246374Y8483193D01*
X3234486Y8475472D01*
X3223666Y8466277D01*
X3214116Y8455710D01*
X3205988Y8444077D01*
G37*

%LPD*%
G36*
X4648403Y7831328D02*
G01*
X4644491Y7832090D01*
X4641240Y7834325D01*
X4639005Y7837576D01*
X4638243Y7841488D01*
X4638243Y7849260D01*
X4637430Y7857286D01*
X4635246Y7864500D01*
X4631690Y7871206D01*
X4626559Y7877403D01*
X4422394Y8081619D01*
X4420158Y8085023D01*
X4419396Y8088985D01*
X4424934Y8107934D01*
X4427169Y8121954D01*
X4427626Y8136128D01*
X4426254Y8150301D01*
X4423105Y8164169D01*
X4418228Y8177479D01*
X4411624Y8190077D01*
X4403496Y8201710D01*
X4393946Y8212277D01*
X4383125Y8221472D01*
X4371238Y8229193D01*
X4358436Y8235391D01*
X4344924Y8239861D01*
X4331004Y8242553D01*
X4316831Y8243468D01*
X4302607Y8242553D01*
X4288688Y8239861D01*
X4275175Y8235391D01*
X4262374Y8229193D01*
X4250486Y8221472D01*
X4245152Y8216950D01*
X4241850Y8215020D01*
X4238040Y8214512D01*
X4234332Y8215426D01*
X4231182Y8217662D01*
X4229150Y8220913D01*
X4228439Y8224672D01*
X4228439Y8239404D01*
X4229201Y8243265D01*
X4231386Y8246567D01*
X4265930Y8281111D01*
X4269181Y8283295D01*
X4273042Y8284108D01*
X4276953Y8283346D01*
X4281881Y8281365D01*
X4295597Y8277758D01*
X4309719Y8275929D01*
X4323892Y8275929D01*
X4338015Y8277758D01*
X4351731Y8281365D01*
X4364939Y8286699D01*
X4377283Y8293658D01*
X4388662Y8302142D01*
X4398873Y8312048D01*
X4407763Y8323173D01*
X4415129Y8335314D01*
X4420870Y8348319D01*
X4424934Y8361934D01*
X4427169Y8375954D01*
X4427626Y8390128D01*
X4426254Y8404301D01*
X4423105Y8418169D01*
X4418228Y8431479D01*
X4411624Y8444077D01*
X4403496Y8455710D01*
X4393946Y8466277D01*
X4383125Y8475472D01*
X4371238Y8483193D01*
X4358436Y8489391D01*
X4344924Y8493861D01*
X4337050Y8495385D01*
X4333138Y8497062D01*
X4330242Y8500160D01*
X4328871Y8504224D01*
X4329277Y8508441D01*
X4331411Y8512149D01*
X4334814Y8514638D01*
X4338980Y8515502D01*
X4548632Y8515502D01*
X4552797Y8514638D01*
X4556201Y8512149D01*
X4558334Y8508441D01*
X4558741Y8504224D01*
X4557369Y8500160D01*
X4554474Y8497062D01*
X4550562Y8495385D01*
X4542688Y8493861D01*
X4529175Y8489391D01*
X4516374Y8483193D01*
X4504486Y8475472D01*
X4493666Y8466277D01*
X4484116Y8455710D01*
X4475988Y8444077D01*
X4469384Y8431479D01*
X4464507Y8418169D01*
X4461357Y8404301D01*
X4459986Y8390128D01*
X4460443Y8375954D01*
X4462678Y8361934D01*
X4466742Y8348319D01*
X4472482Y8335314D01*
X4479848Y8323173D01*
X4488738Y8312048D01*
X4498949Y8302142D01*
X4510328Y8293658D01*
X4522673Y8286699D01*
X4535881Y8281365D01*
X4549597Y8277758D01*
X4563719Y8275929D01*
X4577892Y8275929D01*
X4592015Y8277758D01*
X4605731Y8281365D01*
X4610658Y8283346D01*
X4614570Y8284108D01*
X4618431Y8283295D01*
X4621682Y8281111D01*
X4656226Y8246567D01*
X4658410Y8243265D01*
X4659223Y8239404D01*
X4659223Y8224672D01*
X4658461Y8220913D01*
X4656429Y8217662D01*
X4653280Y8215426D01*
X4649571Y8214512D01*
X4645761Y8215020D01*
X4642459Y8216950D01*
X4637125Y8221472D01*
X4625238Y8229193D01*
X4612436Y8235391D01*
X4598924Y8239861D01*
X4585004Y8242553D01*
X4570831Y8243468D01*
X4556607Y8242553D01*
X4542688Y8239861D01*
X4529175Y8235391D01*
X4516374Y8229193D01*
X4504486Y8221472D01*
X4493666Y8212277D01*
X4484116Y8201710D01*
X4475988Y8190077D01*
X4469384Y8177479D01*
X4464507Y8164169D01*
X4461357Y8150301D01*
X4459986Y8136128D01*
X4460443Y8121954D01*
X4462678Y8107934D01*
X4466742Y8094319D01*
X4472482Y8081314D01*
X4479848Y8069173D01*
X4488738Y8058048D01*
X4498949Y8048142D01*
X4510328Y8039658D01*
X4522673Y8032699D01*
X4535881Y8027365D01*
X4549597Y8023758D01*
X4563719Y8021929D01*
X4577892Y8021929D01*
X4592015Y8023758D01*
X4605731Y8027365D01*
X4618939Y8032699D01*
X4631283Y8039658D01*
X4642967Y8048345D01*
X4647031Y8050174D01*
X4651502Y8050072D01*
X4655464Y8048091D01*
X4658207Y8044586D01*
X4659223Y8040217D01*
X4659223Y7903718D01*
X4659985Y7895691D01*
X4662170Y7888478D01*
X4665726Y7881772D01*
X4670856Y7875574D01*
X4680407Y7865973D01*
X4682642Y7862671D01*
X4683404Y7858810D01*
X4683404Y7841488D01*
X4682642Y7837576D01*
X4680407Y7834325D01*
X4677156Y7832090D01*
X4673244Y7831328D01*
G37*

%LPD*%
G36*
X4341368Y7814309D02*
G01*
X4337608Y7815935D01*
X4334814Y7818881D01*
X4333138Y7821523D01*
X4329074Y7825587D01*
X4322876Y7829397D01*
X4320540Y7831378D01*
X4318863Y7834020D01*
X4318101Y7837068D01*
X4317695Y7840878D01*
X4315510Y7848092D01*
X4311954Y7854746D01*
X4306824Y7860995D01*
X4231386Y7936433D01*
X4229201Y7939735D01*
X4228439Y7943646D01*
X4228439Y8040217D01*
X4229404Y8044586D01*
X4232148Y8048091D01*
X4236110Y8050072D01*
X4240580Y8050174D01*
X4244644Y8048345D01*
X4256328Y8039658D01*
X4268673Y8032699D01*
X4281881Y8027365D01*
X4295597Y8023758D01*
X4309719Y8021929D01*
X4323892Y8021929D01*
X4338015Y8023758D01*
X4351731Y8027365D01*
X4356658Y8029346D01*
X4360570Y8030108D01*
X4364431Y8029295D01*
X4367682Y8027111D01*
X4505502Y7889290D01*
X4507738Y7885988D01*
X4508500Y7882077D01*
X4507738Y7878216D01*
X4505502Y7874914D01*
X4502200Y7872730D01*
X4498340Y7871917D01*
X4407408Y7871917D01*
X4399381Y7871155D01*
X4392168Y7868970D01*
X4385462Y7865414D01*
X4379620Y7860588D01*
X4374845Y7854746D01*
X4371289Y7848092D01*
X4369104Y7840878D01*
X4368698Y7837068D01*
X4367936Y7834020D01*
X4366260Y7831378D01*
X4363923Y7829397D01*
X4357725Y7825587D01*
X4353661Y7821523D01*
X4351985Y7818881D01*
X4349191Y7815935D01*
X4345432Y7814309D01*
G37*

%LPD*%
G36*
X4087368Y7814309D02*
G01*
X4083608Y7815935D01*
X4080814Y7818881D01*
X4079138Y7821523D01*
X4075074Y7825587D01*
X4068876Y7829397D01*
X4066540Y7831378D01*
X4064863Y7834020D01*
X4064101Y7837068D01*
X4063695Y7840878D01*
X4061510Y7848092D01*
X4057954Y7854746D01*
X4053179Y7860588D01*
X4047337Y7865414D01*
X4040632Y7868970D01*
X4033418Y7871155D01*
X4025392Y7871917D01*
X4017314Y7871917D01*
X4014165Y7872475D01*
X4011269Y7873949D01*
X4009034Y7876286D01*
X4006850Y7879384D01*
X3999890Y7886344D01*
X3991813Y7891983D01*
X3982923Y7896148D01*
X3973423Y7898688D01*
X3963670Y7899552D01*
X3953865Y7898688D01*
X3944365Y7896148D01*
X3935476Y7891983D01*
X3927398Y7886344D01*
X3921150Y7880045D01*
X3917848Y7877860D01*
X3913936Y7877098D01*
X3910076Y7877860D01*
X3906774Y7880045D01*
X3780536Y8006334D01*
X3778250Y8009788D01*
X3777538Y8013953D01*
X3778605Y8017967D01*
X3781145Y8021269D01*
X3784854Y8023250D01*
X3789019Y8023555D01*
X3801719Y8021929D01*
X3815892Y8021929D01*
X3830015Y8023758D01*
X3843731Y8027365D01*
X3856939Y8032699D01*
X3869283Y8039658D01*
X3880662Y8048142D01*
X3890873Y8058048D01*
X3896664Y8065262D01*
X3899915Y8067954D01*
X3904030Y8069072D01*
X3908196Y8068411D01*
X3911752Y8066125D01*
X4111294Y7866583D01*
X4113529Y7863281D01*
X4114292Y7859369D01*
X4114292Y7837830D01*
X4113733Y7834477D01*
X4112056Y7831531D01*
X4109516Y7829245D01*
X4103776Y7825638D01*
X4099661Y7821523D01*
X4097985Y7818881D01*
X4095191Y7815935D01*
X4091432Y7814309D01*
G37*

%LPD*%
G36*
X2487168Y7814309D02*
G01*
X2483408Y7815935D01*
X2480614Y7818881D01*
X2478938Y7821523D01*
X2474823Y7825638D01*
X2469083Y7829245D01*
X2466543Y7831531D01*
X2464866Y7834477D01*
X2464308Y7837830D01*
X2464308Y8030159D01*
X2465171Y8034274D01*
X2467660Y8037677D01*
X2471267Y8039811D01*
X2475433Y8040268D01*
X2479446Y8038998D01*
X2490673Y8032699D01*
X2503881Y8027365D01*
X2517597Y8023758D01*
X2531719Y8021929D01*
X2545892Y8021929D01*
X2551684Y8022183D01*
X2554579Y8021218D01*
X2557068Y8019389D01*
X2687015Y7889443D01*
X2689199Y7886192D01*
X2689961Y7882280D01*
X2689199Y7878368D01*
X2687015Y7875117D01*
X2683713Y7872882D01*
X2679801Y7872120D01*
X2553360Y7872120D01*
X2545334Y7871307D01*
X2538120Y7869123D01*
X2531465Y7865567D01*
X2525623Y7860792D01*
X2520645Y7854746D01*
X2517089Y7848092D01*
X2514904Y7840878D01*
X2514498Y7837068D01*
X2513736Y7834020D01*
X2512060Y7831378D01*
X2509723Y7829397D01*
X2503525Y7825587D01*
X2499461Y7821523D01*
X2497785Y7818881D01*
X2494991Y7815935D01*
X2491232Y7814309D01*
G37*

%LPD*%
G36*
X4214368Y7814309D02*
G01*
X4210608Y7815935D01*
X4207814Y7818881D01*
X4206138Y7821523D01*
X4202023Y7825638D01*
X4196283Y7829245D01*
X4193743Y7831531D01*
X4192066Y7834477D01*
X4191508Y7837830D01*
X4191508Y7842605D01*
X4192270Y7846466D01*
X4194505Y7849768D01*
X4197756Y7852003D01*
X4201668Y7852765D01*
X4205579Y7852003D01*
X4208830Y7849768D01*
X4224985Y7833664D01*
X4226915Y7830870D01*
X4227880Y7827619D01*
X4227677Y7824216D01*
X4226407Y7821066D01*
X4224985Y7818881D01*
X4222191Y7815935D01*
X4218432Y7814309D01*
G37*

%LPD*%
G36*
X3833368Y7814309D02*
G01*
X3829608Y7815935D01*
X3826814Y7818881D01*
X3825138Y7821523D01*
X3821074Y7825587D01*
X3814876Y7829397D01*
X3811676Y7832496D01*
X3810152Y7836712D01*
X3809339Y7842503D01*
X3809695Y7846669D01*
X3811625Y7850378D01*
X3814927Y7852918D01*
X3818991Y7853984D01*
X3823106Y7853324D01*
X3826611Y7851038D01*
X3843985Y7833664D01*
X3845915Y7830870D01*
X3846880Y7827619D01*
X3846677Y7824216D01*
X3845407Y7821066D01*
X3843985Y7818881D01*
X3841191Y7815935D01*
X3837432Y7814309D01*
G37*

%LPD*%
G36*
X3707637Y7571994D02*
G01*
X3703421Y7572908D01*
X3699967Y7575448D01*
X3697935Y7579207D01*
X3697579Y7583525D01*
X3699052Y7587538D01*
X3702608Y7591704D01*
X3706368Y7593330D01*
X3710432Y7593330D01*
X3714191Y7591704D01*
X3717747Y7587538D01*
X3719220Y7583525D01*
X3718864Y7579207D01*
X3716832Y7575448D01*
X3713378Y7572908D01*
X3709162Y7571994D01*
G37*

%LPD*%
G36*
X3250438Y7571994D02*
G01*
X3246221Y7572908D01*
X3242767Y7575448D01*
X3240735Y7579207D01*
X3240379Y7583525D01*
X3241852Y7587538D01*
X3243986Y7590993D01*
X3245916Y7596479D01*
X3246628Y7602778D01*
X3246628Y7613396D01*
X3247390Y7617256D01*
X3249625Y7620558D01*
X3252876Y7622794D01*
X3256788Y7623556D01*
X3424428Y7623556D01*
X3428695Y7622590D01*
X3431082Y7621473D01*
X3440582Y7618933D01*
X3450386Y7618069D01*
X3460140Y7618933D01*
X3469640Y7621473D01*
X3478529Y7625638D01*
X3486607Y7631277D01*
X3493566Y7638237D01*
X3499154Y7646263D01*
X3503320Y7655153D01*
X3505860Y7664653D01*
X3506724Y7674457D01*
X3505860Y7684262D01*
X3503320Y7693761D01*
X3499154Y7702651D01*
X3493566Y7710678D01*
X3486607Y7717637D01*
X3478529Y7723276D01*
X3469640Y7727442D01*
X3460140Y7729981D01*
X3450386Y7730845D01*
X3440582Y7729981D01*
X3431082Y7727442D01*
X3428695Y7726324D01*
X3424428Y7725359D01*
X3256788Y7725359D01*
X3252876Y7726121D01*
X3249625Y7728356D01*
X3247390Y7731658D01*
X3246628Y7735519D01*
X3246628Y7793532D01*
X3247390Y7797444D01*
X3249625Y7800746D01*
X3252876Y7802930D01*
X3256788Y7803692D01*
X3321202Y7803692D01*
X3325063Y7802930D01*
X3328365Y7800746D01*
X3329990Y7799120D01*
X3338017Y7793532D01*
X3346907Y7789367D01*
X3356406Y7786827D01*
X3366211Y7785963D01*
X3376015Y7786827D01*
X3385515Y7789367D01*
X3394405Y7793532D01*
X3402431Y7799120D01*
X3409391Y7806080D01*
X3415029Y7814157D01*
X3419195Y7823047D01*
X3421735Y7832547D01*
X3422599Y7842300D01*
X3421532Y7853425D01*
X3421989Y7857591D01*
X3424123Y7861198D01*
X3427526Y7863636D01*
X3431641Y7864500D01*
X3681882Y7864500D01*
X3685794Y7863738D01*
X3689096Y7861553D01*
X3716985Y7833664D01*
X3718915Y7830870D01*
X3719880Y7827619D01*
X3719677Y7824216D01*
X3718407Y7821066D01*
X3716985Y7818881D01*
X3714191Y7815935D01*
X3710432Y7814309D01*
X3706368Y7814309D01*
X3702608Y7815935D01*
X3699814Y7818881D01*
X3698138Y7821523D01*
X3694023Y7825638D01*
X3689146Y7828686D01*
X3683660Y7830616D01*
X3677361Y7831328D01*
X3667760Y7831328D01*
X3667760Y7760970D01*
X3702812Y7760970D01*
X3706723Y7760208D01*
X3709974Y7757972D01*
X3712210Y7754721D01*
X3712972Y7750809D01*
X3712972Y7656830D01*
X3712210Y7652918D01*
X3709974Y7649667D01*
X3706723Y7647431D01*
X3702812Y7646670D01*
X3667760Y7646670D01*
X3667760Y7582153D01*
X3666998Y7578242D01*
X3664762Y7574991D01*
X3661511Y7572756D01*
X3657600Y7571994D01*
X3632200Y7571994D01*
X3628288Y7572756D01*
X3625037Y7574991D01*
X3622801Y7578242D01*
X3622040Y7582153D01*
X3622040Y7646670D01*
X3585972Y7646670D01*
X3585972Y7602778D01*
X3586683Y7596479D01*
X3588613Y7590993D01*
X3590747Y7587538D01*
X3592220Y7583525D01*
X3591864Y7579207D01*
X3589832Y7575448D01*
X3586378Y7572908D01*
X3582162Y7571994D01*
G37*

%LPC*%
G36*
X3585972Y7760970D02*
G01*
X3622040Y7760970D01*
X3622040Y7831328D01*
X3612438Y7831328D01*
X3606139Y7830616D01*
X3600653Y7828686D01*
X3595776Y7825638D01*
X3591661Y7821523D01*
X3588613Y7816646D01*
X3586683Y7811160D01*
X3585972Y7804861D01*
G37*

%LPD*%
G36*
X2916224Y7464907D02*
G01*
X2912364Y7465669D01*
X2909062Y7467904D01*
X2817977Y7558989D01*
X2815742Y7562240D01*
X2814980Y7566152D01*
X2815742Y7570063D01*
X2817977Y7573314D01*
X2821279Y7575550D01*
X2825140Y7576312D01*
X2839161Y7576312D01*
X2845460Y7577023D01*
X2850946Y7578953D01*
X2855823Y7582001D01*
X2859938Y7586116D01*
X2861614Y7588758D01*
X2864408Y7591704D01*
X2868168Y7593330D01*
X2872232Y7593330D01*
X2875991Y7591704D01*
X2878785Y7588758D01*
X2880461Y7586116D01*
X2884525Y7582052D01*
X2890723Y7578242D01*
X2893060Y7576261D01*
X2894736Y7573619D01*
X2895498Y7570571D01*
X2895904Y7566761D01*
X2898089Y7559548D01*
X2901645Y7552893D01*
X2906776Y7546644D01*
X2971139Y7482230D01*
X2973374Y7478979D01*
X2974136Y7475067D01*
X2973374Y7471156D01*
X2971139Y7467904D01*
X2967837Y7465669D01*
X2963976Y7464907D01*
G37*

%LPD*%
G36*
X3200552Y7464907D02*
G01*
X3196437Y7465771D01*
X3193034Y7468209D01*
X3190900Y7471816D01*
X3190443Y7475931D01*
X3191256Y7485481D01*
X3192272Y7489088D01*
X3194507Y7492085D01*
X3197707Y7494066D01*
X3201365Y7494778D01*
X4463592Y7494778D01*
X4467504Y7494016D01*
X4470806Y7491780D01*
X4474972Y7488377D01*
X4477969Y7485125D01*
X4479290Y7480960D01*
X4478731Y7476591D01*
X4476343Y7472883D01*
X4471365Y7467904D01*
X4468063Y7465669D01*
X4464151Y7464907D01*
G37*

%LPD*%
G36*
X4624120Y7396988D02*
G01*
X4618736Y7397546D01*
X4615332Y7399680D01*
X4612995Y7402982D01*
X4612132Y7406894D01*
X4612894Y7410856D01*
X4615078Y7414259D01*
X4719624Y7518806D01*
X4722926Y7520990D01*
X4726838Y7521752D01*
X4730699Y7520990D01*
X4734001Y7518806D01*
X4736236Y7515504D01*
X4736998Y7511592D01*
X4736998Y7407148D01*
X4736236Y7403236D01*
X4734001Y7399934D01*
X4730699Y7397750D01*
X4726838Y7396988D01*
G37*

%LPD*%
G36*
X2635707Y7296099D02*
G01*
X2631795Y7296912D01*
X2628493Y7299096D01*
X2353614Y7573975D01*
X2351684Y7576769D01*
X2350719Y7580020D01*
X2350922Y7583424D01*
X2352192Y7586573D01*
X2353614Y7588758D01*
X2356408Y7591704D01*
X2360168Y7593330D01*
X2364232Y7593330D01*
X2367991Y7591704D01*
X2370785Y7588758D01*
X2372461Y7586116D01*
X2376576Y7582001D01*
X2381453Y7578953D01*
X2386939Y7577023D01*
X2393238Y7576312D01*
X2458161Y7576312D01*
X2464460Y7577023D01*
X2469946Y7578953D01*
X2474823Y7582001D01*
X2478938Y7586116D01*
X2480614Y7588758D01*
X2483408Y7591704D01*
X2487168Y7593330D01*
X2491232Y7593330D01*
X2494991Y7591704D01*
X2497785Y7588758D01*
X2499461Y7586116D01*
X2503576Y7582001D01*
X2508453Y7578953D01*
X2513939Y7577023D01*
X2520238Y7576312D01*
X2585161Y7576312D01*
X2591460Y7577023D01*
X2596946Y7578953D01*
X2601823Y7582001D01*
X2605938Y7586116D01*
X2607614Y7588758D01*
X2610408Y7591704D01*
X2614168Y7593330D01*
X2618232Y7593330D01*
X2621991Y7591704D01*
X2624785Y7588758D01*
X2626461Y7586116D01*
X2630576Y7582001D01*
X2636316Y7578394D01*
X2638856Y7576108D01*
X2640533Y7573162D01*
X2641092Y7569809D01*
X2641092Y7567320D01*
X2641904Y7559294D01*
X2644089Y7552080D01*
X2647645Y7545374D01*
X2652776Y7539177D01*
X2834182Y7357770D01*
X2840380Y7352639D01*
X2847086Y7349083D01*
X2854299Y7346899D01*
X2862326Y7346086D01*
X3643223Y7346086D01*
X3647287Y7345222D01*
X3650691Y7342784D01*
X3652824Y7339177D01*
X3653332Y7335062D01*
X3652520Y7325969D01*
X3653383Y7316216D01*
X3655364Y7308900D01*
X3655618Y7305243D01*
X3654602Y7301687D01*
X3652316Y7298740D01*
X3649167Y7296810D01*
X3645509Y7296099D01*
G37*

%LPD*%
G36*
X2360168Y6808470D02*
G01*
X2356408Y6810095D01*
X2353614Y6813042D01*
X2348992Y6819747D01*
X2348179Y6823608D01*
X2348992Y6827520D01*
X2351176Y6830822D01*
X2354478Y6833006D01*
X2358339Y6833768D01*
X2366060Y6833768D01*
X2369921Y6833006D01*
X2373223Y6830822D01*
X2375408Y6827520D01*
X2376220Y6823608D01*
X2375408Y6819747D01*
X2370785Y6813042D01*
X2367991Y6810095D01*
X2364232Y6808470D01*
G37*

%LPD*%
G36*
X2487168Y6808470D02*
G01*
X2483408Y6810095D01*
X2480614Y6813042D01*
X2475992Y6819747D01*
X2475179Y6823608D01*
X2475992Y6827520D01*
X2478176Y6830822D01*
X2481478Y6833006D01*
X2485339Y6833768D01*
X2493060Y6833768D01*
X2496921Y6833006D01*
X2500223Y6830822D01*
X2502408Y6827520D01*
X2503220Y6823608D01*
X2502408Y6819747D01*
X2497785Y6813042D01*
X2494991Y6810095D01*
X2491232Y6808470D01*
G37*

%LPD*%
G36*
X2741168Y6808470D02*
G01*
X2737408Y6810095D01*
X2734614Y6813042D01*
X2729992Y6819747D01*
X2729179Y6823608D01*
X2729992Y6827520D01*
X2732176Y6830822D01*
X2735478Y6833006D01*
X2739339Y6833768D01*
X2747060Y6833768D01*
X2750921Y6833006D01*
X2754223Y6830822D01*
X2756408Y6827520D01*
X2757220Y6823608D01*
X2756408Y6819747D01*
X2751785Y6813042D01*
X2748991Y6810095D01*
X2745232Y6808470D01*
G37*

%LPD*%
G36*
X2614168Y6808470D02*
G01*
X2610408Y6810095D01*
X2607614Y6813042D01*
X2602992Y6819747D01*
X2602179Y6823608D01*
X2602992Y6827520D01*
X2605176Y6830822D01*
X2608478Y6833006D01*
X2612339Y6833768D01*
X2620060Y6833768D01*
X2623921Y6833006D01*
X2627223Y6830822D01*
X2629408Y6827520D01*
X2630220Y6823608D01*
X2629408Y6819747D01*
X2624785Y6813042D01*
X2621991Y6810095D01*
X2618232Y6808470D01*
G37*

%LPD*%
G36*
X2995168Y6808470D02*
G01*
X2991408Y6810095D01*
X2988614Y6813042D01*
X2983992Y6819747D01*
X2983179Y6823608D01*
X2983992Y6827520D01*
X2986176Y6830822D01*
X2989478Y6833006D01*
X2993339Y6833768D01*
X3001060Y6833768D01*
X3004921Y6833006D01*
X3008223Y6830822D01*
X3010408Y6827520D01*
X3011220Y6823608D01*
X3010408Y6819747D01*
X3005785Y6813042D01*
X3002991Y6810095D01*
X2999232Y6808470D01*
G37*

%LPD*%
G36*
X2868168Y6808470D02*
G01*
X2864408Y6810095D01*
X2861614Y6813042D01*
X2856992Y6819747D01*
X2856179Y6823608D01*
X2856992Y6827520D01*
X2859176Y6830822D01*
X2862478Y6833006D01*
X2866339Y6833768D01*
X2874060Y6833768D01*
X2877921Y6833006D01*
X2881223Y6830822D01*
X2883408Y6827520D01*
X2884220Y6823608D01*
X2883408Y6819747D01*
X2878785Y6813042D01*
X2875991Y6810095D01*
X2872232Y6808470D01*
G37*

%LPD*%
G36*
X2233168Y6808470D02*
G01*
X2229408Y6810095D01*
X2226614Y6813042D01*
X2225192Y6815226D01*
X2223922Y6818375D01*
X2223719Y6821779D01*
X2224684Y6825030D01*
X2226614Y6827824D01*
X2229612Y6830822D01*
X2232914Y6833006D01*
X2236825Y6833768D01*
X2239060Y6833768D01*
X2242921Y6833006D01*
X2246223Y6830822D01*
X2248408Y6827520D01*
X2249220Y6823608D01*
X2248408Y6819747D01*
X2243785Y6813042D01*
X2240991Y6810095D01*
X2237232Y6808470D01*
G37*

%LPD*%
G36*
X2363724Y6552133D02*
G01*
X2359406Y6553047D01*
X2355900Y6555740D01*
X2353868Y6559651D01*
X2351684Y6567931D01*
X2349906Y6573012D01*
X2350109Y6576364D01*
X2351430Y6579463D01*
X2353614Y6582918D01*
X2356408Y6585864D01*
X2360168Y6587490D01*
X2364232Y6587490D01*
X2367991Y6585864D01*
X2370785Y6582918D01*
X2375916Y6575653D01*
X2376627Y6571589D01*
X2373528Y6559651D01*
X2371496Y6555740D01*
X2367991Y6553047D01*
G37*

%LPD*%
G36*
X2728468Y6549034D02*
G01*
X2724556Y6549796D01*
X2721305Y6552031D01*
X2719070Y6555333D01*
X2718308Y6559194D01*
X2718308Y6563969D01*
X2718866Y6567322D01*
X2720543Y6570268D01*
X2723083Y6572554D01*
X2728823Y6576161D01*
X2732938Y6580276D01*
X2734614Y6582918D01*
X2737408Y6585864D01*
X2741168Y6587490D01*
X2745232Y6587490D01*
X2748991Y6585864D01*
X2751785Y6582918D01*
X2753207Y6580733D01*
X2754477Y6577584D01*
X2754680Y6574180D01*
X2753715Y6570929D01*
X2751785Y6568135D01*
X2735630Y6552031D01*
X2732379Y6549796D01*
G37*

%LPD*%
G36*
X2493568Y6548932D02*
G01*
X2489504Y6550050D01*
X2486202Y6552742D01*
X2484323Y6556502D01*
X2481478Y6567373D01*
X2479294Y6572097D01*
X2478379Y6575348D01*
X2478582Y6578701D01*
X2480614Y6582918D01*
X2483408Y6585864D01*
X2487168Y6587490D01*
X2491232Y6587490D01*
X2494991Y6585864D01*
X2497785Y6582918D01*
X2499461Y6580276D01*
X2503576Y6576161D01*
X2506319Y6574434D01*
X2509012Y6571996D01*
X2510637Y6568744D01*
X2511044Y6565138D01*
X2510180Y6561632D01*
X2508097Y6558635D01*
X2501341Y6551879D01*
X2497785Y6549593D01*
G37*

%LPD*%
G36*
X3818991Y6547815D02*
G01*
X3814927Y6548881D01*
X3811625Y6551422D01*
X3809695Y6555130D01*
X3809339Y6559296D01*
X3810152Y6565087D01*
X3811676Y6569303D01*
X3814876Y6572402D01*
X3821074Y6576212D01*
X3825138Y6580276D01*
X3826814Y6582918D01*
X3829608Y6585864D01*
X3833368Y6587490D01*
X3837432Y6587490D01*
X3841191Y6585864D01*
X3843985Y6582918D01*
X3845407Y6580733D01*
X3846677Y6577584D01*
X3846880Y6574180D01*
X3845915Y6570929D01*
X3843985Y6568135D01*
X3826611Y6550761D01*
X3823106Y6548475D01*
G37*

%LPD*%
G36*
X3944772Y6545681D02*
G01*
X3940556Y6547104D01*
X3937355Y6550152D01*
X3935729Y6554317D01*
X3936034Y6558788D01*
X3936695Y6560921D01*
X3937101Y6564731D01*
X3937863Y6567779D01*
X3939540Y6570421D01*
X3941876Y6572402D01*
X3948074Y6576212D01*
X3952138Y6580276D01*
X3953814Y6582918D01*
X3956608Y6585864D01*
X3960368Y6587490D01*
X3964432Y6587490D01*
X3968191Y6585864D01*
X3970985Y6582918D01*
X3972966Y6579819D01*
X3974287Y6576669D01*
X3974439Y6573266D01*
X3973525Y6570014D01*
X3971544Y6567220D01*
X3952951Y6548628D01*
X3949192Y6546240D01*
G37*

%LPD*%
G36*
X3779316Y6507835D02*
G01*
X3775354Y6508648D01*
X3772103Y6510985D01*
X3769918Y6514388D01*
X3769309Y6518351D01*
X3770223Y6522262D01*
X3771442Y6524853D01*
X3773170Y6527444D01*
X3775608Y6529374D01*
X3780282Y6530848D01*
X3784600Y6530848D01*
X3788511Y6529070D01*
X3791305Y6525768D01*
X3792524Y6521653D01*
X3791915Y6517385D01*
X3789578Y6513728D01*
X3786632Y6510781D01*
X3783279Y6508546D01*
G37*

%LPD*%
G36*
X3570732Y6488277D02*
G01*
X3566820Y6489039D01*
X3563518Y6491274D01*
X3560318Y6493967D01*
X3557524Y6496964D01*
X3556101Y6500825D01*
X3556355Y6504940D01*
X3558184Y6508597D01*
X3561334Y6511239D01*
X3565296Y6512407D01*
X3571443Y6512966D01*
X3580942Y6515506D01*
X3589832Y6519672D01*
X3597910Y6525259D01*
X3599484Y6526885D01*
X3602786Y6529070D01*
X3606698Y6529831D01*
X3644392Y6529831D01*
X3652418Y6530644D01*
X3657650Y6532219D01*
X3661206Y6532626D01*
X3664712Y6531762D01*
X3667709Y6529730D01*
X3669792Y6526784D01*
X3672281Y6521551D01*
X3677869Y6513474D01*
X3687419Y6503670D01*
X3688791Y6499606D01*
X3688384Y6495389D01*
X3686301Y6491681D01*
X3682847Y6489192D01*
X3678682Y6488277D01*
G37*

%LPD*%
G36*
X3335832Y6417310D02*
G01*
X3331972Y6418122D01*
X3328670Y6420307D01*
X3195828Y6553149D01*
X3193643Y6556400D01*
X3192881Y6560312D01*
X3193643Y6564223D01*
X3195828Y6567474D01*
X3199130Y6569709D01*
X3203041Y6570472D01*
X3220161Y6570472D01*
X3226460Y6571183D01*
X3231946Y6573113D01*
X3236823Y6576161D01*
X3240938Y6580276D01*
X3243986Y6585153D01*
X3245916Y6590639D01*
X3246628Y6596938D01*
X3246628Y6789318D01*
X3247390Y6793179D01*
X3249625Y6796481D01*
X3252876Y6798716D01*
X3256788Y6799478D01*
X3575812Y6799478D01*
X3579723Y6798716D01*
X3582974Y6796481D01*
X3585210Y6793179D01*
X3585972Y6789318D01*
X3585972Y6633311D01*
X3585311Y6629704D01*
X3583381Y6626555D01*
X3580434Y6624269D01*
X3576878Y6623202D01*
X3571443Y6623964D01*
X3561689Y6624828D01*
X3551885Y6623964D01*
X3542385Y6621424D01*
X3533495Y6617258D01*
X3525418Y6611670D01*
X3518458Y6604711D01*
X3512870Y6596634D01*
X3508705Y6587744D01*
X3506165Y6578244D01*
X3505301Y6568440D01*
X3506165Y6558686D01*
X3508705Y6549186D01*
X3512870Y6540296D01*
X3518458Y6532219D01*
X3525418Y6525259D01*
X3527044Y6524142D01*
X3529837Y6521196D01*
X3531260Y6517335D01*
X3531006Y6513220D01*
X3529177Y6509562D01*
X3526028Y6506921D01*
X3522065Y6505702D01*
X3515918Y6505194D01*
X3506419Y6502654D01*
X3497529Y6498488D01*
X3489451Y6492849D01*
X3482492Y6485890D01*
X3476904Y6477863D01*
X3472738Y6468973D01*
X3470198Y6459474D01*
X3469335Y6449669D01*
X3470198Y6439865D01*
X3472789Y6430111D01*
X3473094Y6426454D01*
X3472027Y6422898D01*
X3469792Y6419951D01*
X3466642Y6418021D01*
X3462985Y6417310D01*
G37*

%LPD*%
G36*
X2430678Y6334099D02*
G01*
X2426512Y6335420D01*
X2423261Y6338417D01*
X2421585Y6342481D01*
X2421788Y6346850D01*
X2423820Y6354470D01*
X2424531Y6362496D01*
X2425446Y6365900D01*
X2427427Y6368796D01*
X2579624Y6520992D01*
X2584754Y6527241D01*
X2588310Y6533896D01*
X2590495Y6541109D01*
X2591308Y6549135D01*
X2591308Y6563969D01*
X2591866Y6567322D01*
X2593543Y6570268D01*
X2596083Y6572554D01*
X2601823Y6576161D01*
X2605938Y6580276D01*
X2607614Y6582918D01*
X2610408Y6585864D01*
X2614168Y6587490D01*
X2618232Y6587490D01*
X2621991Y6585864D01*
X2624785Y6582918D01*
X2626461Y6580276D01*
X2630576Y6576161D01*
X2636316Y6572554D01*
X2638856Y6570268D01*
X2640533Y6567322D01*
X2641092Y6563969D01*
X2641092Y6543598D01*
X2640330Y6539687D01*
X2638094Y6536385D01*
X2438755Y6337046D01*
X2435047Y6334709D01*
G37*

%LPD*%
G36*
X2577846Y6191859D02*
G01*
X2574290Y6192164D01*
X2560320Y6196025D01*
X2546807Y6197854D01*
X2533192Y6197854D01*
X2519680Y6196025D01*
X2514244Y6194552D01*
X2509824Y6194348D01*
X2505760Y6196025D01*
X2502763Y6199225D01*
X2501442Y6203442D01*
X2502001Y6207810D01*
X2504389Y6211519D01*
X2833624Y6540804D01*
X2838754Y6547053D01*
X2842310Y6553708D01*
X2844495Y6560921D01*
X2844901Y6564731D01*
X2845663Y6567779D01*
X2847340Y6570421D01*
X2849676Y6572402D01*
X2855874Y6576212D01*
X2859938Y6580276D01*
X2861614Y6582918D01*
X2864408Y6585864D01*
X2868168Y6587490D01*
X2872232Y6587490D01*
X2875991Y6585864D01*
X2878785Y6582918D01*
X2880461Y6580276D01*
X2884576Y6576161D01*
X2890316Y6572554D01*
X2892856Y6570268D01*
X2894533Y6567322D01*
X2895092Y6563969D01*
X2895092Y6509918D01*
X2894330Y6506006D01*
X2892094Y6502704D01*
X2584196Y6194806D01*
X2581300Y6192774D01*
G37*

%LPD*%
G36*
X3142691Y6025997D02*
G01*
X3138474Y6026912D01*
X3135020Y6029502D01*
X3132937Y6033262D01*
X3132632Y6037580D01*
X3134106Y6041644D01*
X3137509Y6046927D01*
X3143250Y6059322D01*
X3147314Y6072327D01*
X3149549Y6085789D01*
X3150006Y6099403D01*
X3148685Y6112967D01*
X3145485Y6126226D01*
X3144367Y6129223D01*
X3143656Y6133033D01*
X3144469Y6136843D01*
X3146653Y6140043D01*
X3230422Y6223812D01*
X3233724Y6225997D01*
X3237585Y6226759D01*
X3701592Y6226759D01*
X3705504Y6225997D01*
X3708806Y6223812D01*
X3710990Y6220510D01*
X3711752Y6216599D01*
X3710990Y6212738D01*
X3708806Y6209436D01*
X3656076Y6156706D01*
X3654704Y6155080D01*
X3651910Y6152692D01*
X3648456Y6151473D01*
X3644747Y6151575D01*
X3641344Y6152997D01*
X3638702Y6155486D01*
X3633978Y6161887D01*
X3624478Y6171692D01*
X3613759Y6180175D01*
X3602024Y6187135D01*
X3589477Y6192418D01*
X3576320Y6196025D01*
X3562807Y6197854D01*
X3549192Y6197854D01*
X3535679Y6196025D01*
X3522522Y6192418D01*
X3509975Y6187135D01*
X3498240Y6180175D01*
X3487521Y6171692D01*
X3478022Y6161887D01*
X3469944Y6150914D01*
X3463391Y6138976D01*
X3458514Y6126226D01*
X3455314Y6112967D01*
X3453993Y6099403D01*
X3454450Y6085789D01*
X3456686Y6072327D01*
X3459835Y6062116D01*
X3460292Y6058509D01*
X3459429Y6054953D01*
X3457346Y6051956D01*
X3434384Y6028994D01*
X3431082Y6026759D01*
X3427171Y6025997D01*
X3396691Y6025997D01*
X3392474Y6026912D01*
X3389020Y6029502D01*
X3386937Y6033262D01*
X3386632Y6037580D01*
X3388106Y6041644D01*
X3391509Y6046927D01*
X3397250Y6059322D01*
X3401314Y6072327D01*
X3403549Y6085789D01*
X3404006Y6099403D01*
X3402685Y6112967D01*
X3399485Y6126226D01*
X3394608Y6138976D01*
X3388055Y6150914D01*
X3379978Y6161887D01*
X3370478Y6171692D01*
X3359759Y6180175D01*
X3348024Y6187135D01*
X3335477Y6192418D01*
X3322320Y6196025D01*
X3308807Y6197854D01*
X3295192Y6197854D01*
X3281679Y6196025D01*
X3268522Y6192418D01*
X3255975Y6187135D01*
X3244240Y6180175D01*
X3233521Y6171692D01*
X3224022Y6161887D01*
X3215944Y6150914D01*
X3209391Y6138976D01*
X3204514Y6126226D01*
X3201314Y6112967D01*
X3199993Y6099403D01*
X3200450Y6085789D01*
X3202686Y6072327D01*
X3206750Y6059322D01*
X3212490Y6046927D01*
X3215894Y6041644D01*
X3217367Y6037580D01*
X3217062Y6033262D01*
X3214979Y6029502D01*
X3211525Y6026912D01*
X3207308Y6025997D01*
G37*

%LPD*%
G36*
X2842615Y5984900D02*
G01*
X2838246Y5985916D01*
X2834690Y5988659D01*
X2832709Y5992723D01*
X2832658Y5997194D01*
X2834589Y6001258D01*
X2838043Y6004153D01*
X2846019Y6008166D01*
X2857246Y6015888D01*
X2867406Y6025032D01*
X2876194Y6035446D01*
X2883509Y6046927D01*
X2889250Y6059322D01*
X2893314Y6072327D01*
X2895549Y6085789D01*
X2896006Y6099403D01*
X2894685Y6112967D01*
X2891485Y6126226D01*
X2886608Y6138976D01*
X2880055Y6150914D01*
X2871978Y6161887D01*
X2862478Y6171692D01*
X2851759Y6180175D01*
X2840024Y6187135D01*
X2827477Y6192418D01*
X2814320Y6196025D01*
X2800807Y6197854D01*
X2787192Y6197854D01*
X2773680Y6196025D01*
X2760522Y6192418D01*
X2747975Y6187135D01*
X2736240Y6180175D01*
X2725521Y6171692D01*
X2716022Y6161887D01*
X2707944Y6150914D01*
X2701391Y6138976D01*
X2696514Y6126226D01*
X2693314Y6112967D01*
X2691993Y6099403D01*
X2692450Y6085789D01*
X2694686Y6072327D01*
X2697835Y6062116D01*
X2698292Y6058509D01*
X2697429Y6054953D01*
X2695346Y6051956D01*
X2675128Y6031738D01*
X2671826Y6029553D01*
X2667965Y6028740D01*
X2636469Y6028740D01*
X2632252Y6029706D01*
X2628798Y6032246D01*
X2626715Y6036056D01*
X2626410Y6040323D01*
X2627884Y6044387D01*
X2629509Y6046927D01*
X2635250Y6059322D01*
X2639314Y6072327D01*
X2641549Y6085789D01*
X2642006Y6099403D01*
X2640685Y6112967D01*
X2637485Y6126226D01*
X2636367Y6129223D01*
X2635656Y6133033D01*
X2636469Y6136843D01*
X2638653Y6140043D01*
X2960624Y6462064D01*
X2965754Y6468262D01*
X2969310Y6474968D01*
X2971495Y6482181D01*
X2972308Y6490208D01*
X2972308Y6563969D01*
X2972866Y6567322D01*
X2974543Y6570268D01*
X2977083Y6572554D01*
X2982823Y6576161D01*
X2986938Y6580276D01*
X2988614Y6582918D01*
X2991408Y6585864D01*
X2995168Y6587490D01*
X2999232Y6587490D01*
X3002991Y6585864D01*
X3005785Y6582918D01*
X3007461Y6580276D01*
X3011576Y6576161D01*
X3016453Y6573113D01*
X3021939Y6571183D01*
X3028238Y6570472D01*
X3037840Y6570472D01*
X3037840Y6640830D01*
X3002788Y6640830D01*
X2998876Y6641592D01*
X2995625Y6643827D01*
X2993390Y6647078D01*
X2992628Y6650990D01*
X2992628Y6744970D01*
X2993390Y6748881D01*
X2995625Y6752132D01*
X2998876Y6754368D01*
X3002788Y6755130D01*
X3037840Y6755130D01*
X3037840Y6823608D01*
X3038602Y6827520D01*
X3040837Y6830822D01*
X3044088Y6833006D01*
X3048000Y6833768D01*
X3059938Y6833768D01*
X3063798Y6833006D01*
X3067100Y6830822D01*
X3080207Y6817715D01*
X3082391Y6814413D01*
X3083204Y6810552D01*
X3083204Y6573062D01*
X3083560Y6565442D01*
X3084525Y6563258D01*
X3086150Y6557822D01*
X3089706Y6551168D01*
X3094837Y6544919D01*
X3287979Y6351778D01*
X3294227Y6346647D01*
X3300882Y6343091D01*
X3308096Y6340906D01*
X3316122Y6340094D01*
X3709771Y6340094D01*
X3713683Y6339332D01*
X3716985Y6337147D01*
X3721201Y6333693D01*
X3724148Y6330492D01*
X3725468Y6326276D01*
X3724910Y6321907D01*
X3722522Y6318199D01*
X3711295Y6306972D01*
X3707993Y6304788D01*
X3704132Y6303975D01*
X3217875Y6303975D01*
X3209848Y6303213D01*
X3202635Y6301028D01*
X3195980Y6297472D01*
X3189732Y6292342D01*
X3092196Y6194806D01*
X3089300Y6192774D01*
X3085846Y6191859D01*
X3082290Y6192164D01*
X3068320Y6196025D01*
X3054807Y6197854D01*
X3041192Y6197854D01*
X3027680Y6196025D01*
X3014522Y6192418D01*
X3001975Y6187135D01*
X2990240Y6180175D01*
X2979521Y6171692D01*
X2970022Y6161887D01*
X2961944Y6150914D01*
X2955391Y6138976D01*
X2950514Y6126226D01*
X2947314Y6112967D01*
X2945993Y6099403D01*
X2946450Y6085789D01*
X2948686Y6072327D01*
X2952750Y6059322D01*
X2958490Y6046927D01*
X2965805Y6035446D01*
X2974594Y6025032D01*
X2984754Y6015888D01*
X2995980Y6008166D01*
X3003956Y6004153D01*
X3007410Y6001258D01*
X3009341Y5997194D01*
X3009290Y5992723D01*
X3007309Y5988659D01*
X3003753Y5985916D01*
X2999384Y5984900D01*
G37*

%LPD*%
G36*
X2882239Y5762701D02*
G01*
X2878480Y5763412D01*
X2875229Y5765495D01*
X2872994Y5768594D01*
X2872079Y5772302D01*
X2872587Y5776061D01*
X2874467Y5779414D01*
X2876194Y5781446D01*
X2883509Y5792927D01*
X2889250Y5805322D01*
X2893314Y5818327D01*
X2895549Y5831789D01*
X2896006Y5845403D01*
X2894685Y5858967D01*
X2891485Y5872226D01*
X2886608Y5884976D01*
X2882392Y5892647D01*
X2881172Y5896660D01*
X2881680Y5900775D01*
X2883814Y5904382D01*
X2887218Y5906820D01*
X2891282Y5907684D01*
X2950718Y5907684D01*
X2954782Y5906820D01*
X2958185Y5904382D01*
X2960319Y5900775D01*
X2960827Y5896660D01*
X2959608Y5892647D01*
X2955391Y5884976D01*
X2950514Y5872226D01*
X2947314Y5858967D01*
X2945993Y5845403D01*
X2946450Y5831789D01*
X2948686Y5818327D01*
X2952750Y5805322D01*
X2958490Y5792927D01*
X2965805Y5781446D01*
X2967532Y5779414D01*
X2969412Y5776061D01*
X2969920Y5772302D01*
X2969006Y5768594D01*
X2966770Y5765495D01*
X2963519Y5763412D01*
X2959760Y5762701D01*
G37*

%LPD*%
G36*
X3136239Y5762701D02*
G01*
X3132480Y5763412D01*
X3129229Y5765495D01*
X3126994Y5768594D01*
X3126079Y5772302D01*
X3126587Y5776061D01*
X3128467Y5779414D01*
X3130194Y5781446D01*
X3137509Y5792927D01*
X3143250Y5805322D01*
X3147314Y5818327D01*
X3149549Y5831789D01*
X3150006Y5845403D01*
X3148685Y5858967D01*
X3145485Y5872226D01*
X3144367Y5875223D01*
X3143656Y5879033D01*
X3144469Y5882843D01*
X3146653Y5886043D01*
X3165602Y5904992D01*
X3168904Y5907227D01*
X3172815Y5907989D01*
X3204870Y5907989D01*
X3208934Y5907125D01*
X3212338Y5904687D01*
X3214471Y5901080D01*
X3214979Y5896965D01*
X3213760Y5892952D01*
X3209391Y5884976D01*
X3204514Y5872226D01*
X3201314Y5858967D01*
X3199993Y5845403D01*
X3200450Y5831789D01*
X3202686Y5818327D01*
X3206750Y5805322D01*
X3212490Y5792927D01*
X3219805Y5781446D01*
X3221532Y5779414D01*
X3223412Y5776061D01*
X3223920Y5772302D01*
X3223006Y5768594D01*
X3220770Y5765495D01*
X3217519Y5763412D01*
X3213760Y5762701D01*
G37*

%LPD*%
G36*
X2517292Y5762701D02*
G01*
X2513380Y5763463D01*
X2510078Y5765698D01*
X2498547Y5777230D01*
X2496312Y5780532D01*
X2495550Y5784443D01*
X2495550Y5797550D01*
X2482443Y5797550D01*
X2478532Y5798312D01*
X2475230Y5800547D01*
X2086305Y6189472D01*
X2084070Y6192774D01*
X2083307Y6196685D01*
X2083307Y6563969D01*
X2083866Y6567322D01*
X2085543Y6570268D01*
X2088083Y6572554D01*
X2093823Y6576161D01*
X2097938Y6580276D01*
X2099614Y6582918D01*
X2102408Y6585864D01*
X2106168Y6587490D01*
X2110232Y6587490D01*
X2113991Y6585864D01*
X2116785Y6582918D01*
X2118461Y6580276D01*
X2122576Y6576161D01*
X2127453Y6573113D01*
X2132939Y6571183D01*
X2139238Y6570472D01*
X2204161Y6570472D01*
X2210460Y6571183D01*
X2215946Y6573113D01*
X2220823Y6576161D01*
X2224938Y6580276D01*
X2226614Y6582918D01*
X2229408Y6585864D01*
X2233168Y6587490D01*
X2237232Y6587490D01*
X2240991Y6585864D01*
X2243785Y6582918D01*
X2245969Y6579463D01*
X2247290Y6576364D01*
X2247493Y6573012D01*
X2245715Y6567931D01*
X2243175Y6558432D01*
X2242312Y6548628D01*
X2243175Y6538874D01*
X2245715Y6529374D01*
X2249881Y6520484D01*
X2255520Y6512407D01*
X2262479Y6505448D01*
X2270506Y6499860D01*
X2279396Y6495694D01*
X2288895Y6493154D01*
X2298700Y6492290D01*
X2308504Y6493154D01*
X2318004Y6495694D01*
X2326894Y6499860D01*
X2334920Y6505448D01*
X2341880Y6512407D01*
X2347518Y6520484D01*
X2351684Y6529374D01*
X2353716Y6537045D01*
X2355748Y6540957D01*
X2359253Y6543649D01*
X2363520Y6544564D01*
X2367838Y6543649D01*
X2371344Y6540957D01*
X2373376Y6537045D01*
X2375560Y6528765D01*
X2379726Y6519875D01*
X2385364Y6511798D01*
X2392324Y6504838D01*
X2400350Y6499250D01*
X2409240Y6495084D01*
X2420061Y6492290D01*
X2423871Y6490360D01*
X2426563Y6487109D01*
X2427681Y6482994D01*
X2427020Y6478828D01*
X2424684Y6475272D01*
X2372868Y6423406D01*
X2369972Y6421374D01*
X2366568Y6420459D01*
X2358491Y6419748D01*
X2348992Y6417208D01*
X2340102Y6413042D01*
X2332075Y6407454D01*
X2325116Y6400495D01*
X2319477Y6392418D01*
X2315311Y6383528D01*
X2312771Y6374028D01*
X2311908Y6364224D01*
X2312771Y6354470D01*
X2315311Y6344970D01*
X2319477Y6336080D01*
X2325116Y6328003D01*
X2332075Y6321044D01*
X2340102Y6315456D01*
X2348992Y6311290D01*
X2358491Y6308750D01*
X2368296Y6307886D01*
X2378100Y6308750D01*
X2385669Y6310782D01*
X2390089Y6310985D01*
X2394153Y6309258D01*
X2397099Y6306058D01*
X2398420Y6301841D01*
X2397861Y6297472D01*
X2395474Y6293764D01*
X2353005Y6251244D01*
X2347874Y6245047D01*
X2344318Y6238341D01*
X2342134Y6231128D01*
X2341321Y6223101D01*
X2341321Y6034532D01*
X2342134Y6026505D01*
X2344318Y6019292D01*
X2347874Y6012637D01*
X2353005Y6006388D01*
X2440025Y5919368D01*
X2446274Y5914237D01*
X2450592Y5911951D01*
X2453843Y5909106D01*
X2455672Y5905195D01*
X2455722Y5900877D01*
X2453944Y5896914D01*
X2448204Y5886450D01*
X2495550Y5886450D01*
X2495550Y5897524D01*
X2496312Y5901436D01*
X2498547Y5904687D01*
X2501798Y5906922D01*
X2505710Y5907684D01*
X2574290Y5907684D01*
X2578201Y5906922D01*
X2581452Y5904687D01*
X2583688Y5901436D01*
X2584450Y5897524D01*
X2584450Y5886450D01*
X2631795Y5886450D01*
X2628392Y5892647D01*
X2627172Y5896660D01*
X2627680Y5900775D01*
X2629814Y5904382D01*
X2633218Y5906820D01*
X2637282Y5907684D01*
X2696718Y5907684D01*
X2700782Y5906820D01*
X2704185Y5904382D01*
X2706319Y5900775D01*
X2706827Y5896660D01*
X2705608Y5892647D01*
X2701391Y5884976D01*
X2696514Y5872226D01*
X2693314Y5858967D01*
X2691993Y5845403D01*
X2692450Y5831789D01*
X2694686Y5818327D01*
X2698750Y5805322D01*
X2704490Y5792927D01*
X2711805Y5781446D01*
X2713532Y5779414D01*
X2715412Y5776061D01*
X2715920Y5772302D01*
X2715006Y5768594D01*
X2712770Y5765495D01*
X2709519Y5763412D01*
X2705760Y5762701D01*
X2628239Y5762701D01*
X2624480Y5763412D01*
X2621229Y5765495D01*
X2618994Y5768594D01*
X2618079Y5772302D01*
X2618587Y5776061D01*
X2620467Y5779414D01*
X2622194Y5781446D01*
X2629509Y5792927D01*
X2631643Y5797550D01*
X2584450Y5797550D01*
X2584450Y5772861D01*
X2583688Y5768949D01*
X2581452Y5765698D01*
X2578201Y5763463D01*
X2574290Y5762701D01*
G37*

%LPD*%
G36*
X1244854Y5636514D02*
G01*
X1222654Y5637377D01*
X1201267Y5639968D01*
X1180185Y5644184D01*
X1159459Y5650077D01*
X1139291Y5657545D01*
X1119784Y5666587D01*
X1101039Y5677103D01*
X1083157Y5689092D01*
X1066241Y5702452D01*
X1050493Y5717082D01*
X1035913Y5732881D01*
X1022603Y5749798D01*
X1010666Y5767730D01*
X1000201Y5786526D01*
X991209Y5806084D01*
X983792Y5826252D01*
X977950Y5846978D01*
X973785Y5868111D01*
X971296Y5889498D01*
X970534Y5910580D01*
X970534Y8310625D01*
X971346Y8332470D01*
X973937Y8353856D01*
X978153Y8374938D01*
X984046Y8395665D01*
X991514Y8415832D01*
X1000556Y8435340D01*
X1011072Y8454085D01*
X1023061Y8471966D01*
X1036421Y8488883D01*
X1051052Y8504631D01*
X1066850Y8519210D01*
X1083767Y8532520D01*
X1101699Y8544458D01*
X1120495Y8554923D01*
X1140053Y8563914D01*
X1160221Y8571331D01*
X1180947Y8577173D01*
X1202080Y8581339D01*
X1223467Y8583828D01*
X1245311Y8584692D01*
X2657754Y8584692D01*
X2661666Y8583930D01*
X2664968Y8581694D01*
X2667152Y8578443D01*
X2667914Y8574532D01*
X2667152Y8570620D01*
X2664968Y8567369D01*
X2589784Y8492185D01*
X2586736Y8490051D01*
X2583078Y8489238D01*
X2579420Y8489696D01*
X2566924Y8493861D01*
X2553004Y8496554D01*
X2538831Y8497468D01*
X2524607Y8496554D01*
X2510688Y8493861D01*
X2497175Y8489391D01*
X2484374Y8483193D01*
X2472486Y8475472D01*
X2461666Y8466277D01*
X2452116Y8455710D01*
X2443988Y8444077D01*
X2437384Y8431479D01*
X2432507Y8418169D01*
X2429357Y8404301D01*
X2427986Y8390128D01*
X2428443Y8375954D01*
X2430678Y8361934D01*
X2434742Y8348319D01*
X2440482Y8335314D01*
X2447848Y8323173D01*
X2456738Y8312048D01*
X2466949Y8302142D01*
X2474671Y8296351D01*
X2477414Y8293353D01*
X2478684Y8289493D01*
X2478379Y8285480D01*
X2476550Y8281873D01*
X2473401Y8279282D01*
X2470556Y8277758D01*
X2464308Y8272627D01*
X2398776Y8207044D01*
X2393645Y8200847D01*
X2392121Y8198002D01*
X2389479Y8194802D01*
X2385822Y8192973D01*
X2381707Y8192719D01*
X2377795Y8194141D01*
X2374849Y8196986D01*
X2371496Y8201710D01*
X2361946Y8212277D01*
X2351125Y8221472D01*
X2339238Y8229193D01*
X2326436Y8235391D01*
X2312924Y8239861D01*
X2299004Y8242553D01*
X2284831Y8243468D01*
X2270607Y8242553D01*
X2256688Y8239861D01*
X2243175Y8235391D01*
X2230374Y8229193D01*
X2218486Y8221472D01*
X2207666Y8212277D01*
X2198116Y8201710D01*
X2189988Y8190077D01*
X2183384Y8177479D01*
X2178507Y8164169D01*
X2175357Y8150301D01*
X2173986Y8136128D01*
X2174443Y8121954D01*
X2176678Y8107934D01*
X2180742Y8094319D01*
X2186482Y8081314D01*
X2193848Y8069173D01*
X2202738Y8058048D01*
X2212949Y8048142D01*
X2224328Y8039658D01*
X2236673Y8032699D01*
X2249881Y8027365D01*
X2263597Y8023758D01*
X2277719Y8021929D01*
X2291892Y8021929D01*
X2306015Y8023758D01*
X2319731Y8027365D01*
X2332939Y8032699D01*
X2345283Y8039658D01*
X2356662Y8048142D01*
X2366873Y8058048D01*
X2369007Y8060690D01*
X2372207Y8063331D01*
X2376170Y8064449D01*
X2380284Y8063941D01*
X2383840Y8061807D01*
X2386228Y8058403D01*
X2387092Y8054340D01*
X2387092Y7837830D01*
X2386533Y7834477D01*
X2384856Y7831531D01*
X2382316Y7829245D01*
X2376576Y7825638D01*
X2372461Y7821523D01*
X2370785Y7818881D01*
X2367991Y7815935D01*
X2364232Y7814309D01*
X2360168Y7814309D01*
X2356408Y7815935D01*
X2353614Y7818881D01*
X2351938Y7821523D01*
X2347823Y7825638D01*
X2342946Y7828686D01*
X2337460Y7830616D01*
X2331161Y7831328D01*
X2301697Y7831328D01*
X2297582Y7832191D01*
X2294178Y7834630D01*
X2292045Y7838236D01*
X2291537Y7842351D01*
X2291740Y7844586D01*
X2290876Y7854391D01*
X2288336Y7863890D01*
X2284171Y7872780D01*
X2278583Y7880858D01*
X2271623Y7887817D01*
X2263546Y7893405D01*
X2254656Y7897571D01*
X2245156Y7900111D01*
X2235352Y7900974D01*
X2225598Y7900111D01*
X2216099Y7897571D01*
X2207209Y7893405D01*
X2199132Y7887817D01*
X2192172Y7880858D01*
X2188972Y7876286D01*
X2186736Y7873949D01*
X2183892Y7872475D01*
X2180691Y7871917D01*
X2172208Y7871917D01*
X2164181Y7871155D01*
X2156968Y7868970D01*
X2150262Y7865414D01*
X2144420Y7860588D01*
X2139645Y7854746D01*
X2136089Y7848092D01*
X2133904Y7840878D01*
X2133498Y7837068D01*
X2132736Y7834020D01*
X2131060Y7831378D01*
X2128723Y7829397D01*
X2122525Y7825587D01*
X2118461Y7821523D01*
X2116785Y7818881D01*
X2113991Y7815935D01*
X2110232Y7814309D01*
X2106168Y7814309D01*
X2102408Y7815935D01*
X2099614Y7818881D01*
X2097938Y7821523D01*
X2093823Y7825638D01*
X2088946Y7828686D01*
X2083460Y7830616D01*
X2077161Y7831328D01*
X2067560Y7831328D01*
X2067560Y7760970D01*
X2102612Y7760970D01*
X2106523Y7760208D01*
X2109774Y7757972D01*
X2112010Y7754721D01*
X2112772Y7750809D01*
X2112772Y7656830D01*
X2112010Y7652918D01*
X2109774Y7649667D01*
X2106523Y7647431D01*
X2102612Y7646670D01*
X2067560Y7646670D01*
X2067560Y7576312D01*
X2077161Y7576312D01*
X2083460Y7577023D01*
X2088946Y7578953D01*
X2093823Y7582001D01*
X2097938Y7586116D01*
X2099614Y7588758D01*
X2102408Y7591704D01*
X2106168Y7593330D01*
X2110232Y7593330D01*
X2113991Y7591704D01*
X2116785Y7588758D01*
X2118461Y7586116D01*
X2122576Y7582001D01*
X2127453Y7578953D01*
X2132939Y7577023D01*
X2139238Y7576312D01*
X2204161Y7576312D01*
X2210460Y7577023D01*
X2215946Y7578953D01*
X2220823Y7582001D01*
X2224938Y7586116D01*
X2226614Y7588758D01*
X2229408Y7591704D01*
X2233168Y7593330D01*
X2237232Y7593330D01*
X2240991Y7591704D01*
X2243785Y7588758D01*
X2245461Y7586116D01*
X2249525Y7582052D01*
X2255723Y7578242D01*
X2258060Y7576261D01*
X2259736Y7573619D01*
X2260498Y7570571D01*
X2260904Y7566761D01*
X2263089Y7559548D01*
X2266645Y7552893D01*
X2271776Y7546644D01*
X2587853Y7230567D01*
X2594051Y7225436D01*
X2600756Y7221880D01*
X2607970Y7219696D01*
X2615996Y7218883D01*
X4669840Y7218883D01*
X4673701Y7218121D01*
X4677003Y7215936D01*
X4678629Y7214311D01*
X4686655Y7208723D01*
X4695545Y7204557D01*
X4705045Y7202017D01*
X4714798Y7201153D01*
X4725873Y7202170D01*
X4730038Y7201712D01*
X4733696Y7199579D01*
X4736134Y7196175D01*
X4736998Y7192060D01*
X4736998Y6911441D01*
X4736236Y6907580D01*
X4734001Y6904278D01*
X4730699Y6902043D01*
X4726838Y6901281D01*
X3223564Y6901281D01*
X3219704Y6902043D01*
X3216402Y6904278D01*
X3155289Y6965340D01*
X3151886Y6968490D01*
X3148330Y6971182D01*
X3144570Y6973570D01*
X3140659Y6975652D01*
X3136544Y6977329D01*
X3132328Y6978650D01*
X3128010Y6979615D01*
X3123590Y6980224D01*
X3118916Y6980428D01*
X1379829Y6980428D01*
X1375156Y6980224D01*
X1370787Y6979615D01*
X1366418Y6978650D01*
X1362202Y6977329D01*
X1358087Y6975652D01*
X1354175Y6973570D01*
X1350416Y6971182D01*
X1346860Y6968490D01*
X1343456Y6965340D01*
X1316329Y6938264D01*
X1313637Y6936333D01*
X1310487Y6935368D01*
X1307185Y6935470D01*
X1296517Y6937603D01*
X1282700Y6938467D01*
X1268882Y6937603D01*
X1255318Y6934860D01*
X1242161Y6930440D01*
X1229766Y6924294D01*
X1218234Y6916623D01*
X1207820Y6907479D01*
X1198676Y6897065D01*
X1191006Y6885533D01*
X1184859Y6873138D01*
X1180439Y6859981D01*
X1177696Y6846417D01*
X1176832Y6832600D01*
X1177696Y6818782D01*
X1180439Y6805218D01*
X1184859Y6792061D01*
X1191006Y6779666D01*
X1198676Y6768134D01*
X1207820Y6757720D01*
X1218234Y6748576D01*
X1229766Y6740906D01*
X1242161Y6734759D01*
X1255318Y6730339D01*
X1268882Y6727596D01*
X1282700Y6726732D01*
X1296517Y6727596D01*
X1310081Y6730339D01*
X1323238Y6734759D01*
X1335633Y6740906D01*
X1347165Y6748576D01*
X1357579Y6757720D01*
X1366723Y6768134D01*
X1374394Y6779666D01*
X1380540Y6792061D01*
X1384960Y6805218D01*
X1387703Y6818782D01*
X1388567Y6832600D01*
X1387703Y6846417D01*
X1385570Y6857085D01*
X1385468Y6860387D01*
X1386433Y6863537D01*
X1388364Y6866229D01*
X1397711Y6875627D01*
X1401013Y6877812D01*
X1404874Y6878574D01*
X2143658Y6878574D01*
X2147570Y6877812D01*
X2150872Y6875627D01*
X2153056Y6872325D01*
X2153818Y6868414D01*
X2153056Y6864553D01*
X2150872Y6861251D01*
X2144776Y6855155D01*
X2139645Y6848906D01*
X2136089Y6842252D01*
X2133904Y6835038D01*
X2133498Y6831228D01*
X2132736Y6828180D01*
X2131060Y6825538D01*
X2128723Y6823557D01*
X2122525Y6819747D01*
X2118461Y6815683D01*
X2116785Y6813042D01*
X2113991Y6810095D01*
X2110232Y6808470D01*
X2106168Y6808470D01*
X2102408Y6810095D01*
X2099614Y6813042D01*
X2097938Y6815683D01*
X2093823Y6819798D01*
X2088946Y6822846D01*
X2083460Y6824776D01*
X2077161Y6825488D01*
X2012238Y6825488D01*
X2005939Y6824776D01*
X2000453Y6822846D01*
X1995576Y6819798D01*
X1991461Y6815683D01*
X1988413Y6810806D01*
X1986483Y6805320D01*
X1985772Y6799021D01*
X1985772Y6596938D01*
X1986483Y6590639D01*
X1988413Y6585153D01*
X1991461Y6580276D01*
X1995576Y6576161D01*
X2001316Y6572554D01*
X2003856Y6570268D01*
X2005533Y6567322D01*
X2006092Y6563969D01*
X2006092Y6176975D01*
X2006904Y6168948D01*
X2009089Y6161735D01*
X2012645Y6155029D01*
X2017775Y6148832D01*
X2469438Y5697169D01*
X2475636Y5692038D01*
X2482342Y5688482D01*
X2489555Y5686298D01*
X2497582Y5685485D01*
X4199585Y5685485D01*
X4207611Y5686298D01*
X4214825Y5688482D01*
X4221530Y5692038D01*
X4227728Y5697169D01*
X4274007Y5743397D01*
X4277106Y5745530D01*
X4280763Y5746343D01*
X4284522Y5745784D01*
X4291025Y5743549D01*
X4304385Y5740806D01*
X4318000Y5739892D01*
X4331614Y5740806D01*
X4344974Y5743549D01*
X4357878Y5748020D01*
X4370019Y5754166D01*
X4381246Y5761888D01*
X4391406Y5771032D01*
X4400194Y5781446D01*
X4407509Y5792927D01*
X4413250Y5805322D01*
X4417314Y5818327D01*
X4419549Y5831789D01*
X4420006Y5845403D01*
X4418685Y5858967D01*
X4415485Y5872226D01*
X4410608Y5884976D01*
X4404055Y5896914D01*
X4395978Y5907887D01*
X4386478Y5917692D01*
X4375759Y5926175D01*
X4364024Y5933135D01*
X4351477Y5938418D01*
X4338320Y5942025D01*
X4324807Y5943854D01*
X4311192Y5943854D01*
X4297680Y5942025D01*
X4284522Y5938418D01*
X4271975Y5933135D01*
X4260240Y5926175D01*
X4249521Y5917692D01*
X4240022Y5907887D01*
X4231944Y5896914D01*
X4225391Y5884976D01*
X4220514Y5872226D01*
X4217314Y5858967D01*
X4215993Y5845403D01*
X4216450Y5831789D01*
X4218686Y5818327D01*
X4221835Y5808116D01*
X4222292Y5804509D01*
X4221429Y5800953D01*
X4219346Y5797956D01*
X4187088Y5765698D01*
X4183786Y5763463D01*
X4179874Y5762701D01*
X4152239Y5762701D01*
X4148480Y5763412D01*
X4145229Y5765495D01*
X4142994Y5768594D01*
X4142079Y5772302D01*
X4142587Y5776061D01*
X4144467Y5779414D01*
X4146194Y5781446D01*
X4153509Y5792927D01*
X4155643Y5797550D01*
X4108450Y5797550D01*
X4108450Y5772861D01*
X4107687Y5768949D01*
X4105452Y5765698D01*
X4102201Y5763463D01*
X4098290Y5762701D01*
X4029710Y5762701D01*
X4025798Y5763463D01*
X4022547Y5765698D01*
X4020312Y5768949D01*
X4019550Y5772861D01*
X4019550Y5797550D01*
X3972356Y5797550D01*
X3974490Y5792927D01*
X3981805Y5781446D01*
X3983532Y5779414D01*
X3985412Y5776061D01*
X3985920Y5772302D01*
X3985006Y5768594D01*
X3982770Y5765495D01*
X3979519Y5763412D01*
X3975760Y5762701D01*
X3898239Y5762701D01*
X3894480Y5763412D01*
X3891229Y5765495D01*
X3888994Y5768594D01*
X3888079Y5772302D01*
X3888587Y5776061D01*
X3890467Y5779414D01*
X3892194Y5781446D01*
X3899509Y5792927D01*
X3905250Y5805322D01*
X3909314Y5818327D01*
X3911549Y5831789D01*
X3912006Y5845403D01*
X3910685Y5858967D01*
X3907485Y5872226D01*
X3902608Y5884976D01*
X3896055Y5896914D01*
X3887978Y5907887D01*
X3878478Y5917692D01*
X3867759Y5926175D01*
X3856024Y5933135D01*
X3843477Y5938418D01*
X3830320Y5942025D01*
X3816807Y5943854D01*
X3803192Y5943854D01*
X3789679Y5942025D01*
X3776522Y5938418D01*
X3763975Y5933135D01*
X3752240Y5926175D01*
X3741521Y5917692D01*
X3732022Y5907887D01*
X3723944Y5896914D01*
X3717391Y5884976D01*
X3712514Y5872226D01*
X3709314Y5858967D01*
X3707993Y5845403D01*
X3708450Y5831789D01*
X3710686Y5818327D01*
X3714750Y5805322D01*
X3720490Y5792927D01*
X3727805Y5781446D01*
X3729532Y5779414D01*
X3731412Y5776061D01*
X3731920Y5772302D01*
X3731006Y5768594D01*
X3728770Y5765495D01*
X3725519Y5763412D01*
X3721760Y5762701D01*
X3644239Y5762701D01*
X3640480Y5763412D01*
X3637229Y5765495D01*
X3634994Y5768594D01*
X3634079Y5772302D01*
X3634587Y5776061D01*
X3636467Y5779414D01*
X3638194Y5781446D01*
X3645509Y5792927D01*
X3647643Y5797550D01*
X3600450Y5797550D01*
X3600450Y5772861D01*
X3599687Y5768949D01*
X3597452Y5765698D01*
X3594201Y5763463D01*
X3590290Y5762701D01*
X3521710Y5762701D01*
X3517798Y5763463D01*
X3514547Y5765698D01*
X3512312Y5768949D01*
X3511550Y5772861D01*
X3511550Y5797550D01*
X3464356Y5797550D01*
X3466490Y5792927D01*
X3473805Y5781446D01*
X3475532Y5779414D01*
X3477412Y5776061D01*
X3477920Y5772302D01*
X3477006Y5768594D01*
X3474770Y5765495D01*
X3471519Y5763412D01*
X3467760Y5762701D01*
X3390239Y5762701D01*
X3386480Y5763412D01*
X3383229Y5765495D01*
X3380994Y5768594D01*
X3380079Y5772302D01*
X3380587Y5776061D01*
X3382467Y5779414D01*
X3384194Y5781446D01*
X3391509Y5792927D01*
X3397250Y5805322D01*
X3401314Y5818327D01*
X3403549Y5831789D01*
X3404006Y5845403D01*
X3402685Y5858967D01*
X3399485Y5872226D01*
X3394608Y5884976D01*
X3390239Y5892952D01*
X3389020Y5896965D01*
X3389528Y5901080D01*
X3391662Y5904687D01*
X3395065Y5907125D01*
X3399129Y5907989D01*
X3458870Y5907989D01*
X3462934Y5907125D01*
X3466337Y5904687D01*
X3468471Y5901080D01*
X3468979Y5896965D01*
X3467760Y5892952D01*
X3464204Y5886450D01*
X3511550Y5886450D01*
X3511550Y5897829D01*
X3512312Y5901740D01*
X3514547Y5904992D01*
X3517798Y5907227D01*
X3521710Y5907989D01*
X3566109Y5907989D01*
X3574135Y5908802D01*
X3581349Y5910986D01*
X3585514Y5913170D01*
X3589477Y5914339D01*
X3593642Y5913831D01*
X3597198Y5911697D01*
X3599586Y5908294D01*
X3600450Y5904230D01*
X3600450Y5886450D01*
X3647795Y5886450D01*
X3642055Y5896914D01*
X3633978Y5907887D01*
X3624478Y5917692D01*
X3615486Y5924804D01*
X3612743Y5928106D01*
X3611626Y5932220D01*
X3612286Y5936386D01*
X3614572Y5939993D01*
X3709924Y6035344D01*
X3711143Y6036818D01*
X3714089Y6039256D01*
X3717696Y6040424D01*
X3721506Y6040221D01*
X3724960Y6038596D01*
X3736594Y6025032D01*
X3746754Y6015888D01*
X3757980Y6008166D01*
X3770122Y6002020D01*
X3783025Y5997549D01*
X3796385Y5994806D01*
X3810000Y5993892D01*
X3823614Y5994806D01*
X3836974Y5997549D01*
X3849878Y6002020D01*
X3862019Y6008166D01*
X3873246Y6015888D01*
X3883406Y6025032D01*
X3892194Y6035446D01*
X3899509Y6046927D01*
X3905250Y6059322D01*
X3909314Y6072327D01*
X3911549Y6085789D01*
X3912006Y6099403D01*
X3910685Y6112967D01*
X3907485Y6126226D01*
X3902608Y6138976D01*
X3896055Y6150914D01*
X3887978Y6161887D01*
X3878478Y6171692D01*
X3867759Y6180175D01*
X3856024Y6187135D01*
X3843477Y6192418D01*
X3830320Y6196025D01*
X3827983Y6196330D01*
X3823817Y6197904D01*
X3820668Y6201105D01*
X3819245Y6205372D01*
X3819753Y6209842D01*
X3822141Y6213602D01*
X4135424Y6526885D01*
X4138726Y6529070D01*
X4142638Y6529831D01*
X4152392Y6529831D01*
X4160418Y6530644D01*
X4167632Y6532829D01*
X4174337Y6536385D01*
X4180179Y6541211D01*
X4184954Y6547053D01*
X4188510Y6553708D01*
X4190695Y6560921D01*
X4191101Y6564731D01*
X4191863Y6567779D01*
X4193540Y6570421D01*
X4195876Y6572402D01*
X4202074Y6576212D01*
X4206138Y6580276D01*
X4207814Y6582918D01*
X4210608Y6585864D01*
X4214368Y6587490D01*
X4218432Y6587490D01*
X4222191Y6585864D01*
X4224985Y6582918D01*
X4226661Y6580276D01*
X4230776Y6576161D01*
X4235653Y6573113D01*
X4241139Y6571183D01*
X4247438Y6570472D01*
X4312361Y6570472D01*
X4318660Y6571183D01*
X4324146Y6573113D01*
X4329023Y6576161D01*
X4333138Y6580276D01*
X4334814Y6582918D01*
X4337608Y6585864D01*
X4341368Y6587490D01*
X4345432Y6587490D01*
X4349191Y6585864D01*
X4351985Y6582918D01*
X4353661Y6580276D01*
X4357776Y6576161D01*
X4362653Y6573113D01*
X4368139Y6571183D01*
X4374438Y6570472D01*
X4439361Y6570472D01*
X4445660Y6571183D01*
X4451146Y6573113D01*
X4456023Y6576161D01*
X4460138Y6580276D01*
X4461814Y6582918D01*
X4464608Y6585864D01*
X4468368Y6587490D01*
X4472432Y6587490D01*
X4476191Y6585864D01*
X4478985Y6582918D01*
X4480661Y6580276D01*
X4484776Y6576161D01*
X4489653Y6573113D01*
X4495139Y6571183D01*
X4501438Y6570472D01*
X4566361Y6570472D01*
X4572660Y6571183D01*
X4578146Y6573113D01*
X4583023Y6576161D01*
X4587138Y6580276D01*
X4588814Y6582918D01*
X4591608Y6585864D01*
X4595368Y6587490D01*
X4599432Y6587490D01*
X4603191Y6585864D01*
X4605985Y6582918D01*
X4607661Y6580276D01*
X4611776Y6576161D01*
X4616653Y6573113D01*
X4622139Y6571183D01*
X4628438Y6570472D01*
X4638040Y6570472D01*
X4638040Y6640830D01*
X4602988Y6640830D01*
X4599076Y6641592D01*
X4595825Y6643827D01*
X4593590Y6647078D01*
X4592828Y6650990D01*
X4592828Y6744970D01*
X4593590Y6748881D01*
X4595825Y6752132D01*
X4599076Y6754368D01*
X4602988Y6755130D01*
X4638040Y6755130D01*
X4638040Y6789318D01*
X4638802Y6793179D01*
X4641037Y6796481D01*
X4644288Y6798716D01*
X4648200Y6799478D01*
X4673600Y6799478D01*
X4677511Y6798716D01*
X4680762Y6796481D01*
X4682998Y6793179D01*
X4683760Y6789318D01*
X4683760Y6755130D01*
X4718812Y6755130D01*
X4722723Y6754368D01*
X4725974Y6752132D01*
X4728210Y6748881D01*
X4728972Y6744970D01*
X4728972Y6650990D01*
X4728210Y6647078D01*
X4725974Y6643827D01*
X4722723Y6641592D01*
X4718812Y6640830D01*
X4683760Y6640830D01*
X4683760Y6570472D01*
X4693361Y6570472D01*
X4699660Y6571183D01*
X4705146Y6573113D01*
X4710023Y6576161D01*
X4714138Y6580276D01*
X4715814Y6582918D01*
X4718608Y6585864D01*
X4722368Y6587490D01*
X4726432Y6587490D01*
X4730191Y6585864D01*
X4732985Y6582918D01*
X4734661Y6580276D01*
X4738776Y6576161D01*
X4743653Y6573113D01*
X4749139Y6571183D01*
X4755438Y6570472D01*
X4820361Y6570472D01*
X4826660Y6571183D01*
X4832146Y6573113D01*
X4837023Y6576161D01*
X4841138Y6580276D01*
X4844186Y6585153D01*
X4846116Y6590639D01*
X4846828Y6596938D01*
X4846828Y6799021D01*
X4846116Y6805320D01*
X4844237Y6810756D01*
X4840376Y6816750D01*
X4839208Y6819392D01*
X4838801Y6822236D01*
X4838801Y7376668D01*
X4839665Y7380731D01*
X4842103Y7384135D01*
X4845710Y7386269D01*
X4849876Y7386777D01*
X4860594Y7385812D01*
X4870348Y7386675D01*
X4879848Y7389215D01*
X4888738Y7393381D01*
X4896815Y7399020D01*
X4898390Y7400594D01*
X4901692Y7402830D01*
X4905603Y7403592D01*
X5741162Y7403592D01*
X5744921Y7402880D01*
X5748121Y7400798D01*
X5750356Y7397699D01*
X5752490Y7393127D01*
X5759805Y7381646D01*
X5768594Y7371232D01*
X5778754Y7362088D01*
X5789980Y7354366D01*
X5802122Y7348220D01*
X5815025Y7343749D01*
X5828385Y7341006D01*
X5842000Y7340092D01*
X5855614Y7341006D01*
X5868974Y7343749D01*
X5881878Y7348220D01*
X5894019Y7354366D01*
X5905246Y7362088D01*
X5915406Y7371232D01*
X5924194Y7381646D01*
X5931509Y7393127D01*
X5937250Y7405522D01*
X5941314Y7418527D01*
X5943549Y7431989D01*
X5944006Y7445603D01*
X5942685Y7459167D01*
X5939485Y7472425D01*
X5934608Y7485176D01*
X5928055Y7497114D01*
X5919978Y7508087D01*
X5910478Y7517892D01*
X5899759Y7526375D01*
X5888024Y7533335D01*
X5875477Y7538618D01*
X5862320Y7542225D01*
X5848807Y7544053D01*
X5835192Y7544053D01*
X5821680Y7542225D01*
X5808522Y7538618D01*
X5795975Y7533335D01*
X5784240Y7526375D01*
X5773521Y7517892D01*
X5764022Y7508087D01*
X5755944Y7497114D01*
X5749899Y7486091D01*
X5747613Y7483297D01*
X5744514Y7481468D01*
X5741009Y7480808D01*
X4905603Y7480808D01*
X4901692Y7481570D01*
X4898390Y7483805D01*
X4896815Y7485380D01*
X4888738Y7491018D01*
X4879848Y7495184D01*
X4870348Y7497724D01*
X4860594Y7498588D01*
X4849876Y7497622D01*
X4845710Y7498130D01*
X4842103Y7500264D01*
X4839665Y7503668D01*
X4838801Y7507731D01*
X4838801Y7579563D01*
X4839208Y7582408D01*
X4840376Y7585049D01*
X4844237Y7591044D01*
X4846116Y7596479D01*
X4846828Y7602778D01*
X4846828Y7804861D01*
X4846116Y7811160D01*
X4844186Y7816646D01*
X4841138Y7821523D01*
X4837023Y7825638D01*
X4832146Y7828686D01*
X4826660Y7830616D01*
X4820361Y7831328D01*
X4770780Y7831328D01*
X4766868Y7832090D01*
X4763617Y7834325D01*
X4761382Y7837576D01*
X4760620Y7841488D01*
X4760620Y7878521D01*
X4759807Y7886547D01*
X4757623Y7893761D01*
X4754067Y7900416D01*
X4748936Y7906664D01*
X4739386Y7916214D01*
X4737201Y7919516D01*
X4736439Y7923428D01*
X4736439Y8040217D01*
X4737404Y8044586D01*
X4740148Y8048091D01*
X4744110Y8050072D01*
X4748580Y8050174D01*
X4752644Y8048345D01*
X4764328Y8039658D01*
X4775962Y8033105D01*
X4775962Y8083753D01*
X4746599Y8083753D01*
X4742688Y8084515D01*
X4739386Y8086699D01*
X4737201Y8090001D01*
X4736439Y8093913D01*
X4736439Y8171281D01*
X4737201Y8175193D01*
X4739386Y8178495D01*
X4742688Y8180679D01*
X4746599Y8181441D01*
X4775962Y8181441D01*
X4775962Y8231886D01*
X4770374Y8229193D01*
X4758486Y8221472D01*
X4753152Y8216950D01*
X4749850Y8215020D01*
X4746040Y8214512D01*
X4742332Y8215426D01*
X4739182Y8217662D01*
X4737150Y8220913D01*
X4736439Y8224672D01*
X4736439Y8259114D01*
X4735626Y8267141D01*
X4733442Y8274354D01*
X4729886Y8281009D01*
X4724755Y8287258D01*
X4676394Y8335619D01*
X4674158Y8339023D01*
X4673396Y8342985D01*
X4678934Y8361934D01*
X4681169Y8375954D01*
X4681626Y8390128D01*
X4680254Y8404301D01*
X4677105Y8418169D01*
X4672228Y8431479D01*
X4665624Y8444077D01*
X4657496Y8455710D01*
X4647946Y8466277D01*
X4637125Y8475472D01*
X4625238Y8483193D01*
X4612436Y8489391D01*
X4598924Y8493861D01*
X4591050Y8495385D01*
X4587138Y8497062D01*
X4584242Y8500160D01*
X4582871Y8504224D01*
X4583277Y8508441D01*
X4585411Y8512149D01*
X4588814Y8514638D01*
X4592980Y8515502D01*
X4637074Y8515502D01*
X4640935Y8514740D01*
X4644237Y8512556D01*
X4719320Y8437473D01*
X4721453Y8434324D01*
X4722317Y8430564D01*
X4721656Y8426805D01*
X4718507Y8418169D01*
X4715357Y8404301D01*
X4713986Y8390128D01*
X4714443Y8375954D01*
X4716678Y8361934D01*
X4720742Y8348319D01*
X4726482Y8335314D01*
X4733848Y8323173D01*
X4742738Y8312048D01*
X4752949Y8302142D01*
X4764328Y8293658D01*
X4776673Y8286699D01*
X4789881Y8281365D01*
X4803597Y8277758D01*
X4817719Y8275929D01*
X4831892Y8275929D01*
X4846015Y8277758D01*
X4859731Y8281365D01*
X4872939Y8286699D01*
X4885283Y8293658D01*
X4896662Y8302142D01*
X4906873Y8312048D01*
X4915763Y8323173D01*
X4923129Y8335314D01*
X4928870Y8348319D01*
X4932934Y8361934D01*
X4935169Y8375954D01*
X4935626Y8390128D01*
X4934254Y8404301D01*
X4931105Y8418169D01*
X4926228Y8431479D01*
X4919624Y8444077D01*
X4911496Y8455710D01*
X4901946Y8466277D01*
X4891125Y8475472D01*
X4879238Y8483193D01*
X4866436Y8489391D01*
X4852924Y8493861D01*
X4839004Y8496554D01*
X4824831Y8497468D01*
X4810607Y8496554D01*
X4796688Y8493861D01*
X4784191Y8489696D01*
X4780534Y8489238D01*
X4776876Y8490051D01*
X4773828Y8492185D01*
X4698644Y8567369D01*
X4696460Y8570620D01*
X4695698Y8574532D01*
X4696460Y8578443D01*
X4698644Y8581694D01*
X4701946Y8583930D01*
X4705858Y8584692D01*
X7143800Y8584692D01*
X7166406Y8583777D01*
X7187793Y8581186D01*
X7208926Y8576970D01*
X7229602Y8571077D01*
X7249769Y8563610D01*
X7269327Y8554567D01*
X7288072Y8544052D01*
X7305954Y8532063D01*
X7322820Y8518702D01*
X7338618Y8504072D01*
X7353198Y8488273D01*
X7366508Y8471357D01*
X7378395Y8453424D01*
X7388910Y8434628D01*
X7397902Y8415070D01*
X7405319Y8394903D01*
X7411110Y8374176D01*
X7415275Y8353044D01*
X7417765Y8331657D01*
X7418831Y8308086D01*
X7418831Y5913069D01*
X7417714Y5888685D01*
X7415174Y5867298D01*
X7410907Y5846216D01*
X7405065Y5825490D01*
X7397597Y5805322D01*
X7388555Y5785815D01*
X7377988Y5767070D01*
X7366000Y5749188D01*
X7352690Y5732272D01*
X7338059Y5716524D01*
X7322210Y5701944D01*
X7305294Y5688634D01*
X7287412Y5676696D01*
X7268616Y5666232D01*
X7249058Y5657240D01*
X7228840Y5649823D01*
X7208113Y5643981D01*
X7187031Y5639816D01*
X7165644Y5637326D01*
X7143851Y5636514D01*
G37*

%LPC*%
G36*
X6515658Y5714492D02*
G01*
X6717741Y5714492D01*
X6724040Y5715203D01*
X6729526Y5717133D01*
X6734403Y5720181D01*
X6738518Y5724296D01*
X6741566Y5729173D01*
X6743496Y5734659D01*
X6744208Y5740958D01*
X6744208Y5943041D01*
X6743496Y5949340D01*
X6741566Y5954826D01*
X6738518Y5959703D01*
X6734403Y5963818D01*
X6729526Y5966866D01*
X6724040Y5968796D01*
X6717741Y5969508D01*
X6689902Y5969508D01*
X6685635Y5970422D01*
X6682130Y5973064D01*
X6680098Y5976924D01*
X6679844Y5981293D01*
X6681470Y5985357D01*
X6684619Y5988354D01*
X6689140Y5991098D01*
X6701231Y6000597D01*
X6712102Y6011468D01*
X6721602Y6023559D01*
X6729577Y6036767D01*
X6735927Y6050788D01*
X6740499Y6065469D01*
X6743242Y6080607D01*
X6744208Y6096000D01*
X6743242Y6111392D01*
X6740499Y6126530D01*
X6735927Y6141212D01*
X6729577Y6155232D01*
X6721602Y6168440D01*
X6712102Y6180531D01*
X6701231Y6191402D01*
X6689140Y6200902D01*
X6675932Y6208877D01*
X6665163Y6213754D01*
X6662013Y6215938D01*
X6659930Y6219190D01*
X6659168Y6223000D01*
X6659930Y6226810D01*
X6662013Y6230061D01*
X6665163Y6232245D01*
X6675932Y6237122D01*
X6689140Y6245098D01*
X6701231Y6254597D01*
X6712102Y6265468D01*
X6721602Y6277559D01*
X6729577Y6290767D01*
X6735927Y6304788D01*
X6740499Y6319469D01*
X6743242Y6334607D01*
X6744208Y6350000D01*
X6743242Y6365392D01*
X6740499Y6380530D01*
X6735927Y6395212D01*
X6729577Y6409232D01*
X6721602Y6422440D01*
X6712102Y6434531D01*
X6701231Y6445402D01*
X6689140Y6454902D01*
X6675932Y6462877D01*
X6665163Y6467754D01*
X6662013Y6469938D01*
X6659930Y6473190D01*
X6659168Y6477000D01*
X6659930Y6480810D01*
X6662013Y6484061D01*
X6665163Y6486245D01*
X6675932Y6491122D01*
X6689140Y6499098D01*
X6701231Y6508597D01*
X6712102Y6519468D01*
X6721602Y6531559D01*
X6729577Y6544767D01*
X6735927Y6558788D01*
X6740499Y6573469D01*
X6743242Y6588607D01*
X6744208Y6604000D01*
X6743242Y6619392D01*
X6740499Y6634530D01*
X6735927Y6649212D01*
X6729577Y6663232D01*
X6721602Y6676440D01*
X6712102Y6688531D01*
X6701231Y6699402D01*
X6689140Y6708902D01*
X6675932Y6716877D01*
X6665163Y6721754D01*
X6662013Y6723938D01*
X6659930Y6727190D01*
X6659168Y6731000D01*
X6659930Y6734809D01*
X6662013Y6738061D01*
X6665163Y6740245D01*
X6675932Y6745122D01*
X6689140Y6753098D01*
X6701231Y6762597D01*
X6712102Y6773468D01*
X6721602Y6785559D01*
X6729577Y6798767D01*
X6735927Y6812788D01*
X6740499Y6827469D01*
X6743242Y6842607D01*
X6744208Y6858000D01*
X6743242Y6873392D01*
X6740499Y6888530D01*
X6735927Y6903212D01*
X6729577Y6917232D01*
X6721602Y6930440D01*
X6712102Y6942531D01*
X6701231Y6953402D01*
X6689140Y6962902D01*
X6675932Y6970877D01*
X6665163Y6975754D01*
X6662013Y6977938D01*
X6659930Y6981190D01*
X6659168Y6985000D01*
X6659930Y6988809D01*
X6662013Y6992061D01*
X6665163Y6994245D01*
X6675932Y6999122D01*
X6689140Y7007098D01*
X6701231Y7016597D01*
X6712102Y7027468D01*
X6721602Y7039559D01*
X6729577Y7052767D01*
X6735927Y7066788D01*
X6740499Y7081469D01*
X6743242Y7096607D01*
X6744208Y7112000D01*
X6743242Y7127392D01*
X6740499Y7142530D01*
X6735927Y7157212D01*
X6729577Y7171232D01*
X6721602Y7184440D01*
X6712102Y7196531D01*
X6701231Y7207402D01*
X6689140Y7216902D01*
X6675932Y7224877D01*
X6665163Y7229754D01*
X6662013Y7231938D01*
X6659930Y7235190D01*
X6659168Y7239000D01*
X6659930Y7242809D01*
X6662013Y7246061D01*
X6665163Y7248245D01*
X6675932Y7253122D01*
X6689140Y7261098D01*
X6701231Y7270597D01*
X6712102Y7281468D01*
X6721602Y7293559D01*
X6729577Y7306767D01*
X6735927Y7320788D01*
X6740499Y7335469D01*
X6743242Y7350607D01*
X6744208Y7366000D01*
X6743242Y7381392D01*
X6740499Y7396530D01*
X6735927Y7411212D01*
X6729577Y7425232D01*
X6721602Y7438440D01*
X6712102Y7450531D01*
X6701231Y7461402D01*
X6689140Y7470902D01*
X6675932Y7478877D01*
X6665163Y7483754D01*
X6662013Y7485938D01*
X6659930Y7489190D01*
X6659168Y7493000D01*
X6659930Y7496809D01*
X6662013Y7500061D01*
X6665163Y7502245D01*
X6675932Y7507122D01*
X6689140Y7515098D01*
X6701231Y7524597D01*
X6712102Y7535468D01*
X6721602Y7547559D01*
X6729577Y7560767D01*
X6735927Y7574788D01*
X6740499Y7589469D01*
X6743242Y7604607D01*
X6744208Y7620000D01*
X6743242Y7635392D01*
X6740499Y7650530D01*
X6735927Y7665212D01*
X6729577Y7679232D01*
X6721602Y7692440D01*
X6712102Y7704531D01*
X6701231Y7715402D01*
X6689140Y7724902D01*
X6675932Y7732877D01*
X6661912Y7739227D01*
X6647230Y7743799D01*
X6632092Y7746542D01*
X6616700Y7747508D01*
X6601307Y7746542D01*
X6586169Y7743799D01*
X6571488Y7739227D01*
X6557467Y7732877D01*
X6544259Y7724902D01*
X6532168Y7715402D01*
X6521297Y7704531D01*
X6511798Y7692440D01*
X6503822Y7679232D01*
X6497472Y7665212D01*
X6492900Y7650530D01*
X6490157Y7635392D01*
X6489192Y7620000D01*
X6490157Y7604607D01*
X6492900Y7589469D01*
X6497472Y7574788D01*
X6503822Y7560767D01*
X6511798Y7547559D01*
X6521297Y7535468D01*
X6532168Y7524597D01*
X6544259Y7515098D01*
X6557467Y7507122D01*
X6568236Y7502245D01*
X6571386Y7500061D01*
X6573469Y7496809D01*
X6574231Y7493000D01*
X6573469Y7489190D01*
X6571386Y7485938D01*
X6568236Y7483754D01*
X6557467Y7478877D01*
X6544259Y7470902D01*
X6532168Y7461402D01*
X6521297Y7450531D01*
X6511798Y7438440D01*
X6503822Y7425232D01*
X6497472Y7411212D01*
X6492900Y7396530D01*
X6490157Y7381392D01*
X6489192Y7366000D01*
X6490157Y7350607D01*
X6492900Y7335469D01*
X6497472Y7320788D01*
X6503822Y7306767D01*
X6511798Y7293559D01*
X6521297Y7281468D01*
X6532168Y7270597D01*
X6544259Y7261098D01*
X6557467Y7253122D01*
X6568236Y7248245D01*
X6571386Y7246061D01*
X6573469Y7242809D01*
X6574231Y7239000D01*
X6573469Y7235190D01*
X6571386Y7231938D01*
X6568236Y7229754D01*
X6557467Y7224877D01*
X6544259Y7216902D01*
X6532168Y7207402D01*
X6521297Y7196531D01*
X6511798Y7184440D01*
X6503822Y7171232D01*
X6497472Y7157212D01*
X6492900Y7142530D01*
X6490157Y7127392D01*
X6489192Y7112000D01*
X6490157Y7096607D01*
X6492900Y7081469D01*
X6497472Y7066788D01*
X6503822Y7052767D01*
X6511798Y7039559D01*
X6521297Y7027468D01*
X6532168Y7016597D01*
X6544259Y7007098D01*
X6557467Y6999122D01*
X6568236Y6994245D01*
X6571386Y6992061D01*
X6573469Y6988809D01*
X6574231Y6985000D01*
X6573469Y6981190D01*
X6571386Y6977938D01*
X6568236Y6975754D01*
X6557467Y6970877D01*
X6544259Y6962902D01*
X6532168Y6953402D01*
X6521297Y6942531D01*
X6511798Y6930440D01*
X6503822Y6917232D01*
X6497472Y6903212D01*
X6492900Y6888530D01*
X6490157Y6873392D01*
X6489192Y6858000D01*
X6490157Y6842607D01*
X6492900Y6827469D01*
X6497472Y6812788D01*
X6503822Y6798767D01*
X6511798Y6785559D01*
X6521297Y6773468D01*
X6532168Y6762597D01*
X6544259Y6753098D01*
X6557467Y6745122D01*
X6568236Y6740245D01*
X6571386Y6738061D01*
X6573469Y6734809D01*
X6574231Y6731000D01*
X6573469Y6727190D01*
X6571386Y6723938D01*
X6568236Y6721754D01*
X6557467Y6716877D01*
X6544259Y6708902D01*
X6532168Y6699402D01*
X6521297Y6688531D01*
X6511798Y6676440D01*
X6503822Y6663232D01*
X6497472Y6649212D01*
X6492900Y6634530D01*
X6490157Y6619392D01*
X6489192Y6604000D01*
X6490157Y6588607D01*
X6492900Y6573469D01*
X6497472Y6558788D01*
X6503822Y6544767D01*
X6511798Y6531559D01*
X6521297Y6519468D01*
X6532168Y6508597D01*
X6544259Y6499098D01*
X6557467Y6491122D01*
X6568236Y6486245D01*
X6571386Y6484061D01*
X6573469Y6480810D01*
X6574231Y6477000D01*
X6573469Y6473190D01*
X6571386Y6469938D01*
X6568236Y6467754D01*
X6557467Y6462877D01*
X6544259Y6454902D01*
X6532168Y6445402D01*
X6521297Y6434531D01*
X6511798Y6422440D01*
X6503822Y6409232D01*
X6497472Y6395212D01*
X6492900Y6380530D01*
X6490157Y6365392D01*
X6489192Y6350000D01*
X6490157Y6334607D01*
X6492900Y6319469D01*
X6497472Y6304788D01*
X6503822Y6290767D01*
X6511798Y6277559D01*
X6521297Y6265468D01*
X6532168Y6254597D01*
X6544259Y6245098D01*
X6557467Y6237122D01*
X6568236Y6232245D01*
X6571386Y6230061D01*
X6573469Y6226810D01*
X6574231Y6223000D01*
X6573469Y6219190D01*
X6571386Y6215938D01*
X6568236Y6213754D01*
X6557467Y6208877D01*
X6544259Y6200902D01*
X6532168Y6191402D01*
X6521297Y6180531D01*
X6511798Y6168440D01*
X6503822Y6155232D01*
X6497472Y6141212D01*
X6492900Y6126530D01*
X6490157Y6111392D01*
X6489192Y6096000D01*
X6490157Y6080607D01*
X6492900Y6065469D01*
X6497472Y6050788D01*
X6503822Y6036767D01*
X6511798Y6023559D01*
X6521297Y6011468D01*
X6532168Y6000597D01*
X6544259Y5991098D01*
X6548780Y5988354D01*
X6551930Y5985357D01*
X6553555Y5981293D01*
X6553301Y5976924D01*
X6551269Y5973064D01*
X6547764Y5970422D01*
X6543497Y5969508D01*
X6515658Y5969508D01*
X6509359Y5968796D01*
X6503873Y5966866D01*
X6498996Y5963818D01*
X6494881Y5959703D01*
X6491833Y5954826D01*
X6489903Y5949340D01*
X6489192Y5943041D01*
X6489192Y5889955D01*
X6488633Y5886602D01*
X6486956Y5883605D01*
X6484366Y5881319D01*
X6481216Y5880049D01*
X6475730Y5879084D01*
X5958128Y5879084D01*
X5954369Y5879795D01*
X5951169Y5881827D01*
X5948934Y5884926D01*
X5943549Y5896356D01*
X5935776Y5908598D01*
X5926480Y5919825D01*
X5915863Y5929782D01*
X5904077Y5938367D01*
X5891326Y5945378D01*
X5877814Y5950712D01*
X5863691Y5954318D01*
X5849264Y5956147D01*
X5834735Y5956147D01*
X5820308Y5954318D01*
X5806186Y5950712D01*
X5792673Y5945378D01*
X5779922Y5938367D01*
X5768136Y5929782D01*
X5757519Y5919825D01*
X5748223Y5908598D01*
X5740450Y5896356D01*
X5734253Y5883148D01*
X5729732Y5869330D01*
X5727039Y5855004D01*
X5726125Y5840476D01*
X5727039Y5825998D01*
X5729732Y5811672D01*
X5734253Y5797854D01*
X5740450Y5784646D01*
X5748223Y5772404D01*
X5757519Y5761177D01*
X5768136Y5751220D01*
X5779922Y5742635D01*
X5792673Y5735624D01*
X5806186Y5730290D01*
X5820308Y5726684D01*
X5834735Y5724855D01*
X5849264Y5724855D01*
X5863691Y5726684D01*
X5877814Y5730290D01*
X5891326Y5735624D01*
X5904077Y5742635D01*
X5915863Y5751220D01*
X5926480Y5761177D01*
X5935776Y5772404D01*
X5943549Y5784646D01*
X5948883Y5796026D01*
X5951118Y5799124D01*
X5954369Y5801156D01*
X5958078Y5801868D01*
X6479032Y5801868D01*
X6482943Y5801106D01*
X6486194Y5798870D01*
X6488430Y5795619D01*
X6489192Y5791708D01*
X6489192Y5740958D01*
X6489903Y5734659D01*
X6491833Y5729173D01*
X6494881Y5724296D01*
X6498996Y5720181D01*
X6503873Y5717133D01*
X6509359Y5715203D01*
G37*
G36*
X5374741Y5724855D02*
G01*
X5389270Y5724855D01*
X5403697Y5726684D01*
X5417820Y5730290D01*
X5431332Y5735624D01*
X5444083Y5742635D01*
X5455869Y5751220D01*
X5466486Y5761177D01*
X5475732Y5772404D01*
X5483555Y5784646D01*
X5489752Y5797854D01*
X5494223Y5811672D01*
X5496966Y5825998D01*
X5497880Y5840476D01*
X5496966Y5855004D01*
X5494223Y5869330D01*
X5489752Y5883148D01*
X5483555Y5896356D01*
X5475732Y5908598D01*
X5466486Y5919825D01*
X5455869Y5929782D01*
X5444083Y5938367D01*
X5431332Y5945378D01*
X5417820Y5950712D01*
X5403697Y5954318D01*
X5389270Y5956147D01*
X5374741Y5956147D01*
X5360263Y5954318D01*
X5346192Y5950712D01*
X5332679Y5945378D01*
X5319928Y5938367D01*
X5308142Y5929782D01*
X5297525Y5919825D01*
X5288229Y5908598D01*
X5280456Y5896356D01*
X5274259Y5883148D01*
X5269738Y5869330D01*
X5267045Y5855004D01*
X5266131Y5840476D01*
X5267045Y5825998D01*
X5269738Y5811672D01*
X5274259Y5797854D01*
X5280456Y5784646D01*
X5288229Y5772404D01*
X5297525Y5761177D01*
X5308142Y5751220D01*
X5319928Y5742635D01*
X5332679Y5735624D01*
X5346192Y5730290D01*
X5360263Y5726684D01*
G37*
G36*
X1285443Y5797245D02*
G01*
X1302867Y5797702D01*
X1320088Y5800039D01*
X1337005Y5804154D01*
X1353362Y5810046D01*
X1369009Y5817666D01*
X1383741Y5826861D01*
X1397406Y5837631D01*
X1409852Y5849772D01*
X1420977Y5863132D01*
X1430578Y5877661D01*
X1438605Y5893054D01*
X1444955Y5909259D01*
X1449527Y5926074D01*
X1452270Y5943244D01*
X1453184Y5960567D01*
X1452270Y5977940D01*
X1449527Y5995111D01*
X1444955Y6011926D01*
X1438605Y6028131D01*
X1430578Y6043523D01*
X1420977Y6058052D01*
X1409852Y6071412D01*
X1397406Y6083554D01*
X1383741Y6094272D01*
X1369009Y6103518D01*
X1353362Y6111138D01*
X1337005Y6117031D01*
X1320088Y6121146D01*
X1302867Y6123482D01*
X1285443Y6123940D01*
X1268120Y6122517D01*
X1251051Y6119317D01*
X1234389Y6114288D01*
X1218336Y6107531D01*
X1203147Y6099098D01*
X1188923Y6089091D01*
X1175816Y6077661D01*
X1164031Y6064859D01*
X1153668Y6050940D01*
X1144828Y6035954D01*
X1137615Y6020104D01*
X1132179Y6003594D01*
X1128522Y5986576D01*
X1126642Y5969304D01*
X1126642Y5951880D01*
X1128522Y5934608D01*
X1132179Y5917590D01*
X1137615Y5901080D01*
X1144828Y5885230D01*
X1153668Y5870244D01*
X1164031Y5856325D01*
X1175816Y5843524D01*
X1188923Y5832094D01*
X1203147Y5822086D01*
X1218336Y5813653D01*
X1234389Y5806897D01*
X1251051Y5801868D01*
X1268120Y5798667D01*
G37*
G36*
X7085431Y5797245D02*
G01*
X7102856Y5797702D01*
X7120077Y5800039D01*
X7136993Y5804154D01*
X7153351Y5810046D01*
X7168997Y5817666D01*
X7183729Y5826861D01*
X7197394Y5837631D01*
X7209840Y5849772D01*
X7220966Y5863132D01*
X7230567Y5877661D01*
X7238593Y5893054D01*
X7244943Y5909259D01*
X7249515Y5926074D01*
X7252258Y5943244D01*
X7253173Y5960567D01*
X7252258Y5977940D01*
X7249515Y5995111D01*
X7244943Y6011926D01*
X7238593Y6028131D01*
X7230567Y6043523D01*
X7220966Y6058052D01*
X7209840Y6071412D01*
X7197394Y6083554D01*
X7183729Y6094272D01*
X7168997Y6103518D01*
X7153351Y6111138D01*
X7136993Y6117031D01*
X7120077Y6121146D01*
X7102856Y6123482D01*
X7085431Y6123940D01*
X7068108Y6122517D01*
X7051040Y6119317D01*
X7034377Y6114288D01*
X7018324Y6107531D01*
X7003135Y6099098D01*
X6988911Y6089091D01*
X6975805Y6077661D01*
X6964019Y6064859D01*
X6953656Y6050940D01*
X6944817Y6035954D01*
X6937603Y6020104D01*
X6932168Y6003594D01*
X6928510Y5986576D01*
X6926630Y5969304D01*
X6926630Y5951880D01*
X6928510Y5934608D01*
X6932168Y5917590D01*
X6937603Y5901080D01*
X6944817Y5885230D01*
X6953656Y5870244D01*
X6964019Y5856325D01*
X6975805Y5843524D01*
X6988911Y5832094D01*
X7003135Y5822086D01*
X7018324Y5813653D01*
X7034377Y5806897D01*
X7051040Y5801868D01*
X7068108Y5798667D01*
G37*
G36*
X4108450Y5886450D02*
G01*
X4155795Y5886450D01*
X4150055Y5896914D01*
X4141978Y5907887D01*
X4132478Y5917692D01*
X4121759Y5926175D01*
X4110024Y5933135D01*
X4108450Y5933795D01*
G37*
G36*
X3972204Y5886450D02*
G01*
X4019550Y5886450D01*
X4019550Y5933795D01*
X4017975Y5933135D01*
X4006240Y5926175D01*
X3995521Y5917692D01*
X3986022Y5907887D01*
X3977944Y5896914D01*
G37*
G36*
X4064000Y5993892D02*
G01*
X4077614Y5994806D01*
X4090974Y5997549D01*
X4103878Y6002020D01*
X4116019Y6008166D01*
X4127246Y6015888D01*
X4137406Y6025032D01*
X4146194Y6035446D01*
X4153509Y6046927D01*
X4159250Y6059322D01*
X4163314Y6072327D01*
X4165549Y6085789D01*
X4166006Y6099403D01*
X4164685Y6112967D01*
X4161485Y6126226D01*
X4156608Y6138976D01*
X4150055Y6150914D01*
X4141978Y6161887D01*
X4132478Y6171692D01*
X4121759Y6180175D01*
X4110024Y6187135D01*
X4097477Y6192418D01*
X4084320Y6196025D01*
X4070807Y6197854D01*
X4057192Y6197854D01*
X4043679Y6196025D01*
X4030522Y6192418D01*
X4017975Y6187135D01*
X4006240Y6180175D01*
X3995521Y6171692D01*
X3986022Y6161887D01*
X3977944Y6150914D01*
X3971391Y6138976D01*
X3966514Y6126226D01*
X3963314Y6112967D01*
X3961993Y6099403D01*
X3962450Y6085789D01*
X3964686Y6072327D01*
X3968750Y6059322D01*
X3974490Y6046927D01*
X3981805Y6035446D01*
X3990594Y6025032D01*
X4000754Y6015888D01*
X4011980Y6008166D01*
X4024122Y6002020D01*
X4037025Y5997549D01*
X4050385Y5994806D01*
G37*
G36*
X4318000Y5993892D02*
G01*
X4331614Y5994806D01*
X4344974Y5997549D01*
X4357878Y6002020D01*
X4370019Y6008166D01*
X4381246Y6015888D01*
X4391406Y6025032D01*
X4400194Y6035446D01*
X4407509Y6046927D01*
X4413250Y6059322D01*
X4417314Y6072327D01*
X4419549Y6085789D01*
X4420006Y6099403D01*
X4418685Y6112967D01*
X4415485Y6126226D01*
X4410608Y6138976D01*
X4404055Y6150914D01*
X4395978Y6161887D01*
X4386478Y6171692D01*
X4375759Y6180175D01*
X4364024Y6187135D01*
X4351477Y6192418D01*
X4338320Y6196025D01*
X4324807Y6197854D01*
X4311192Y6197854D01*
X4297680Y6196025D01*
X4284522Y6192418D01*
X4271975Y6187135D01*
X4260240Y6180175D01*
X4249521Y6171692D01*
X4240022Y6161887D01*
X4231944Y6150914D01*
X4225391Y6138976D01*
X4220514Y6126226D01*
X4217314Y6112967D01*
X4215993Y6099403D01*
X4216450Y6085789D01*
X4218686Y6072327D01*
X4222750Y6059322D01*
X4228490Y6046927D01*
X4235805Y6035446D01*
X4244594Y6025032D01*
X4254754Y6015888D01*
X4265980Y6008166D01*
X4278122Y6002020D01*
X4291025Y5997549D01*
X4304385Y5994806D01*
G37*
G36*
X5374741Y6424828D02*
G01*
X5389270Y6424828D01*
X5403697Y6426657D01*
X5417820Y6430264D01*
X5431332Y6435648D01*
X5444083Y6442659D01*
X5455869Y6451193D01*
X5466486Y6461150D01*
X5475732Y6472377D01*
X5483555Y6484670D01*
X5489752Y6497828D01*
X5494223Y6511696D01*
X5496966Y6525971D01*
X5497880Y6540500D01*
X5496966Y6555028D01*
X5494223Y6569303D01*
X5489752Y6583172D01*
X5483555Y6596329D01*
X5475732Y6608622D01*
X5466486Y6619849D01*
X5455869Y6629806D01*
X5444083Y6638340D01*
X5431332Y6645351D01*
X5417820Y6650736D01*
X5403697Y6654342D01*
X5389270Y6656171D01*
X5374741Y6656171D01*
X5360263Y6654342D01*
X5346192Y6650736D01*
X5332679Y6645351D01*
X5319928Y6638340D01*
X5308142Y6629806D01*
X5297525Y6619849D01*
X5288229Y6608622D01*
X5280456Y6596329D01*
X5274259Y6583172D01*
X5269738Y6569303D01*
X5267045Y6555028D01*
X5266131Y6540500D01*
X5267045Y6525971D01*
X5269738Y6511696D01*
X5274259Y6497828D01*
X5280456Y6484670D01*
X5288229Y6472377D01*
X5297525Y6461150D01*
X5308142Y6451193D01*
X5319928Y6442659D01*
X5332679Y6435648D01*
X5346192Y6430264D01*
X5360263Y6426657D01*
G37*
G36*
X5834735Y6424828D02*
G01*
X5849264Y6424828D01*
X5863691Y6426657D01*
X5877814Y6430264D01*
X5891326Y6435648D01*
X5904077Y6442659D01*
X5915863Y6451193D01*
X5926480Y6461150D01*
X5935776Y6472377D01*
X5943549Y6484670D01*
X5949746Y6497828D01*
X5954268Y6511696D01*
X5956960Y6525971D01*
X5957874Y6540500D01*
X5956960Y6555028D01*
X5954268Y6569303D01*
X5949746Y6583172D01*
X5943549Y6596329D01*
X5935776Y6608622D01*
X5926480Y6619849D01*
X5915863Y6629806D01*
X5904077Y6638340D01*
X5891326Y6645351D01*
X5877814Y6650736D01*
X5863691Y6654342D01*
X5849264Y6656171D01*
X5834735Y6656171D01*
X5820308Y6654342D01*
X5806186Y6650736D01*
X5792673Y6645351D01*
X5779922Y6638340D01*
X5768136Y6629806D01*
X5757519Y6619849D01*
X5748223Y6608622D01*
X5740450Y6596329D01*
X5734253Y6583172D01*
X5729732Y6569303D01*
X5727039Y6555028D01*
X5726125Y6540500D01*
X5727039Y6525971D01*
X5729732Y6511696D01*
X5734253Y6497828D01*
X5740450Y6484670D01*
X5748223Y6472377D01*
X5757519Y6461150D01*
X5768136Y6451193D01*
X5779922Y6442659D01*
X5792673Y6435648D01*
X5806186Y6430264D01*
X5820308Y6426657D01*
G37*
G36*
X1329029Y6483654D02*
G01*
X1335633Y6486906D01*
X1347165Y6494576D01*
X1357579Y6503720D01*
X1366723Y6514134D01*
X1374394Y6525666D01*
X1377645Y6532270D01*
X1329029Y6532270D01*
G37*
G36*
X1236370Y6483654D02*
G01*
X1236370Y6532270D01*
X1187754Y6532270D01*
X1191006Y6525666D01*
X1198676Y6514134D01*
X1207820Y6503720D01*
X1218234Y6494576D01*
X1229766Y6486906D01*
G37*
G36*
X1329029Y6624929D02*
G01*
X1377645Y6624929D01*
X1374394Y6631533D01*
X1366723Y6643065D01*
X1357579Y6653479D01*
X1347165Y6662623D01*
X1335633Y6670294D01*
X1329029Y6673545D01*
G37*
G36*
X1187754Y6624929D02*
G01*
X1236370Y6624929D01*
X1236370Y6673545D01*
X1229766Y6670294D01*
X1218234Y6662623D01*
X1207820Y6653479D01*
X1198676Y6643065D01*
X1191006Y6631533D01*
G37*
G36*
X5842000Y6730492D02*
G01*
X5855614Y6731406D01*
X5868974Y6734149D01*
X5881878Y6738620D01*
X5894019Y6744766D01*
X5905246Y6752488D01*
X5915406Y6761632D01*
X5924194Y6772046D01*
X5931509Y6783527D01*
X5937250Y6795922D01*
X5941314Y6808927D01*
X5943549Y6822389D01*
X5944006Y6836003D01*
X5942685Y6849567D01*
X5939485Y6862825D01*
X5934608Y6875576D01*
X5928055Y6887514D01*
X5919978Y6898487D01*
X5910478Y6908292D01*
X5899759Y6916775D01*
X5888024Y6923735D01*
X5875477Y6929018D01*
X5862320Y6932625D01*
X5848807Y6934453D01*
X5835192Y6934453D01*
X5821680Y6932625D01*
X5808522Y6929018D01*
X5795975Y6923735D01*
X5784240Y6916775D01*
X5773521Y6908292D01*
X5764022Y6898487D01*
X5755944Y6887514D01*
X5749391Y6875576D01*
X5744514Y6862825D01*
X5741314Y6849567D01*
X5739993Y6836003D01*
X5740450Y6822389D01*
X5742686Y6808927D01*
X5746750Y6795922D01*
X5752490Y6783527D01*
X5759805Y6772046D01*
X5768594Y6761632D01*
X5778754Y6752488D01*
X5789980Y6744766D01*
X5802122Y6738620D01*
X5815025Y6734149D01*
X5828385Y6731406D01*
G37*
G36*
X2557018Y7054342D02*
G01*
X2566771Y7055205D01*
X2576271Y7057745D01*
X2585161Y7061911D01*
X2593238Y7067499D01*
X2594813Y7069124D01*
X2598115Y7071309D01*
X2602026Y7072071D01*
X3218332Y7072071D01*
X3222244Y7071309D01*
X3225546Y7069124D01*
X3227120Y7067499D01*
X3235198Y7061911D01*
X3244088Y7057745D01*
X3253587Y7055205D01*
X3263392Y7054342D01*
X3273145Y7055205D01*
X3282645Y7057745D01*
X3291535Y7061911D01*
X3299612Y7067499D01*
X3306572Y7074458D01*
X3312160Y7082536D01*
X3316325Y7091425D01*
X3318865Y7100925D01*
X3319729Y7110679D01*
X3318865Y7120483D01*
X3316325Y7129983D01*
X3312160Y7138873D01*
X3306572Y7146950D01*
X3299612Y7153909D01*
X3291535Y7159498D01*
X3282645Y7163663D01*
X3273145Y7166203D01*
X3263392Y7167067D01*
X3253587Y7166203D01*
X3244088Y7163663D01*
X3235198Y7159498D01*
X3227120Y7153909D01*
X3225546Y7152284D01*
X3222244Y7150100D01*
X3218332Y7149287D01*
X2602026Y7149287D01*
X2598115Y7150100D01*
X2594813Y7152284D01*
X2593238Y7153909D01*
X2585161Y7159498D01*
X2576271Y7163663D01*
X2566771Y7166203D01*
X2557018Y7167067D01*
X2547213Y7166203D01*
X2537714Y7163663D01*
X2528824Y7159498D01*
X2520746Y7153909D01*
X2513787Y7146950D01*
X2508199Y7138873D01*
X2504033Y7129983D01*
X2501493Y7120483D01*
X2500630Y7110679D01*
X2501493Y7100925D01*
X2504033Y7091425D01*
X2508199Y7082536D01*
X2513787Y7074458D01*
X2520746Y7067499D01*
X2528824Y7061911D01*
X2537714Y7057745D01*
X2547213Y7055205D01*
G37*
G36*
X1224280Y7272121D02*
G01*
X1224280Y7320280D01*
X1176121Y7320280D01*
X1179372Y7313675D01*
X1186992Y7302296D01*
X1196035Y7292035D01*
X1206296Y7282992D01*
X1217676Y7275372D01*
G37*
G36*
X1315720Y7272121D02*
G01*
X1322324Y7275372D01*
X1333703Y7282992D01*
X1343964Y7292035D01*
X1353007Y7302296D01*
X1360627Y7313675D01*
X1363878Y7320280D01*
X1315720Y7320280D01*
G37*
G36*
X1176121Y7411720D02*
G01*
X1224280Y7411720D01*
X1224280Y7459878D01*
X1217676Y7456627D01*
X1206296Y7449007D01*
X1196035Y7439964D01*
X1186992Y7429703D01*
X1179372Y7418324D01*
G37*
G36*
X1315720Y7411720D02*
G01*
X1363878Y7411720D01*
X1360627Y7418324D01*
X1353007Y7429703D01*
X1343964Y7439964D01*
X1333703Y7449007D01*
X1322324Y7456627D01*
X1315720Y7459878D01*
G37*
G36*
X1191818Y7515352D02*
G01*
X1348181Y7515352D01*
X1354480Y7516063D01*
X1359966Y7517993D01*
X1364843Y7521041D01*
X1368958Y7525156D01*
X1372006Y7530033D01*
X1373936Y7535519D01*
X1374648Y7541818D01*
X1374648Y7698181D01*
X1373936Y7704480D01*
X1372006Y7709966D01*
X1368958Y7714843D01*
X1364843Y7718958D01*
X1359966Y7722006D01*
X1354480Y7723936D01*
X1348181Y7724648D01*
X1191818Y7724648D01*
X1185519Y7723936D01*
X1180033Y7722006D01*
X1175156Y7718958D01*
X1171041Y7714843D01*
X1167993Y7709966D01*
X1166063Y7704480D01*
X1165352Y7698181D01*
X1165352Y7541818D01*
X1166063Y7535519D01*
X1167993Y7530033D01*
X1171041Y7525156D01*
X1175156Y7521041D01*
X1180033Y7517993D01*
X1185519Y7516063D01*
G37*
G36*
X2012238Y7576312D02*
G01*
X2021839Y7576312D01*
X2021839Y7646670D01*
X1985772Y7646670D01*
X1985772Y7602778D01*
X1986483Y7596479D01*
X1988413Y7590993D01*
X1991461Y7586116D01*
X1995576Y7582001D01*
X2000453Y7578953D01*
X2005939Y7577023D01*
G37*
G36*
X1985772Y7760970D02*
G01*
X2021839Y7760970D01*
X2021839Y7831328D01*
X2012238Y7831328D01*
X2005939Y7830616D01*
X2000453Y7828686D01*
X1995576Y7825638D01*
X1991461Y7821523D01*
X1988413Y7816646D01*
X1986483Y7811160D01*
X1985772Y7804861D01*
G37*
G36*
X1692351Y8021675D02*
G01*
X1861261Y8021675D01*
X1867560Y8022386D01*
X1872996Y8024317D01*
X1877923Y8027416D01*
X1881987Y8031480D01*
X1885086Y8036407D01*
X1887016Y8041843D01*
X1887728Y8048142D01*
X1887728Y8217052D01*
X1887016Y8223351D01*
X1885086Y8228787D01*
X1881987Y8233714D01*
X1877923Y8237778D01*
X1872996Y8240877D01*
X1867560Y8242808D01*
X1861261Y8243519D01*
X1692351Y8243519D01*
X1686052Y8242808D01*
X1680616Y8240877D01*
X1675688Y8237778D01*
X1671624Y8233714D01*
X1668525Y8228787D01*
X1666595Y8223351D01*
X1665884Y8217052D01*
X1665884Y8048142D01*
X1666595Y8041843D01*
X1668525Y8036407D01*
X1671624Y8031480D01*
X1675688Y8027416D01*
X1680616Y8024317D01*
X1686052Y8022386D01*
G37*
G36*
X5833719Y8021929D02*
G01*
X5847892Y8021929D01*
X5862015Y8023758D01*
X5875731Y8027365D01*
X5888939Y8032699D01*
X5901283Y8039658D01*
X5912662Y8048142D01*
X5922873Y8058048D01*
X5931763Y8069173D01*
X5939129Y8081314D01*
X5944870Y8094319D01*
X5948934Y8107934D01*
X5951169Y8121954D01*
X5951626Y8136128D01*
X5950254Y8150301D01*
X5947105Y8164169D01*
X5942228Y8177479D01*
X5935624Y8190077D01*
X5927496Y8201710D01*
X5917946Y8212277D01*
X5907125Y8221472D01*
X5895238Y8229193D01*
X5882436Y8235391D01*
X5868924Y8239861D01*
X5855004Y8242553D01*
X5840831Y8243468D01*
X5826607Y8242553D01*
X5812688Y8239861D01*
X5799175Y8235391D01*
X5786374Y8229193D01*
X5774486Y8221472D01*
X5763666Y8212277D01*
X5754116Y8201710D01*
X5745988Y8190077D01*
X5739384Y8177479D01*
X5734507Y8164169D01*
X5731357Y8150301D01*
X5729986Y8136128D01*
X5730443Y8121954D01*
X5732678Y8107934D01*
X5736742Y8094319D01*
X5742482Y8081314D01*
X5749848Y8069173D01*
X5758738Y8058048D01*
X5768949Y8048142D01*
X5780328Y8039658D01*
X5792673Y8032699D01*
X5805881Y8027365D01*
X5819597Y8023758D01*
G37*
G36*
X5325719Y8021929D02*
G01*
X5339892Y8021929D01*
X5354015Y8023758D01*
X5367731Y8027365D01*
X5380939Y8032699D01*
X5393283Y8039658D01*
X5404662Y8048142D01*
X5414873Y8058048D01*
X5423763Y8069173D01*
X5431129Y8081314D01*
X5436870Y8094319D01*
X5440934Y8107934D01*
X5443169Y8121954D01*
X5443626Y8136128D01*
X5442254Y8150301D01*
X5439105Y8164169D01*
X5434228Y8177479D01*
X5427624Y8190077D01*
X5419496Y8201710D01*
X5409946Y8212277D01*
X5399125Y8221472D01*
X5387238Y8229193D01*
X5374436Y8235391D01*
X5360924Y8239861D01*
X5347004Y8242553D01*
X5332831Y8243468D01*
X5318607Y8242553D01*
X5304688Y8239861D01*
X5291175Y8235391D01*
X5278374Y8229193D01*
X5266486Y8221472D01*
X5255666Y8212277D01*
X5246116Y8201710D01*
X5237988Y8190077D01*
X5231384Y8177479D01*
X5226507Y8164169D01*
X5223357Y8150301D01*
X5221986Y8136128D01*
X5222443Y8121954D01*
X5224678Y8107934D01*
X5228742Y8094319D01*
X5234482Y8081314D01*
X5241848Y8069173D01*
X5250738Y8058048D01*
X5260949Y8048142D01*
X5272328Y8039658D01*
X5284673Y8032699D01*
X5297881Y8027365D01*
X5311597Y8023758D01*
G37*
G36*
X6087719Y8021929D02*
G01*
X6101892Y8021929D01*
X6116015Y8023758D01*
X6129731Y8027365D01*
X6142939Y8032699D01*
X6155283Y8039658D01*
X6166662Y8048142D01*
X6176873Y8058048D01*
X6185763Y8069173D01*
X6193129Y8081314D01*
X6198870Y8094319D01*
X6202934Y8107934D01*
X6205169Y8121954D01*
X6205626Y8136128D01*
X6204254Y8150301D01*
X6201105Y8164169D01*
X6196228Y8177479D01*
X6189624Y8190077D01*
X6181496Y8201710D01*
X6171946Y8212277D01*
X6161125Y8221472D01*
X6149238Y8229193D01*
X6136436Y8235391D01*
X6122924Y8239861D01*
X6109004Y8242553D01*
X6094831Y8243468D01*
X6080607Y8242553D01*
X6066688Y8239861D01*
X6053175Y8235391D01*
X6040374Y8229193D01*
X6028486Y8221472D01*
X6017666Y8212277D01*
X6008116Y8201710D01*
X5999988Y8190077D01*
X5993384Y8177479D01*
X5988507Y8164169D01*
X5985357Y8150301D01*
X5983986Y8136128D01*
X5984443Y8121954D01*
X5986678Y8107934D01*
X5990742Y8094319D01*
X5996482Y8081314D01*
X6003848Y8069173D01*
X6012738Y8058048D01*
X6022949Y8048142D01*
X6034328Y8039658D01*
X6046673Y8032699D01*
X6059881Y8027365D01*
X6073597Y8023758D01*
G37*
G36*
X5579719Y8021929D02*
G01*
X5593892Y8021929D01*
X5608015Y8023758D01*
X5621731Y8027365D01*
X5634939Y8032699D01*
X5647283Y8039658D01*
X5658662Y8048142D01*
X5668873Y8058048D01*
X5677763Y8069173D01*
X5685129Y8081314D01*
X5690870Y8094319D01*
X5694934Y8107934D01*
X5697169Y8121954D01*
X5697626Y8136128D01*
X5696254Y8150301D01*
X5693105Y8164169D01*
X5688228Y8177479D01*
X5681624Y8190077D01*
X5673496Y8201710D01*
X5663946Y8212277D01*
X5653125Y8221472D01*
X5641238Y8229193D01*
X5628436Y8235391D01*
X5614924Y8239861D01*
X5601004Y8242553D01*
X5586831Y8243468D01*
X5572607Y8242553D01*
X5558688Y8239861D01*
X5545175Y8235391D01*
X5532374Y8229193D01*
X5520486Y8221472D01*
X5509666Y8212277D01*
X5500116Y8201710D01*
X5491988Y8190077D01*
X5485384Y8177479D01*
X5480507Y8164169D01*
X5477357Y8150301D01*
X5475986Y8136128D01*
X5476443Y8121954D01*
X5478678Y8107934D01*
X5482742Y8094319D01*
X5488482Y8081314D01*
X5495848Y8069173D01*
X5504738Y8058048D01*
X5514949Y8048142D01*
X5526328Y8039658D01*
X5538673Y8032699D01*
X5551881Y8027365D01*
X5565597Y8023758D01*
G37*
G36*
X5071719Y8021929D02*
G01*
X5085892Y8021929D01*
X5100015Y8023758D01*
X5113731Y8027365D01*
X5126939Y8032699D01*
X5139283Y8039658D01*
X5150662Y8048142D01*
X5160873Y8058048D01*
X5169763Y8069173D01*
X5177129Y8081314D01*
X5182870Y8094319D01*
X5186934Y8107934D01*
X5189169Y8121954D01*
X5189626Y8136128D01*
X5188254Y8150301D01*
X5185105Y8164169D01*
X5180228Y8177479D01*
X5173624Y8190077D01*
X5165496Y8201710D01*
X5155946Y8212277D01*
X5145125Y8221472D01*
X5133238Y8229193D01*
X5120436Y8235391D01*
X5106924Y8239861D01*
X5093004Y8242553D01*
X5078831Y8243468D01*
X5064607Y8242553D01*
X5050688Y8239861D01*
X5037175Y8235391D01*
X5024374Y8229193D01*
X5012486Y8221472D01*
X5001666Y8212277D01*
X4992116Y8201710D01*
X4983988Y8190077D01*
X4977384Y8177479D01*
X4972507Y8164169D01*
X4969357Y8150301D01*
X4967986Y8136128D01*
X4968443Y8121954D01*
X4970678Y8107934D01*
X4974742Y8094319D01*
X4980482Y8081314D01*
X4987848Y8069173D01*
X4996738Y8058048D01*
X5006949Y8048142D01*
X5018328Y8039658D01*
X5030673Y8032699D01*
X5043881Y8027365D01*
X5057597Y8023758D01*
G37*
G36*
X6341719Y8021929D02*
G01*
X6355892Y8021929D01*
X6370015Y8023758D01*
X6383731Y8027365D01*
X6396939Y8032699D01*
X6409283Y8039658D01*
X6420662Y8048142D01*
X6430873Y8058048D01*
X6439763Y8069173D01*
X6447129Y8081314D01*
X6452870Y8094319D01*
X6456934Y8107934D01*
X6459169Y8121954D01*
X6459626Y8136128D01*
X6458254Y8150301D01*
X6455105Y8164169D01*
X6450228Y8177479D01*
X6443624Y8190077D01*
X6435496Y8201710D01*
X6425946Y8212277D01*
X6415125Y8221472D01*
X6403238Y8229193D01*
X6390436Y8235391D01*
X6376924Y8239861D01*
X6363004Y8242553D01*
X6348831Y8243468D01*
X6334607Y8242553D01*
X6320688Y8239861D01*
X6307175Y8235391D01*
X6294374Y8229193D01*
X6282486Y8221472D01*
X6271666Y8212277D01*
X6262116Y8201710D01*
X6253988Y8190077D01*
X6247384Y8177479D01*
X6242507Y8164169D01*
X6239357Y8150301D01*
X6237986Y8136128D01*
X6238443Y8121954D01*
X6240678Y8107934D01*
X6244742Y8094319D01*
X6250482Y8081314D01*
X6257848Y8069173D01*
X6266738Y8058048D01*
X6276949Y8048142D01*
X6288328Y8039658D01*
X6300673Y8032699D01*
X6313881Y8027365D01*
X6327597Y8023758D01*
G37*
G36*
X2023719Y8021929D02*
G01*
X2037892Y8021929D01*
X2052015Y8023758D01*
X2065731Y8027365D01*
X2078939Y8032699D01*
X2091283Y8039658D01*
X2102662Y8048142D01*
X2112873Y8058048D01*
X2121763Y8069173D01*
X2129129Y8081314D01*
X2134870Y8094319D01*
X2138934Y8107934D01*
X2141169Y8121954D01*
X2141626Y8136128D01*
X2140254Y8150301D01*
X2137105Y8164169D01*
X2132228Y8177479D01*
X2125624Y8190077D01*
X2117496Y8201710D01*
X2107946Y8212277D01*
X2097125Y8221472D01*
X2085238Y8229193D01*
X2072436Y8235391D01*
X2058924Y8239861D01*
X2045004Y8242553D01*
X2030831Y8243468D01*
X2016607Y8242553D01*
X2002688Y8239861D01*
X1989175Y8235391D01*
X1976374Y8229193D01*
X1964486Y8221472D01*
X1953666Y8212277D01*
X1944116Y8201710D01*
X1935988Y8190077D01*
X1929384Y8177479D01*
X1924507Y8164169D01*
X1921357Y8150301D01*
X1919986Y8136128D01*
X1920443Y8121954D01*
X1922678Y8107934D01*
X1926742Y8094319D01*
X1932482Y8081314D01*
X1939848Y8069173D01*
X1948738Y8058048D01*
X1958949Y8048142D01*
X1970328Y8039658D01*
X1982673Y8032699D01*
X1995881Y8027365D01*
X2009597Y8023758D01*
G37*
G36*
X4873650Y8033105D02*
G01*
X4885283Y8039658D01*
X4896662Y8048142D01*
X4906873Y8058048D01*
X4915763Y8069173D01*
X4923129Y8081314D01*
X4924196Y8083753D01*
X4873650Y8083753D01*
G37*
G36*
X6553962Y8033105D02*
G01*
X6553962Y8083753D01*
X6503416Y8083753D01*
X6504482Y8081314D01*
X6511848Y8069173D01*
X6520738Y8058048D01*
X6530949Y8048142D01*
X6542328Y8039658D01*
G37*
G36*
X6651650Y8033105D02*
G01*
X6663283Y8039658D01*
X6674662Y8048142D01*
X6684873Y8058048D01*
X6693763Y8069173D01*
X6701129Y8081314D01*
X6702196Y8083753D01*
X6651650Y8083753D01*
G37*
G36*
X1285443Y8097266D02*
G01*
X1302867Y8097723D01*
X1320088Y8100009D01*
X1337005Y8104174D01*
X1353362Y8110067D01*
X1369009Y8117636D01*
X1383741Y8126882D01*
X1397406Y8137601D01*
X1409852Y8149742D01*
X1420977Y8163153D01*
X1430578Y8177631D01*
X1438605Y8193074D01*
X1444955Y8209280D01*
X1449527Y8226044D01*
X1452270Y8243214D01*
X1453184Y8260588D01*
X1452270Y8277961D01*
X1449527Y8295131D01*
X1444955Y8311896D01*
X1438605Y8328101D01*
X1430578Y8343544D01*
X1420977Y8358022D01*
X1409852Y8371433D01*
X1397406Y8383574D01*
X1383741Y8394293D01*
X1369009Y8403539D01*
X1353362Y8411108D01*
X1337005Y8417001D01*
X1320088Y8421166D01*
X1302867Y8423452D01*
X1285443Y8423910D01*
X1268120Y8422538D01*
X1251051Y8419338D01*
X1234389Y8414308D01*
X1218336Y8407552D01*
X1203147Y8399119D01*
X1188923Y8389112D01*
X1175816Y8377631D01*
X1164031Y8364880D01*
X1153668Y8350910D01*
X1144828Y8335924D01*
X1137615Y8320074D01*
X1132179Y8303564D01*
X1128522Y8286597D01*
X1126642Y8269274D01*
X1126642Y8251901D01*
X1128522Y8234578D01*
X1132179Y8217611D01*
X1137615Y8201101D01*
X1144828Y8185251D01*
X1153668Y8170265D01*
X1164031Y8156295D01*
X1175816Y8143544D01*
X1188923Y8132064D01*
X1203147Y8122056D01*
X1218336Y8113623D01*
X1234389Y8106867D01*
X1251051Y8101838D01*
X1268120Y8098637D01*
G37*
G36*
X7085431Y8097266D02*
G01*
X7102856Y8097723D01*
X7120077Y8100009D01*
X7136993Y8104174D01*
X7153351Y8110067D01*
X7168997Y8117636D01*
X7183729Y8126882D01*
X7197394Y8137601D01*
X7209840Y8149742D01*
X7220966Y8163153D01*
X7230567Y8177631D01*
X7238593Y8193074D01*
X7244943Y8209280D01*
X7249515Y8226044D01*
X7252258Y8243214D01*
X7253173Y8260588D01*
X7252258Y8277961D01*
X7249515Y8295131D01*
X7244943Y8311896D01*
X7238593Y8328101D01*
X7230567Y8343544D01*
X7220966Y8358022D01*
X7209840Y8371433D01*
X7197394Y8383574D01*
X7183729Y8394293D01*
X7168997Y8403539D01*
X7153351Y8411108D01*
X7136993Y8417001D01*
X7120077Y8421166D01*
X7102856Y8423452D01*
X7085431Y8423910D01*
X7068108Y8422538D01*
X7051040Y8419338D01*
X7034377Y8414308D01*
X7018324Y8407552D01*
X7003135Y8399119D01*
X6988911Y8389112D01*
X6975805Y8377631D01*
X6964019Y8364880D01*
X6953656Y8350910D01*
X6944817Y8335924D01*
X6937603Y8320074D01*
X6932168Y8303564D01*
X6928510Y8286597D01*
X6926630Y8269274D01*
X6926630Y8251901D01*
X6928510Y8234578D01*
X6932168Y8217611D01*
X6937603Y8201101D01*
X6944817Y8185251D01*
X6953656Y8170265D01*
X6964019Y8156295D01*
X6975805Y8143544D01*
X6988911Y8132064D01*
X7003135Y8122056D01*
X7018324Y8113623D01*
X7034377Y8106867D01*
X7051040Y8101838D01*
X7068108Y8098637D01*
G37*
G36*
X4873650Y8181441D02*
G01*
X4924145Y8181441D01*
X4919624Y8190077D01*
X4911496Y8201710D01*
X4901946Y8212277D01*
X4891125Y8221472D01*
X4879238Y8229193D01*
X4873650Y8231886D01*
G37*
G36*
X6503466Y8181441D02*
G01*
X6553962Y8181441D01*
X6553962Y8231886D01*
X6548374Y8229193D01*
X6536486Y8221472D01*
X6525666Y8212277D01*
X6516116Y8201710D01*
X6507988Y8190077D01*
G37*
G36*
X6651650Y8181441D02*
G01*
X6702145Y8181441D01*
X6697624Y8190077D01*
X6689496Y8201710D01*
X6679946Y8212277D01*
X6669125Y8221472D01*
X6657238Y8229193D01*
X6651650Y8231886D01*
G37*
G36*
X5579719Y8275929D02*
G01*
X5593892Y8275929D01*
X5608015Y8277758D01*
X5621731Y8281365D01*
X5634939Y8286699D01*
X5647283Y8293658D01*
X5658662Y8302142D01*
X5668873Y8312048D01*
X5677763Y8323173D01*
X5685129Y8335314D01*
X5690870Y8348319D01*
X5694934Y8361934D01*
X5697169Y8375954D01*
X5697626Y8390128D01*
X5696254Y8404301D01*
X5693105Y8418169D01*
X5688228Y8431479D01*
X5681624Y8444077D01*
X5673496Y8455710D01*
X5663946Y8466277D01*
X5653125Y8475472D01*
X5641238Y8483193D01*
X5628436Y8489391D01*
X5614924Y8493861D01*
X5601004Y8496554D01*
X5586831Y8497468D01*
X5572607Y8496554D01*
X5558688Y8493861D01*
X5545175Y8489391D01*
X5532374Y8483193D01*
X5520486Y8475472D01*
X5509666Y8466277D01*
X5500116Y8455710D01*
X5491988Y8444077D01*
X5485384Y8431479D01*
X5480507Y8418169D01*
X5477357Y8404301D01*
X5475986Y8390128D01*
X5476443Y8375954D01*
X5478678Y8361934D01*
X5482742Y8348319D01*
X5488482Y8335314D01*
X5495848Y8323173D01*
X5504738Y8312048D01*
X5514949Y8302142D01*
X5526328Y8293658D01*
X5538673Y8286699D01*
X5551881Y8281365D01*
X5565597Y8277758D01*
G37*
G36*
X6341719Y8275929D02*
G01*
X6355892Y8275929D01*
X6370015Y8277758D01*
X6383731Y8281365D01*
X6396939Y8286699D01*
X6409283Y8293658D01*
X6420662Y8302142D01*
X6430873Y8312048D01*
X6439763Y8323173D01*
X6447129Y8335314D01*
X6452870Y8348319D01*
X6456934Y8361934D01*
X6459169Y8375954D01*
X6459626Y8390128D01*
X6458254Y8404301D01*
X6455105Y8418169D01*
X6450228Y8431479D01*
X6443624Y8444077D01*
X6435496Y8455710D01*
X6425946Y8466277D01*
X6415125Y8475472D01*
X6403238Y8483193D01*
X6390436Y8489391D01*
X6376924Y8493861D01*
X6363004Y8496554D01*
X6348831Y8497468D01*
X6334607Y8496554D01*
X6320688Y8493861D01*
X6307175Y8489391D01*
X6294374Y8483193D01*
X6282486Y8475472D01*
X6271666Y8466277D01*
X6262116Y8455710D01*
X6253988Y8444077D01*
X6247384Y8431479D01*
X6242507Y8418169D01*
X6239357Y8404301D01*
X6237986Y8390128D01*
X6238443Y8375954D01*
X6240678Y8361934D01*
X6244742Y8348319D01*
X6250482Y8335314D01*
X6257848Y8323173D01*
X6266738Y8312048D01*
X6276949Y8302142D01*
X6288328Y8293658D01*
X6300673Y8286699D01*
X6313881Y8281365D01*
X6327597Y8277758D01*
G37*
G36*
X6087719Y8275929D02*
G01*
X6101892Y8275929D01*
X6116015Y8277758D01*
X6129731Y8281365D01*
X6142939Y8286699D01*
X6155283Y8293658D01*
X6166662Y8302142D01*
X6176873Y8312048D01*
X6185763Y8323173D01*
X6193129Y8335314D01*
X6198870Y8348319D01*
X6202934Y8361934D01*
X6205169Y8375954D01*
X6205626Y8390128D01*
X6204254Y8404301D01*
X6201105Y8418169D01*
X6196228Y8431479D01*
X6189624Y8444077D01*
X6181496Y8455710D01*
X6171946Y8466277D01*
X6161125Y8475472D01*
X6149238Y8483193D01*
X6136436Y8489391D01*
X6122924Y8493861D01*
X6109004Y8496554D01*
X6094831Y8497468D01*
X6080607Y8496554D01*
X6066688Y8493861D01*
X6053175Y8489391D01*
X6040374Y8483193D01*
X6028486Y8475472D01*
X6017666Y8466277D01*
X6008116Y8455710D01*
X5999988Y8444077D01*
X5993384Y8431479D01*
X5988507Y8418169D01*
X5985357Y8404301D01*
X5983986Y8390128D01*
X5984443Y8375954D01*
X5986678Y8361934D01*
X5990742Y8348319D01*
X5996482Y8335314D01*
X6003848Y8323173D01*
X6012738Y8312048D01*
X6022949Y8302142D01*
X6034328Y8293658D01*
X6046673Y8286699D01*
X6059881Y8281365D01*
X6073597Y8277758D01*
G37*
G36*
X5071719Y8275929D02*
G01*
X5085892Y8275929D01*
X5100015Y8277758D01*
X5113731Y8281365D01*
X5126939Y8286699D01*
X5139283Y8293658D01*
X5150662Y8302142D01*
X5160873Y8312048D01*
X5169763Y8323173D01*
X5177129Y8335314D01*
X5182870Y8348319D01*
X5186934Y8361934D01*
X5189169Y8375954D01*
X5189626Y8390128D01*
X5188254Y8404301D01*
X5185105Y8418169D01*
X5180228Y8431479D01*
X5173624Y8444077D01*
X5165496Y8455710D01*
X5155946Y8466277D01*
X5145125Y8475472D01*
X5133238Y8483193D01*
X5120436Y8489391D01*
X5106924Y8493861D01*
X5093004Y8496554D01*
X5078831Y8497468D01*
X5064607Y8496554D01*
X5050688Y8493861D01*
X5037175Y8489391D01*
X5024374Y8483193D01*
X5012486Y8475472D01*
X5001666Y8466277D01*
X4992116Y8455710D01*
X4983988Y8444077D01*
X4977384Y8431479D01*
X4972507Y8418169D01*
X4969357Y8404301D01*
X4967986Y8390128D01*
X4968443Y8375954D01*
X4970678Y8361934D01*
X4974742Y8348319D01*
X4980482Y8335314D01*
X4987848Y8323173D01*
X4996738Y8312048D01*
X5006949Y8302142D01*
X5018328Y8293658D01*
X5030673Y8286699D01*
X5043881Y8281365D01*
X5057597Y8277758D01*
G37*
G36*
X6595719Y8275929D02*
G01*
X6609892Y8275929D01*
X6624015Y8277758D01*
X6637731Y8281365D01*
X6650939Y8286699D01*
X6663283Y8293658D01*
X6674662Y8302142D01*
X6684873Y8312048D01*
X6693763Y8323173D01*
X6701129Y8335314D01*
X6706870Y8348319D01*
X6710934Y8361934D01*
X6713169Y8375954D01*
X6713626Y8390128D01*
X6712254Y8404301D01*
X6709105Y8418169D01*
X6704228Y8431479D01*
X6697624Y8444077D01*
X6689496Y8455710D01*
X6679946Y8466277D01*
X6669125Y8475472D01*
X6657238Y8483193D01*
X6644436Y8489391D01*
X6630924Y8493861D01*
X6617004Y8496554D01*
X6602831Y8497468D01*
X6588607Y8496554D01*
X6574688Y8493861D01*
X6561175Y8489391D01*
X6548374Y8483193D01*
X6536486Y8475472D01*
X6525666Y8466277D01*
X6516116Y8455710D01*
X6507988Y8444077D01*
X6501384Y8431479D01*
X6496507Y8418169D01*
X6493357Y8404301D01*
X6491986Y8390128D01*
X6492443Y8375954D01*
X6494678Y8361934D01*
X6498742Y8348319D01*
X6504482Y8335314D01*
X6511848Y8323173D01*
X6520738Y8312048D01*
X6530949Y8302142D01*
X6542328Y8293658D01*
X6554673Y8286699D01*
X6567881Y8281365D01*
X6581597Y8277758D01*
G37*
G36*
X1769719Y8275929D02*
G01*
X1783892Y8275929D01*
X1798015Y8277758D01*
X1811731Y8281365D01*
X1824939Y8286699D01*
X1837283Y8293658D01*
X1848662Y8302142D01*
X1858873Y8312048D01*
X1867763Y8323173D01*
X1872386Y8330793D01*
X1874672Y8333384D01*
X1877669Y8335111D01*
X1881073Y8335670D01*
X1926539Y8335670D01*
X1929942Y8335111D01*
X1932939Y8333384D01*
X1935225Y8330793D01*
X1939848Y8323173D01*
X1948738Y8312048D01*
X1958949Y8302142D01*
X1970328Y8293658D01*
X1982673Y8286699D01*
X1995881Y8281365D01*
X2009597Y8277758D01*
X2023719Y8275929D01*
X2037892Y8275929D01*
X2052015Y8277758D01*
X2065731Y8281365D01*
X2078939Y8286699D01*
X2091283Y8293658D01*
X2102662Y8302142D01*
X2112873Y8312048D01*
X2121763Y8323173D01*
X2129129Y8335314D01*
X2134870Y8348319D01*
X2138934Y8361934D01*
X2141169Y8375954D01*
X2141626Y8390128D01*
X2140254Y8404301D01*
X2137105Y8418169D01*
X2132228Y8431479D01*
X2125624Y8444077D01*
X2117496Y8455710D01*
X2107946Y8466277D01*
X2097125Y8475472D01*
X2085238Y8483193D01*
X2072436Y8489391D01*
X2058924Y8493861D01*
X2045004Y8496554D01*
X2030831Y8497468D01*
X2016607Y8496554D01*
X2002688Y8493861D01*
X1989175Y8489391D01*
X1976374Y8483193D01*
X1964486Y8475472D01*
X1953666Y8466277D01*
X1944116Y8455710D01*
X1933143Y8440064D01*
X1929993Y8438184D01*
X1926386Y8437524D01*
X1881225Y8437524D01*
X1877618Y8438184D01*
X1874469Y8440064D01*
X1863496Y8455710D01*
X1853946Y8466277D01*
X1843125Y8475472D01*
X1831238Y8483193D01*
X1818436Y8489391D01*
X1804924Y8493861D01*
X1791004Y8496554D01*
X1776831Y8497468D01*
X1762607Y8496554D01*
X1748688Y8493861D01*
X1735175Y8489391D01*
X1722374Y8483193D01*
X1710486Y8475472D01*
X1699666Y8466277D01*
X1690116Y8455710D01*
X1681988Y8444077D01*
X1675384Y8431479D01*
X1670507Y8418169D01*
X1667357Y8404301D01*
X1665986Y8390128D01*
X1666443Y8375954D01*
X1668678Y8361934D01*
X1672742Y8348319D01*
X1678482Y8335314D01*
X1685848Y8323173D01*
X1694738Y8312048D01*
X1704949Y8302142D01*
X1716328Y8293658D01*
X1728673Y8286699D01*
X1741881Y8281365D01*
X1755597Y8277758D01*
G37*
G36*
X5381650Y8287105D02*
G01*
X5393283Y8293658D01*
X5404662Y8302142D01*
X5414873Y8312048D01*
X5423763Y8323173D01*
X5431129Y8335314D01*
X5432196Y8337753D01*
X5381650Y8337753D01*
G37*
G36*
X5283962Y8287105D02*
G01*
X5283962Y8337753D01*
X5233416Y8337753D01*
X5234482Y8335314D01*
X5241848Y8323173D01*
X5250738Y8312048D01*
X5260949Y8302142D01*
X5272328Y8293658D01*
G37*
G36*
X5791962Y8287105D02*
G01*
X5791962Y8337753D01*
X5741416Y8337753D01*
X5742482Y8335314D01*
X5749848Y8323173D01*
X5758738Y8312048D01*
X5768949Y8302142D01*
X5780328Y8293658D01*
G37*
G36*
X5889650Y8287105D02*
G01*
X5901283Y8293658D01*
X5912662Y8302142D01*
X5922873Y8312048D01*
X5931763Y8323173D01*
X5939129Y8335314D01*
X5940196Y8337753D01*
X5889650Y8337753D01*
G37*
G36*
X2333650Y8287105D02*
G01*
X2345283Y8293658D01*
X2356662Y8302142D01*
X2366873Y8312048D01*
X2375763Y8323173D01*
X2383129Y8335314D01*
X2384196Y8337753D01*
X2333650Y8337753D01*
G37*
G36*
X2235962Y8287105D02*
G01*
X2235962Y8337753D01*
X2185416Y8337753D01*
X2186482Y8335314D01*
X2193848Y8323173D01*
X2202738Y8312048D01*
X2212949Y8302142D01*
X2224328Y8293658D01*
G37*
G36*
X5889650Y8435441D02*
G01*
X5940145Y8435441D01*
X5935624Y8444077D01*
X5927496Y8455710D01*
X5917946Y8466277D01*
X5907125Y8475472D01*
X5895238Y8483193D01*
X5889650Y8485886D01*
G37*
G36*
X5741466Y8435441D02*
G01*
X5791962Y8435441D01*
X5791962Y8485886D01*
X5786374Y8483193D01*
X5774486Y8475472D01*
X5763666Y8466277D01*
X5754116Y8455710D01*
X5745988Y8444077D01*
G37*
G36*
X5381650Y8435441D02*
G01*
X5432145Y8435441D01*
X5427624Y8444077D01*
X5419496Y8455710D01*
X5409946Y8466277D01*
X5399125Y8475472D01*
X5387238Y8483193D01*
X5381650Y8485886D01*
G37*
G36*
X2185466Y8435441D02*
G01*
X2235962Y8435441D01*
X2235962Y8485886D01*
X2230374Y8483193D01*
X2218486Y8475472D01*
X2207666Y8466277D01*
X2198116Y8455710D01*
X2189988Y8444077D01*
G37*
G36*
X5233466Y8435441D02*
G01*
X5283962Y8435441D01*
X5283962Y8485886D01*
X5278374Y8483193D01*
X5266486Y8475472D01*
X5255666Y8466277D01*
X5246116Y8455710D01*
X5237988Y8444077D01*
G37*
G36*
X2333650Y8435441D02*
G01*
X2384145Y8435441D01*
X2379624Y8444077D01*
X2371496Y8455710D01*
X2361946Y8466277D01*
X2351125Y8475472D01*
X2339238Y8483193D01*
X2333650Y8485886D01*
G37*

%LPD*%
D10*
X3898900Y6697979D02*
G01*
X3898900Y6568465D01*
X3898900Y6568465D02*
G01*
X3780104Y6449669D01*
X3525697Y6449669D01*
X2933700Y6697979D02*
G01*
X2933700Y6489700D01*
X2540000Y6096000D01*
X3644900Y6697979D02*
G01*
X3644900Y6568465D01*
X3644900Y6568465D02*
G01*
X3561664Y6568465D01*
X4152900Y6568465D02*
G01*
X4122420Y6568465D01*
X3683000Y6129045D01*
X3683000Y6062979D01*
X3566617Y5946597D01*
X3152597Y5946597D01*
X3048000Y5842000D01*
X4152900Y6697979D02*
G01*
X4152900Y6568465D01*
X2425700Y6697979D02*
G01*
X2425700Y6568465D01*
X2425700Y6568465D02*
G01*
X2428544Y6565620D01*
X2428544Y6548043D01*
X4318000Y5842000D02*
G01*
X4200093Y5724093D01*
X2497074Y5724093D01*
X2044700Y6176467D01*
X2044700Y6697979D01*
X2806700Y7703820D02*
G01*
X2806700Y7833334D01*
X2806700Y7833334D02*
G01*
X2806877Y7833512D01*
X2992196Y7833512D01*
X2999587Y7826120D01*
X2999587Y7581112D01*
X3006979Y7573721D01*
X3139897Y7573721D01*
X3180232Y7533386D01*
X4508627Y7533386D01*
X4025900Y7703820D02*
G01*
X4025900Y7833334D01*
X4025900Y7833334D02*
G01*
X3973474Y7833334D01*
X3963644Y7843164D01*
X4152900Y7703820D02*
G01*
X4152900Y7879587D01*
X3935806Y8096681D01*
X3935806Y8259597D01*
X3808806Y8386597D01*
X4279900Y7833334D02*
G01*
X4189806Y7923428D01*
X4189806Y8259597D01*
X4316806Y8386597D01*
X4279900Y7703820D02*
G01*
X4279900Y7833334D01*
X2933700Y7574305D02*
G01*
X3022117Y7485887D01*
X3134918Y7485887D01*
X2933700Y7703820D02*
G01*
X2933700Y7574305D01*
X3060700Y7833334D02*
G01*
X3069691Y7842326D01*
X3366211Y7842326D01*
X3060700Y7703820D02*
G01*
X3060700Y7833334D01*
X3554806Y8386597D02*
G01*
X3681806Y8259597D01*
X3681806Y8050428D01*
X3898900Y7833334D01*
X3898900Y7703820D02*
G01*
X3898900Y7833334D01*
X4824806Y8386597D02*
G01*
X4657267Y8554135D01*
X3052267Y8554135D01*
X2919907Y8421776D01*
X2919907Y8349437D01*
X2816148Y8245678D01*
X2491968Y8245678D01*
X2425700Y8179409D01*
X2425700Y7703820D01*
X5842000Y7442200D02*
G01*
X4860569Y7442200D01*
X2538806Y8386597D02*
G01*
X2709189Y8556980D01*
X2884373Y8556980D01*
X5842000Y5840476D02*
G01*
X6485661Y5840476D01*
X6487185Y5842000D01*
X6616700Y5842000D02*
G01*
X6487185Y5842000D01*
X2552700Y6697979D02*
G01*
X2552700Y6548653D01*
X2368295Y6364249D01*
X2552700Y7833334D02*
G01*
X2552877Y7833512D01*
X2733420Y7833512D01*
X2740812Y7826120D01*
X2740812Y7581519D01*
X2896031Y7426299D01*
X4484370Y7426299D01*
X4599635Y7541564D01*
X4599635Y7849768D01*
X4316806Y8132597D01*
X2552700Y7703820D02*
G01*
X2552700Y7833334D01*
X2171700Y7703820D02*
G01*
X2171700Y7833334D01*
X2171700Y7833334D02*
G01*
X2224100Y7833334D01*
X2235377Y7844612D01*
X3300806Y8132597D02*
G01*
X3187700Y8019491D01*
X2694406Y8019491D01*
X2298700Y7703820D02*
G01*
X2298700Y7574305D01*
X2298700Y7574305D02*
G01*
X2615488Y7257516D01*
X4714849Y7257516D01*
X2679700Y7703820D02*
G01*
X2679700Y7566812D01*
X2861818Y7384694D01*
X4530953Y7384694D01*
X4722012Y7575753D01*
X4722012Y7879003D01*
X4697806Y7903210D01*
X4697806Y8259597D01*
X4570806Y8386597D01*
X4406900Y7833334D02*
G01*
X4533900Y7833334D01*
X4533900Y7703820D02*
G01*
X4533900Y7833334D01*
X4406900Y7768589D02*
G01*
X4406900Y7833334D01*
X4406900Y7768589D02*
G01*
X4406900Y7703820D01*
X3771900Y7833334D02*
G01*
X3702100Y7903133D01*
X2727934Y7903133D01*
X2538806Y8092262D01*
X2538806Y8132597D01*
X3771900Y7768589D02*
G01*
X3771900Y7833334D01*
X3771900Y7768589D02*
G01*
X3771900Y7703820D01*
X3771900Y7574305D02*
G01*
X3772052Y7574153D01*
X4406747Y7574153D01*
X4406900Y7574305D01*
X3771900Y7703820D02*
G01*
X3771900Y7574305D01*
X4406900Y7703820D02*
G01*
X4406900Y7574305D01*
X3771900Y6568465D02*
G01*
X3739819Y6568465D01*
X3721074Y6549720D01*
X3771900Y6697979D02*
G01*
X3771900Y6568465D01*
X2806700Y6697979D02*
G01*
X2806700Y6568465D01*
X2794000Y6096000D02*
G01*
X2688158Y5990158D01*
X2484170Y5990158D01*
X2420696Y6053632D01*
X2420696Y6182461D01*
X2806700Y6568465D01*
X4025900Y6697979D02*
G01*
X4025900Y6568465D01*
X3048000Y6096000D02*
G01*
X3217392Y6265392D01*
X3724325Y6265392D01*
X4025900Y6566966D01*
X4025900Y6568465D01*
X2679700Y6697979D02*
G01*
X2679700Y6523380D01*
X2379929Y6223609D01*
X2379929Y6034049D01*
X2467686Y5946292D01*
X3045790Y5946292D01*
X3086887Y5987389D01*
X3447389Y5987389D01*
X3556000Y6096000D01*
X2556992Y7110704D02*
G01*
X3263366Y7110704D01*
X2298700Y6697979D02*
G01*
X2298700Y6548653D01*
X2171700Y6827494D02*
G01*
X2216607Y6872401D01*
X3080131Y6872401D01*
X3121786Y6830745D01*
X3121786Y6572580D01*
X3315639Y6378727D01*
X3754805Y6378727D01*
X2171700Y6697979D02*
G01*
X2171700Y6827494D01*
X2044700Y7574305D02*
G01*
X1478305Y7574305D01*
X1270000Y7366000D01*
X2044700Y7703820D02*
G01*
X2044700Y7574305D01*
X4062806Y8386597D02*
G01*
X3947998Y8501405D01*
X3415614Y8501405D01*
X3300806Y8386597D01*
X3300806Y8386597D02*
G01*
X3173806Y8259597D01*
X2919806Y8259597D01*
X2792806Y8132597D01*
X2044700Y7703820D02*
G01*
X2044700Y7833334D01*
X4660900Y6568465D02*
G01*
X4630420Y6568465D01*
X4191000Y6129045D01*
X4191000Y5969000D01*
X4064000Y5842000D01*
X4660900Y6697979D02*
G01*
X4660900Y6568465D01*
X2284806Y8386597D02*
G01*
X2171700Y8273491D01*
X2171700Y7960334D01*
X2044700Y7833334D01*
X3644900Y7703820D02*
G01*
X3644900Y7833334D01*
X3644900Y7833334D02*
G01*
X3461588Y7833334D01*
X3060700Y6697979D02*
G01*
X3060700Y6827494D01*
X2540000Y5842000D02*
G01*
X2491663Y5842000D01*
X2339136Y5994527D01*
X2339136Y6252235D01*
X2618587Y6531686D01*
X2618587Y6820280D01*
X2625979Y6827672D01*
X3060522Y6827672D01*
X3060700Y6827494D01*
D11*
X3187700Y6697979D02*
G01*
X3187700Y6839788D01*
X2030806Y8386597D02*
G01*
X1776806Y8386597D01*
X3450361Y7674457D02*
G01*
X3217062Y7674457D01*
X3187700Y7703820D01*
X1282700Y6832600D02*
G01*
X1379601Y6929501D01*
X3119145Y6929501D01*
X3198291Y6850379D01*
X3187700Y6839788D02*
G01*
X3198291Y6850379D01*
X3198291Y6850379D02*
G01*
X4787900Y6850379D01*
X4787900Y6697979D02*
G01*
X4787900Y6850379D01*
X4787900Y7346061D02*
G01*
X4623917Y7346061D01*
X4603851Y7325995D01*
X3708908Y7325995D01*
X4787900Y6850379D02*
G01*
X4787900Y7346061D01*
X4787900Y7346061D02*
G01*
X4787900Y7703820D01*
D12*
G01*
X3187700Y7703820D03*
G01*
X3060700Y7703820D03*
G01*
X2933700Y7703820D03*
G01*
X2806700Y7703820D03*
G01*
X2679700Y7703820D03*
G01*
X2552700Y7703820D03*
G01*
X2425700Y7703820D03*
G01*
X2298700Y7703820D03*
G01*
X2298700Y6697979D03*
G01*
X2425700Y6697979D03*
G01*
X2552700Y6697979D03*
G01*
X2679700Y6697979D03*
G01*
X2806700Y6697979D03*
G01*
X2933700Y6697979D03*
G01*
X3060700Y6697979D03*
G01*
X3187700Y6697979D03*
G01*
X2171700Y7703820D03*
G01*
X2044700Y7703820D03*
G01*
X2171700Y6697979D03*
G01*
X2044700Y6697979D03*
G01*
X4787900Y7703820D03*
G01*
X4660900Y7703820D03*
G01*
X4533900Y7703820D03*
G01*
X4406900Y7703820D03*
G01*
X4279900Y7703820D03*
G01*
X4152900Y7703820D03*
G01*
X4025900Y7703820D03*
G01*
X3898900Y7703820D03*
G01*
X3898900Y6697979D03*
G01*
X4025900Y6697979D03*
G01*
X4152900Y6697979D03*
G01*
X4279900Y6697979D03*
G01*
X4406900Y6697979D03*
G01*
X4533900Y6697979D03*
G01*
X4660900Y6697979D03*
G01*
X4787900Y6697979D03*
G01*
X3771900Y7703820D03*
G01*
X3644900Y7703820D03*
G01*
X3771900Y6697979D03*
G01*
X3644900Y6697979D03*
D13*
G01*
X1776796Y8132610D03*
D14*
G01*
X1776806Y8386597D03*
G01*
X2030806Y8132597D03*
G01*
X2030806Y8386597D03*
G01*
X2284806Y8132597D03*
G01*
X2284806Y8386597D03*
G01*
X2538806Y8132597D03*
G01*
X2538806Y8386597D03*
G01*
X2792806Y8132597D03*
G01*
X2792806Y8386597D03*
G01*
X3046806Y8132597D03*
G01*
X3046806Y8386597D03*
G01*
X3300806Y8132597D03*
G01*
X3300806Y8386597D03*
G01*
X3554806Y8132597D03*
G01*
X3554806Y8386597D03*
G01*
X3808806Y8132597D03*
G01*
X3808806Y8386597D03*
G01*
X4062806Y8132597D03*
G01*
X4062806Y8386597D03*
G01*
X4316806Y8132597D03*
G01*
X4316806Y8386597D03*
G01*
X4570806Y8132597D03*
G01*
X4570806Y8386597D03*
G01*
X4824806Y8132597D03*
G01*
X4824806Y8386597D03*
G01*
X5078806Y8132597D03*
G01*
X5078806Y8386597D03*
G01*
X5332806Y8132597D03*
G01*
X5332806Y8386597D03*
G01*
X5586806Y8132597D03*
G01*
X5586806Y8386597D03*
G01*
X5840806Y8132597D03*
G01*
X5840806Y8386597D03*
G01*
X6094806Y8132597D03*
G01*
X6094806Y8386597D03*
G01*
X6348806Y8132597D03*
G01*
X6348806Y8386597D03*
G01*
X6602806Y8132597D03*
G01*
X6602806Y8386597D03*
D15*
G01*
X6616700Y5842000D03*
D16*
G01*
X6616700Y6096000D03*
G01*
X6616700Y6350000D03*
G01*
X6616700Y6604000D03*
G01*
X6616700Y6858000D03*
G01*
X6616700Y7112000D03*
G01*
X6616700Y7366000D03*
G01*
X6616700Y7620000D03*
D17*
G01*
X5842000Y7442200D03*
G01*
X5842000Y6832600D03*
D18*
G01*
X1282700Y6832600D03*
G01*
X1282700Y6578600D03*
D19*
G01*
X5382006Y6540474D03*
G01*
X5842000Y6540474D03*
G01*
X5842000Y5840476D03*
G01*
X5382006Y5840476D03*
D20*
G01*
X1270000Y7620000D03*
D21*
G01*
X1270000Y7366000D03*
D17*
G01*
X4318000Y6096000D03*
G01*
X4064000Y6096000D03*
G01*
X3810000Y6096000D03*
G01*
X3556000Y6096000D03*
G01*
X3302000Y6096000D03*
G01*
X3048000Y6096000D03*
G01*
X2794000Y6096000D03*
G01*
X2540000Y6096000D03*
G01*
X2540000Y5842000D03*
G01*
X2794000Y5842000D03*
G01*
X3048000Y5842000D03*
G01*
X3302000Y5842000D03*
G01*
X3556000Y5842000D03*
G01*
X3810000Y5842000D03*
G01*
X4064000Y5842000D03*
G01*
X4318000Y5842000D03*
D22*
G01*
X3450361Y7674457D03*
G01*
X3708908Y7325995D03*
G01*
X3461588Y7833334D03*
G01*
X3754805Y6378727D03*
G01*
X3263366Y7110704D03*
G01*
X2556992Y7110704D03*
G01*
X2298700Y6548653D03*
G01*
X3721074Y6549720D03*
G01*
X4714849Y7257516D03*
G01*
X2235377Y7844612D03*
G01*
X2694406Y8019491D03*
G01*
X2368295Y6364249D03*
G01*
X2884373Y8556980D03*
G01*
X4860569Y7442200D03*
G01*
X3366211Y7842326D03*
G01*
X3134918Y7485887D03*
G01*
X3963644Y7843164D03*
G01*
X4508627Y7533386D03*
G01*
X2428544Y6548043D03*
G01*
X3561664Y6568465D03*
G01*
X3525697Y6449669D03*
M02*
